<?xml version="1.0" encoding="utf-8"?>
<!-- Generator: Adobe Illustrator 26.0.3, SVG Export Plug-In . SVG Version: 6.00 Build 0)  -->
<svg version="1.1" id="Layer_0_xA0_Image_00000141453104970908346110000010340226681881014163_"
	 xmlns="http://www.w3.org/2000/svg" xmlns:xlink="http://www.w3.org/1999/xlink" x="0px" y="0px" viewBox="0 0 837.02 491.82"
	 style="enable-background:new 0 0 837.02 491.82;" xml:space="preserve">
<style type="text/css">
	.st0{fill:#231F20;}
	.st1{fill:#000714;}
	.st2{fill:#010815;}
	.st3{fill:#010714;}
	.st4{fill:#020916;}
	.st5{fill:#FCFCFC;}
	.st6{fill:#000712;}
	.st7{fill:#020915;}
</style>
<path class="st0" d="M837.02,399.33c-0.04-0.23-0.07-0.38-0.11-0.6c-1.05-0.88-2.4-0.05-3.5-0.63c-0.82,0-1.64,0.1-2.44-0.01
	c-1.29-0.18-1.99,0.57-2.11,1.55c-0.27,2.15-1.11,4.1-1.71,6.14c-2.05,6.89-7.3,10.85-14.6,10.85c-7.19,0.53-14.4,0-21.6,0.29
	c-2.32,0.09-2.67-0.76-2.65-2.78c0.09-9.24,0.03-18.49,0.05-27.74c0-0.79-0.24-1.64,0.27-2.38c4.75-0.37,9.52-0.23,14.28-0.06
	c1.31,0.47,2.72-0.14,4.02,0.4c4.85,0.34,7.79,2.58,8.14,7.72c0.16,2.41,1.4,3.84,4.23,3.2c1.2-0.27,2.53-0.01,3.8,0
	c0.3-0.25,0.4-0.56,0.4-0.95c0-9.23,0.03-18.47-0.01-27.7c0-0.3-0.18-0.5-0.31-0.73c-1.92-0.01-3.85,0.02-5.76-0.03
	c-1.23-0.04-1.64,0.06-1.82,1.67c-0.71,6.24-2.93,9.71-10.17,9.28c-5.61,0.37-11.2,0.43-16.81-0.02c-0.59-9.5-0.1-19.02-0.26-28.53
	c-0.02-0.96,0.51-1.24,1.38-1.22c6.84,0.14,13.7-0.27,20.53,0.23c1.48-0.52,2.86,0.29,4.17,0.59c3.77,0.86,7.26,2.39,9.06,6.24
	c1.14,2.43,2.28,4.84,2.52,7.55c0.13,1.5,0.88,2.23,2.49,1.98c0.7-0.11,1.45,0,2.18,0.01c1.14-0.47,2.38-0.01,3.52-0.36
	c0.32-0.39,0.35-0.8,0.07-1.22c-0.04-0.48-0.07-0.97-0.11-1.45c-0.47-0.92,0.01-1.97-0.39-2.9c-0.06-0.83-0.11-1.66-0.16-2.49
	c-0.44-0.95,0-2.02-0.4-2.97c-0.04-0.69-0.09-1.37-0.13-2.06c-0.51-0.9,0-1.94-0.4-2.85c-0.05-0.85-0.11-1.71-0.16-2.56
	c-0.47-0.92,0.01-1.97-0.39-2.9c0.05-2.02-1.4-1.65-2.63-1.65c-22.04,0-44.08,0-66.12,0c-0.43,2-0.45,4,0.02,5.99
	c1.09,0.04,2.19,0.07,3.27,0.1c1.07,0.48,2.29-0.17,3.34,0.44c2.55,0.81,2.74,2.92,2.75,5.07c0.08,11.54,0.18,23.08,0.19,34.62
	c0.01,8.63-0.06,17.26-0.21,25.89c-0.03,1.96-0.05,4.19-2.72,4.81c-0.87,0.58-1.91-0.01-2.8,0.43c-6.59,1.34-10.88-1.49-13.71-7.25
	c-2.12-4.32-4.43-8.55-6.68-12.81c-2.97-5.64-6.88-10.44-12.62-13.56c-0.29-0.38-0.68-0.76,0.04-1.1c2.29-0.77,4.59-1.46,6.84-2.32
	c8.23-3.16,12.42-9.36,12.86-17.91c0.43-8.34-3.19-14.42-10.98-18.09c-4.54-2.14-9.42-2.78-14.21-3.84
	c-1.15-0.45-2.41,0.08-3.54-0.41c-0.27,0.03-0.53,0.09-0.81,0.09c-14.06-0.04-28.12-0.1-42.18-0.13c-0.68,0-1.85-0.36-1.98,0.36
	c-0.29,1.57-0.35,3.25-0.13,4.83c0.21,1.42,1.72,0.44,2.53,0.88c1.27,0.48,2.67-0.19,3.93,0.42c1.4,0.17,2.51,0.69,2.83,2.23
	c0.52,2.45,0.53,4.95,0.53,7.44c0,16.99,0.01,33.99,0,50.98c0,1.45,0.14,2.94-0.11,4.35c-0.42,2.3-0.16,5.2-3.73,5.42
	c-2.83,0.36-5.67,0.4-8.5-0.02c-1.67,0.2-2.9-0.6-4.11-1.64c-1.92-1.66-2.93-3.91-3.84-6.12c-8.01-19.52-15.86-39.11-23.94-58.61
	c-1.62-3.91-2.68-8.09-5.21-11.61c-1.1,0.54-2.34-0.05-3.44,0.42c-0.82,0.04-1.63,0.09-2.45,0.13c-0.97,0.44-2.06,0.02-3.04,0.41
	c-1.9,0.19-2.06,1.9-2.68,3.14c-1.94,3.91-3.46,8-5.37,11.94c-2.31,4.77-4.11,9.77-6.2,14.65c-2.14,4.98-4.34,9.94-6.56,14.88
	c-2.18,4.84-4.6,9.57-6.54,14.49c-1.8,4.61-3.73,9.18-6.66,13.14c-1.66,2.25-3.83,4.45-7.02,4.81c-1.44,0.62-3.04-0.24-4.46,0.49
	c-0.31,0.51-0.55,0.93-0.86,1.44c-0.14,5.3,1.17,4.81,2.31,4.81c10.3,0.01,20.61,0.01,30.91,0c1.12,0,2.42,0.53,2.22-4.99
	c-0.25-0.43-0.46-0.78-0.72-1.21c-1.63-0.84-3.48,0.1-5.14-0.56c-2.19-0.05-4.43,0.01-5.27-2.66c-0.38-1-0.35-2-0.01-3
	c0.68-5.48,3.36-10.22,5.62-15.12c0.24-0.12,0.46-0.27,0.76-0.25c10.25-0.03,20.5,0,30.76-0.01c0.75,0,1.48,0,1.85,0.82
	c1.76,4.61,3.73,9.15,5.23,13.83c1.68,5.25,0.16,6.12-3.25,6.42c-1.52,0.55-3.14-0.1-4.65,0.42c-1.02,1.91-0.16,3.97-0.5,5.93
	c0.87,0.79,1.92,0.38,2.88,0.38c20.87,0.03,41.74,0.02,62.61,0.02c4.94,0,4.9,0,4.51-4.99c-0.1-1.18-0.5-1.56-1.65-1.56
	c-1.45-0.01-2.93,0.25-4.36-0.2c-3.2-0.24-3.58-0.66-3.69-4.16c-0.51-8.66-0.08-17.33-0.22-25.99c-0.01-0.93,0.43-1.31,1.33-1.27
	c2.44,0.12,4.89-0.27,7.32,0.23c5.36,0.38,9.72,2.41,12.84,7c6.38,9.38,10.44,19.87,15.04,30.11c0.54,1.03,1.52,0.82,2.42,0.82
	c29.18,0.01,58.34,0.01,87.52,0c0.88,0,1.9,0.25,2.29-0.96c-0.03-3.81,0.59-7.56,1.24-11.3c0.43-0.91-0.1-1.96,0.41-2.86
	c-0.11-2.18,0.12-4.32,0.67-6.42C836.96,401.41,836.35,400.27,837.02,399.33z M642.85,386c-8.04-0.1-16.09-0.04-24.56-0.04
	c4.69-10.92,9.18-21.36,13.81-32.15c4.17,10.35,8.12,20.24,12.16,30.1C644.95,385.59,644.74,386.02,642.85,386z M722,378.07
	c-5.5,0.95-11.05,0.57-16.58,0.7c-1.61,0.04-1.43-0.93-1.43-1.94c0.01-4.73,0-9.45,0-14.18c0-4.72,0.01-9.45-0.01-14.17
	c0-1.03-0.12-1.97,1.46-1.94c5.71,0.11,11.46-0.34,17.12,0.77c9.66,1.9,13.71,6.53,13.61,15.35
	C736.07,371.25,731.27,376.47,722,378.07z"/>
<path class="st1" d="M396.45,410.06c0,4.98,1.29,6.62,5.4,6.88c1.75,0.83,3.77-0.48,5.48,0.72c0,1.86,0,3.73,0,5.59
	c-0.4,0.75-1.12,0.45-1.7,0.46c-9.59,0.02-19.18,0.02-28.77,0.01c-0.53,0-1.1,0.11-1.54-0.33c0-1.95,0-3.91,0-5.86
	c1.84-0.83,3.87,0.12,5.71-0.56c2.68-0.35,4.41-1.7,4.98-4.37c0.52-2.44,1.44-4.83,1.07-7.4c0.33-0.69,0.24-1.42,0.24-2.14
	c0-16.03,0-32.06,0-48.1c0-0.72,0.08-1.45-0.24-2.14c0.09-4.24-0.42-5.08-3.88-6.29c-1.28-0.61-2.7,0.06-4-0.42
	c-0.38,0-0.84,0.01-1.21,0.01c-0.9,0.42-1.93-0.13-2.8,0.41c-1.68-0.15-3.08,0.45-4.31,1.55c-0.31,0.85-0.86,1.44-1.74,1.7
	c-3.35,3.71-4.31,8.54-5.77,13.05c-6.3,19.48-12.43,39.01-18.55,58.55c-0.58,1.86-1.27,2.9-3.46,2.64
	c-1.97-0.24-3.98-0.12-5.98-0.03c-1.51,0.07-2.01-0.53-2.45-2.01c-3.6-11.85-7.36-23.66-11.05-35.48
	c-2.57-8.23-5.12-16.47-7.69-24.77c-1.4,0.31-1.17,1.56-1.43,2.34c-6.6,19.37-13.15,38.77-19.68,58.17
	c-0.42,1.24-0.99,1.93-2.46,1.77c-1.53-0.16-3.07-0.04-4.62-0.04c-4.96,0-5.22,0.06-6.32-4.66c-2.66-11.36-6.32-22.45-9.24-33.74
	c-2.83-10.95-6.12-21.79-9.41-32.63c-1.06-3.48-3.16-6.25-7.32-6.43c-0.96-0.43-2.03-0.03-3-0.39c-2.04-1.49-0.92-3.63-0.83-5.39
	c0.07-1.35,1.8-0.67,2.74-0.68c10.33-0.06,20.67,0.04,30.99-0.1c2.34-0.03,3.34,0.47,2.93,2.93c-0.16,0.97,0,1.99,0.01,2.99
	c-1.81,1.01-3.85-0.09-5.7,0.63c-1.74-0.01-3.53-0.14-4.09,2.13c-0.39,0.99-0.36,1.97-0.01,2.96c0.66,5.35,2.58,10.39,3.92,15.57
	c2.89,11.21,6.1,22.35,9.2,33.51c0.14,0.51,0.41,0.97,0.85,1.97c2.02-6.06,3.9-11.62,5.75-17.19c4.75-14.31,9.48-28.63,14.23-42.93
	c0.19-0.57,0.63-1.05,0.95-1.57c3.78,0.02,7.58-0.6,11.34,0.32c1.59,6.78,4,13.31,6.04,19.94c3.92,12.67,7.95,25.3,11.91,37.96
	c0.24,0.76,0.23,1.84,1.19,1.82c1.04-0.02,0.84-1.27,1.05-1.95c2.63-8.7,5.11-17.44,7.79-26.12c2.09-6.8,4.38-13.53,5.82-20.51
	c0.61-2.98-1.12-4.93-5.18-5.91c-1.83-0.73-3.88,0.44-5.66-0.67c0.38-1.86-0.81-4.49,0.52-5.42c1.36-0.95,3.81-0.38,5.79-0.39
	c15.85-0.02,31.7,0,47.55-0.03c1.43,0,2.41,0.29,3.39,1.53c7.17,9.12,14.42,18.17,21.7,27.2c7.11,8.84,14.25,17.67,21.44,26.45
	c1.65,2.01,2.97,4.28,5,5.97c1.05,0.15,0.92-0.63,0.92-1.23c-0.03-13.35,0.11-26.71-0.07-40.06c0-0.17-0.1-0.35-0.16-0.52
	c0.7-3.15-0.17-6.25-0.69-9.27c-0.43-2.5-2.98-3.06-5.2-3.55c-0.9-0.51-1.94,0.01-2.84-0.4c-0.82-0.45-2.3,0.51-2.54-0.81
	c-0.29-1.57-0.28-3.28,0.02-4.84c0.16-0.84,1.44-0.43,2.19-0.43c9.92-0.03,19.82-0.02,29.74-0.02c0.32,2,0.44,4-0.08,6
	c-0.71,0.04-1.43,0.07-2.13,0.11c-0.9,0.42-1.94-0.13-2.81,0.41c-4.09,0.29-5.85,2.68-5.94,8.06c-0.44,0.95-0.22,1.97-0.22,2.95
	c-0.01,21.2,0,42.4-0.04,63.59c0,0.93,0.46,1.99-0.42,2.82c-1.63-0.03-3.31-0.34-4.88-0.03c-4.32,0.86-6.76-1.46-9.12-4.59
	c-4.11-5.46-8.48-10.73-12.75-16.08c-6.21-7.79-12.43-15.59-18.65-23.37c-5.49-6.85-10.98-13.69-16.48-20.54
	c-0.78-0.97-1.53-1.96-2.28-2.95c-0.82,0.06-0.69,0.7-0.69,1.2c0.02,17.32-0.07,34.64,0.05,51.96
	C396.28,409.72,396.38,409.89,396.45,410.06z"/>
<path class="st1" d="M585.27,367.31c-1.13-6.11-2.96-11.83-7.88-16.16c-3.64-3.2-7.97-4.98-12.5-6.1
	c-5.09-1.26-10.22-0.75-15.2,1.04c-8,2.88-12.61,8.88-15.35,16.57c-1.29,3.62-2.4,7.33-2.27,11.26c-0.57,1.48,0.08,3.06-0.4,4.54
	c0,1.47,0.01,2.93,0.01,4.4c0.46,1.28-0.17,2.68,0.4,3.95c0.67,13.26,8.89,26.64,22.84,29.69c1.43,0.31,2.83,0.38,4.27,0.32
	c1.83,0.35,3.65,0.39,5.48,0.01c11.22-0.84,19.37-6.33,24.53-16.29c0.56-1.07,1.61-1.92,1.61-3.27c0-0.9,0.61-0.72,1.12-0.59
	c0.43,0.11,0.83,0.33,1.24,0.5c5.74,2.33,5.79,2.36,2.71,7.94c-4.68,8.48-11.49,14.32-20.84,17.28c-2.97,0.94-5.99,1.43-8.98,2.12
	c-0.96,0.4-2.03-0.04-2.98,0.4c-3.53,0.01-7.13,0.4-10.6-0.04c-8.01-1.01-15.52-3.49-22.09-8.46c-4.95-3.73-8.78-8.38-11.55-13.85
	c-2.08-4.11-3.27-6.94-3.74-11.56c-0.6-0.98-0.4-3.42-0.44-5.16c0-2.32,0.01-4.35,0.01-6.66c0.53-1.12-0.05-2.35,0.42-3.47
	c0.85-9.12,4.47-17.14,10.34-24c6.14-7.19,14.38-10.86,23.52-12.64c1.14-0.22,2.3-0.44,3.44-0.67c0.92-0.4,1.97,0.1,2.88-0.4
	c8.95-0.41,17.53,1.7,26.06,4c3.58,0.96,6.73-0.24,9.89-1.33c2.06-0.71,2.19-0.06,2.18,1.69c-0.05,8.55,0,17.11,0.02,25.67
	c-2.32,0.64-4.68,0.19-7,0.27C585.81,368.31,585.41,367.92,585.27,367.31z"/>
<path class="st2" d="M261.86,482.25c-3.24-3.56-5.59-7.75-8.35-11.65c-7.75-10.93-15.29-22-22.92-33c-0.07-0.1-0.29-0.1-0.57-0.19
	c-0.06,0.34-0.16,0.66-0.16,0.99c0.01,11.2-0.03,22.39,0.09,33.59c0.06,5.31,0.73,5.82,6.06,5.83c0.53,1.44,0.71,2.88-0.08,4.29
	c-5.91,0-11.82,0.01-17.74,0.01c-0.79-1.41-0.56-2.87-0.12-4.32c4.25,0.07,5.25-0.72,6.02-4.8c0.18-0.32,0.24-0.67,0.24-1.04
	c0-12.89,0-25.78,0-38.67c0-0.37-0.06-0.72-0.22-1.05c-1.33-1.95-3.34-2.1-5.43-2.06c-0.72-0.88-0.27-1.91-0.35-2.87
	c-0.07-0.76,0.31-1.18,1.12-1.18c4.7,0.02,9.42-0.08,14.12,0.07c0.1,0,0.19,0.29,0.29,0.44c5.24,8.37,11.22,16.24,16.78,24.39
	c3.5,5.11,7.1,10.16,10.62,15.25c0.21,0.31,0.33,0.63,1.07,0.42c0-10.28,0-20.66,0-31.02c-0.44-0.88,0.14-1.93-0.43-2.8
	c-1.26-2.47-3.68-2.41-5.94-2.71c-0.93-3.82-0.77-4.05,2.94-4.05c4.17,0,8.35,0,12.52,0c3.71,0,3.89,0.25,2.93,4.05
	c-5.2,0.13-6.43,1.25-6.45,6.29c-0.05,15.19-0.03,30.39-0.04,45.58C265.87,482.81,263.86,482.39,261.86,482.25z"/>
<path class="st1" d="M580.4,429.79c-3.26-0.15-5.99,1.17-8.32,3.28c-4.91,4.45-9.35,9.37-13.83,14.24c-0.83,0.9-0.84,1.5-0.1,2.54
	c5.38,7.63,10.64,15.35,16.02,22.97c1.74,2.46,3.93,4.57,7.12,4.87c2,0.19,1.27,1.51,1.38,2.51c0.17,1.46-0.89,1.27-1.79,1.27
	c-3.54,0-7.09-0.04-10.63,0.02c-1.2,0.02-1.83-0.35-2.52-1.44c-5.02-7.85-10.2-15.6-15.28-23.41c-0.97-1.48-1.78-1.7-3.14-0.4
	c-1.76,1.69-2.93,3.35-2.7,6.06c0.32,3.79,0.14,7.63,0.06,11.44c-0.05,2.44,0.77,3.87,3.44,3.55c1.76-0.21,2.38,0.46,2.39,2.28
	c0,1.94-1.04,1.93-2.43,1.92c-5.27-0.04-10.54-0.05-15.81,0.01c-1.38,0.02-2.26-0.1-2.09-1.84c0.12-1.27-0.21-2.6,1.85-2.37
	c1.38,0.15,2.64-0.27,3.43-1.57c0.37-0.58,0.24-1.23,0.24-1.86c0.01-13.54,0.01-27.07,0-40.61c0-0.62,0.13-1.28-0.25-1.86
	c-0.36-0.61-0.66-1.17-1.57-1.14c-2.69,0.11-4.14-1.11-3.87-3.95c0.19-0.75,0.82-0.56,1.32-0.56c6.02-0.02,12.03-0.02,18.05,0
	c0.49,0,1.12-0.18,1.31,0.57c-0.1,2.21-0.41,3.99-3.46,3.65c-1.46-0.17-2.55,0.86-2.54,2.7c0.06,6.23,0.02,12.47,0.02,19.24
	c2.93-3.13,5.85-5.55,8.26-8.56c2.81-3.52,6.46-6.29,9.22-9.89c1.33-1.73,1.83-2.99-0.97-3.24c-2.94-0.27-2.1-2.46-2.31-4.15
	c3.31-0.73,6.66-0.18,9.99-0.31c2.18-0.08,4.36-0.02,6.54-0.02C581.17,425.74,581.3,425.93,580.4,429.79z"/>
<path class="st3" d="M653.05,482.1c-2.12-4.31-3.33-8.95-4.94-13.44c-2.24-6.26-4.43-12.53-6.75-18.76
	c-1.92-5.17-3.26-10.55-5.76-15.5c-0.95-1.88-1.93-3.64-4.59-3.8c-2.4-0.15-1.6-2.48-1.91-3.99c0.29-0.69,0.91-0.48,1.41-0.48
	c6.35-0.01,12.7-0.01,19.05-0.01c0.45,0,0.91-0.01,1.3,0.27c0.28,2.37,0.09,4.03-3.13,4.09c-2.5,0.05-2.99,1.38-2.04,4.17
	c2.86,8.42,5.81,16.82,8.71,25.23c1.12,3.23,2.21,6.47,3.58,10.49c1.9-5.52,3.43-10.31,5.19-15.02c2.47-6.62,4.93-13.24,6.93-20.02
	c1-3.38,0.63-3.96-2.91-4.67c-0.84-0.17-1.65-0.6-2.56-0.51c-0.96-3.78-0.77-4.04,2.92-4.04c4.61,0,9.22,0,13.83,0
	c3.35,0,3.62,0.42,2.59,4.02c-3.7-0.33-5.98,1.75-7.42,4.76c-3.51,7.32-5.78,15.13-8.65,22.7c-3.06,8.08-5.92,16.24-8.86,24.37
	C657.05,482.53,655.05,482.32,653.05,482.1z"/>
<path class="st3" d="M408.39,481.58c-6.07-0.03-12.15-0.09-18.22-0.08c-1.32,0-2.25,0.01-2.14-1.79c0.09-1.5,0.02-2.65,2.1-2.43
	c1.46,0.15,2.91-0.13,3.22-2.01c0.23-0.42,0.23-0.87,0.23-1.32c0-13.36,0-26.72,0-40.08c0-0.55-0.01-1.09-0.24-1.6
	c0.2-1.56-0.6-1.99-2.02-2.01c-2.53-0.03-3.71-1.37-3.44-3.91c0.68-1.17,1.8-0.54,2.68-0.54c11.04-0.05,22.08-0.03,33.12-0.03
	c3.97,0,3.97,0,4.48,3.74c0.05,1.21,0.1,2.42,0.15,3.63c0.48,1.48-0.17,3.06,0.4,4.53c0.69,3.21-1.11,3.9-3.77,3.73
	c-0.37,0.25-0.72,0.2-1.03-0.11c-0.68-6.06-1.91-8.97-6.5-10.31c-4.48-1.3-9.26-0.72-13.92-0.72c-1.18,0-0.96,0.84-0.96,1.52
	c-0.01,5.81,0.03,11.63-0.03,17.44c-0.01,1.28,0.52,1.49,1.61,1.46c2.63-0.07,5.27-0.01,7.9-0.07c3.79-0.08,4.92-1.1,5.88-4.99
	c0.16-0.67,0.75-1.23,0.54-2c0.96-0.79,2.09-0.26,3.14-0.39c1.02-0.12,1.48,0.36,1.45,1.41c-0.17,5.97,0.33,11.96-0.27,17.92l0,0
	c-1.45,0.34-2.9,0.64-4.31-0.17c0.23-0.76-0.57-1.17-0.59-1.96c-0.09-3.29-1.69-4.73-5.17-5c-3.32-0.34-6.64-0.47-9.96,0.05
	c-0.43,6.39-0.15,12.79-0.13,19.19c0.01,1.82,0.95,2.81,2.91,2.65c0.98-0.08,1.98,0,2.98,0
	C408.99,478.74,409.18,480.17,408.39,481.58z"/>
<path class="st4" d="M593.06,469.75c4.98,0.35,7.19,3.68,6.85,8.52c-0.42,6.04-3.65,10.49-9.24,13.21
	c-2.63,1.28-2.76-1.33-3.73-2.26c-1.36-1.29,0.7-1.3,1.24-1.82c1.21-1.16,2.68-2.07,3.78-3.31c1.12-1.27,1-2.42-0.94-3.06
	c-3.34-1.09-4.56-3.38-3.9-6.96C587.56,471.72,590.26,469.76,593.06,469.75z"/>
<path class="st5" d="M322.48,341.09c-3.77-0.74-7.58-0.15-11.37-0.32C314.92,340.32,318.73,339.69,322.48,341.09z"/>
<path class="st5" d="M384.53,481.58c0.32-1.74,1.22-3.71-1.62-4.26C385.56,477.48,386.05,478.79,384.53,481.58z"/>
<path class="st3" d="M382.91,477.33c-1.64,0.12-2.65-0.77-3.47-2.09c-1.18-1.9-2.02-3.95-3-5.94c-2.67-5.41-4.3-11.56-10.15-14.62
	c1.4-1.04,2.95-1.42,4.41-2.03c9.07-3.82,9.93-18.34,2.27-23.34c-3.24-2.12-6.94-2.7-10.62-3.4c-8.75-0.35-17.5-0.12-26.25-0.11
	c-0.15,0-0.29,0.19-0.44,0.3c-0.58,2.74,0.78,4.11,3.34,4.2c1.49,0.06,1.93,0.75,2.13,1.96c0.14,0.34,0.22,0.69,0.22,1.06
	c0.01,13.48,0.01,26.97,0,40.45c0,0.36-0.08,0.71-0.22,1.05c-0.32,1.89-1.52,2.69-3.34,2.47c-2.02-0.25-2,0.9-2.13,2.42
	c-0.18,2.14,1.13,1.76,2.34,1.77c5.87,0.03,11.75,0.07,17.62,0.1c0.79-1.41,0.61-2.84,0.08-4.28c-0.9,0-1.81-0.04-2.71-0.01
	c-1.78,0.05-2.67-0.76-2.66-2.57c0.04-6.06,0.06-12.11,0.09-18.17c2-0.46,4-0.42,6.01-0.03c3.06,0.53,4.99,2.41,6.47,5.06
	c3.17,5.68,5.4,11.76,7.6,17.83c0.63,1.74,1.32,2.12,2.92,2.1c3.71-0.04,7.41,0.05,11.11,0.08
	C385.49,478.39,385.33,477.97,382.91,477.33z M362.58,450.6c-3.6,1.27-7.34,0.98-11.06,1.05c-1.28,0.03-1.19-0.74-1.19-1.58
	c0-3.09,0-6.18,0-9.27c0-2.91,0.06-5.82-0.02-8.73c-0.04-1.34,0.24-1.96,1.77-1.88c3.35,0.18,6.73-0.22,10.02,0.73
	c4.42,1.28,6.7,4.39,6.8,9.34C369.01,445.51,366.8,449.11,362.58,450.6z"/>
<path class="st1" d="M330.18,448.6c-0.92-6.98-3.56-12.92-8.64-17.77c-3.71-3.54-8.36-5.06-13.26-5.99
	c-2.35-0.3-4.71-0.28-7.07-0.02c-6.88,0.96-12.93,3.37-17.1,9.33c-3.12,4.46-5.11,9.29-5.38,14.77c-0.44,1.51,0.16,3.11-0.4,4.62
	v0.02c0.55,1.51-0.05,3.11,0.4,4.62c0.08,0.45,0.15,0.89,0.22,1.34c1.13,7.09,3.93,13.23,9.61,17.93c3.56,2.95,7.66,4.23,12.1,4.81
	c2.54,0.32,5.08,0.29,7.62,0.02c8.69-1.3,15.16-5.82,19-13.71C330.34,462.28,331.11,455.61,330.18,448.6z M317.55,469.99
	c-2.71,5.33-7.03,8.27-13.05,8.21c-6.03-0.06-10.45-3.02-12.85-8.49c-4.64-10.58-4.7-21.32-0.16-31.95
	c2.43-5.7,6.91-8.82,13.18-8.82c6.15,0,10.42,3.09,13.07,8.59c2.46,5.1,3.3,10.5,3.22,16.11
	C321.05,459.34,320.15,464.85,317.55,469.99z"/>
<path class="st1" d="M483,449.05c-0.84-6.78-3.18-12.61-7.92-17.51c-3.86-3.99-8.75-5.72-14.02-6.72c-2.35-0.29-4.71-0.27-7.07-0.01
	c-6.87,0.95-12.95,3.38-17.07,9.35c-3.06,4.44-5.16,9.26-5.39,14.75c-0.28,3.09-0.29,6.17,0,9.26c0.04,0.89-0.09,1.83,0.14,2.67
	c2.93,10.57,8.2,19.86,21.77,21.41c2.54,0.33,5.08,0.28,7.62,0.03c8.79-1.27,15.23-5.86,19.05-13.86
	C483.03,462.3,483.84,455.87,483,449.05z M470.27,470c-2.71,5.33-7.04,8.26-13.06,8.19c-5.9-0.07-10.28-2.9-12.7-8.27
	c-4.86-10.75-4.84-21.65-0.17-32.43c2.41-5.57,6.93-8.57,13.08-8.56c6.03,0.01,10.29,2.99,12.94,8.36
	c2.55,5.16,3.42,10.66,3.32,16.36C473.77,459.35,472.88,464.86,470.27,470z"/>
<path class="st6" d="M764.02,161.47c-1.77-2.59-2.83-5.5-4.03-8.36c-0.26-0.82-0.62-1.62-0.9-2.44l0,0
	c-1.09-3.26-2.13-6.51-1.8-10.03c0.09-0.91,0.2-1.79,0.75-2.55c2.26-2.76,3.99-3,6.87-0.97c0.36,0.25,0.66,0.62,1.1,0.74
	c2.04,1.04,2.97,3.12,4.3,4.79c0.86,1.09,1.56,2.32,2.03,3.66c3.06,7.65,5.06,15.56,5.37,23.8c0.2,5.24-0.07,10.5-0.86,15.73
	c-0.4,2.68-0.86,5.34-1.52,7.97c-1.38,5.41-3.01,10.71-7.61,14.43c-0.13,0.14-0.29,0.25-0.45,0.34c-0.3,0.16-0.6,0.31-0.92,0.43
	c-1.87,0.66-2.28,0.36-2.45-1.61c-0.27-3.07-0.6-6.13-1.16-9.16c-0.17-0.92-0.19-1.79,0.55-2.51c4.13-4.05,6.1-9.13,6.97-14.72
	c0.62-3.97,0.72-7.96,0.16-11.96c-0.12-0.88-0.46-1.53-1.13-1.97C767.09,165.64,765.48,163.63,764.02,161.47z"/>
<path class="st6" d="M667.96,141.19c-3.05,1.84-6.11,1.15-8.7-0.66c-7.51-5.25-11.27-12.72-11.35-21.79
	c-0.05-5.88,4.67-8.8,10.2-6.61c7.5,2.97,11.25,9.06,13.07,16.59c0.45,2.91,0.62,5.79-0.45,8.66
	C670.15,138.94,669.37,140.26,667.96,141.19z"/>
<path class="st2" d="M733.07,482.16c-0.18-0.98,0.73-2.67-1.38-2.5c-3.42,0.28-4.75-1.98-5.68-4.62
	c-3.69-10.41-7.32-20.83-10.96-31.26c-1.85-5.29-4.02-10.48-5.43-15.92c-1.05-0.6-2.15-0.37-3.24-0.16
	c-3.23-0.23-4.34,1.81-4.86,4.51c-0.1,0.52-0.27,1.04-0.48,1.54c-4.19,9.99-7.68,20.25-11.62,30.34c-1.57,4.01-2.6,8.28-5.06,11.9
	c-1.47,2.17-3.24,4.08-6.3,3.62c-0.45,1.45-0.67,2.89,0.12,4.31c6.24,0,12.49-0.01,18.73-0.01c0.79-1.41,0.63-2.84,0.07-4.27
	c-0.63-0.01-1.27,0.01-1.9-0.02c-3.42-0.15-4.73-1.58-3.92-4.84c0.7-2.83,1.88-5.54,2.81-8.32c0.37-1.1,1.16-1.18,2.13-1.17
	c5.27,0.03,10.53,0.03,15.79,0c1.01-0.01,1.45,0.15,1.75,1.36c0.61,2.47,1.7,4.82,2.53,7.25c1.57,4.58,0.74,5.69-4.21,5.75
	c-0.64,1.42-0.76,2.83,0.05,4.24c6.45-0.03,12.9-0.09,19.35-0.07C732.62,483.83,733.31,483.52,733.07,482.16z M709.26,457.51
	c-3.81-0.11-7.63-0.05-11.44-0.02c-1.11,0.01-1.75-0.08-1.22-1.49c2.45-6.42,4.81-12.85,7.46-19.97c2.41,6.89,4.54,13.14,6.78,19.35
	C711.48,457.14,711.05,457.56,709.26,457.51z"/>
<path class="st6" d="M423.94,195.12c-0.72-3.42-1.35-6.87-2.22-10.26c-0.3-1.17,0.19-2.31-0.24-3.42c-0.4-0.92,0.2-1.93-0.3-2.84
	c-0.01-0.33-0.02-0.66-0.03-0.99c-0.37-0.7-0.56-1.4-0.13-2.14c0.37-5.8,1.95-11.24,5.26-16.07c4.03-5.89,9.42-9.78,16.39-11.77
	c7.3-2.08,14.51-1.75,21.5,0.46c9.57,3.01,16.58,9.2,18.56,19.42c1.97,10.18-1.26,19.37-13.3,23.04c-4.18,1.28-8.25,0.69-12.38,0.59
	c-1.88-0.05-2.08-1.24-1.38-2.63c1.22-2.44,2.37-4.9,3.41-7.42c1.62-3.9,2.37-7.96,2.21-12.2c-0.27-7.14-5.68-11.04-13.1-8.26
	c-3.78,2.1-4.69,5.84-5.13,9.61c-0.81,6.84,1.22,13.3,3.41,19.65c2.75,7.97,5.38,15.99,6.19,24.39c1.19,12.33-1.44,23.79-9.18,33.77
	c-0.13,0.26-0.53,0.46-0.41,0.75c0.05,0.14,0.39-0.16,0.59-0.28c1.09-0.66,2.1-1.46,3.11-2.23c9.26-6.1,18.11-12.72,26.16-20.37
	c6.4-6.09,12.16-12.6,16.54-20.41c6.48-11.55,13.8-22.61,20.21-34.21c0.71-1.27,1.27-2.62,1.97-3.89c0.77-1.38,0.26-2.02-1.22-2.12
	c-2.09-0.13-4.18-0.11-6.26-0.3c-3.12-0.28-3.78-1.3-2.75-4.31c0.76-2.24,1.69-4.41,2.52-6.62c0.77-2.06,2.13-2.96,4.37-2.9
	c2.7,0.08,5.35,0.64,8.06,0.68c2.17,0.02,3.48-0.53,4.44-2.63c3.81-8.24,7.64-16.46,10.78-24.99c1.23-3.32,1.48-3.43,4.97-3.29
	c5.99,0.25,11.98,0.54,17.97,0.76c2.5,0.09,2.99,0.69,2.07,3.26c-2.04,5.73-4.19,11.42-6.57,17.02c-1.24,2.92-2.54,5.82-3.92,8.69
	c-0.78,1.61-0.86,2.47,1.43,2.83c6.84,1.1,13.7,1.37,20.6,1.39c1.73,0.01,3.43,0.31,5.16,0.42c1.7,0.1,2.35,1.3,1.97,2.9
	c-0.75,3.09-1.88,6.06-3,9.04c-0.39,1.02-1.22,1.57-2.36,1.51c-4.34-0.24-8.7-0.12-13.04-0.59c-5.61-1.2-11.32-0.83-17-1.08
	c-1.37-0.06-2.24,0.58-2.74,1.78c-1.13,2.66-2.77,5.08-3.81,7.79c-5.77,11.34-12.5,22.11-19.32,32.83
	c-7.2,11.33-15.01,22.28-21.32,34.16c-1.67,3.14-2.86,6.45-3.71,9.91c-0.55,2.24,0.3,3.5,2.39,4.1c3.65,1.05,7.18,0.57,10.67-0.75
	c5.39-2.04,10.2-5.12,14.99-8.25c9.85-6.44,18.41-14.44,26.89-22.49c9.57-9.08,17.94-19.11,24.27-30.88
	c3.77-7.02,7.48-14.11,11.59-20.96c3.62-6.21,6.31-12.85,9.1-19.44c5.87-14.09,10.31-28.6,12.88-43.64
	c1.02-5.95,2.04-11.99,1.92-18.03c-0.12-5.75,0.37-11.59-1.16-17.25c-0.83-3.33-1.37-6.73-2.15-10.06
	c-0.34-1.44,0.04-2.47,1.73-2.74c3.02-0.47,6.08-0.79,9.08-1.37c2.83-0.55,5.66-1.07,8.47-1.67c2.42-0.51,3.55,0.46,4.28,2.51
	c0.5,1.38,0.32,2.88,0.83,4.24c3.02,12.61,2.87,25.4,1.74,38.17c-0.84,9.29-2.77,18.44-5.22,27.46
	c-4.74,17.41-11.58,33.98-19.94,49.94c-0.25,0.48-0.49,0.97-0.63,1.5c-0.44,1.49-1.16,2.85-1.91,4.2
	c-7.59,13.63-15.97,26.77-24.84,39.6c-5.57,8.05-11.37,15.97-16.48,24.32c-1.79,2.92-3.62,5.87-4.66,9.2
	c-0.91,2.9-0.06,3.99,2.94,3.4c3.23-0.63,6.29-1.94,9.09-3.61c11.57-6.92,21.94-15.39,31.4-24.99c6.69-6.79,12.92-13.98,18.74-21.53
	c4.05-5.27,7.28-11.05,10.58-16.77c6.49-11.23,12.13-22.86,16.59-35.06c0.77-2.12,2.02-2.88,4.34-2.65
	c5.95,0.59,11.88,1.3,17.88,1.41c2.72,0.05,3.24,0.81,2.35,3.42c-2.1,6.19-4.88,12.12-7.72,17.99
	c-6.55,13.58-14.1,26.59-22.48,39.12c-7.92,11.85-16.67,23.08-25.18,34.51c-3.03,4.07-6.05,8.16-8.51,12.62
	c-0.77,1.41-2.02,3.14-0.97,4.52c1.11,1.44,3.14,0.96,4.83,0.39c6-2,11.23-5.45,16.41-8.96c12.75-8.67,24.01-19.07,33.98-30.77
	c5.58-6.55,9.58-14.28,13.85-21.77c4.18-7.33,7.55-15.06,11.37-22.59c2.74-5.13,4.95-10.5,6.37-16.1c1.54-6.08,3.69-10.72,11.2-9.23
	c4.1-0.78,8.24,0.12,12.36-0.45c2.21-0.3,3,0.62,2.51,2.89c-0.63,2.9-1.77,5.65-2.85,8.4c-0.2,0.53-0.49,1.03-0.8,1.51
	c-0.2,0.32-0.45,0.63-0.68,0.93c-0.16,0.34-0.67,0.62-0.38,1.05c0.09,0.14,0.42-0.17,0.59-0.35c0.29-0.37,0.49-0.78,0.7-1.19
	c0.21-0.46,0.42-0.93,0.71-1.36c2.43-2.54,4.61-5.34,7.28-7.64c3.84-3.3,8.11-5.59,13.35-5.74c2.47-0.07,4.46,1.28,6.71,1.8
	c5.01,2.63,7.45,7.3,9.42,12.23c3.13,7.82,3.77,16.06,2.65,24.3c-1.21,8.94-4.64,17.22-8.64,25.28
	c-7.61,15.28-17.79,28.81-28.61,41.92c-7.55,9.15-15.52,17.94-22.73,27.37c-1.27,1.67-2.3,3.5-3.01,5.47c-0.8,2.23,0,3.09,2.3,3.41
	c7.08,0.97,12.61-2.67,18.13-6.1c9.22-5.73,17.01-13.25,24.84-20.67c6.52-6.18,12.3-13.06,17.82-20.16
	c9.55-12.3,17.91-25.3,24.51-39.42c1.8-3.85,3.43-7.77,4.9-11.76c0.37-1.01,0.69-2.23,2.02-2.26c1.23-0.03,1.44,1.22,1.94,2.04
	c0.34,0.54,0.54,1.17,0.98,1.62c4.38,4.46,2.92,8.96,0.62,13.88c-6.1,13.04-13.28,25.42-21.58,37.15
	c-5.98,8.46-12.75,16.27-19.88,23.8c-6.69,7.06-13.82,13.71-21.28,19.9c-10.13,8.41-20.92,16-33.77,19.86
	c-2.77,0.83-5.66,1.37-8.77,0.53c-5.5-1.5-8.29-4.48-8.7-12.16c-0.52-9.84,3.05-18.68,7.03-27.39c5.32-11.63,13-21.74,20.54-31.95
	c10.79-14.6,21.53-29.27,29.57-45.66c3.01-6.14,5.32-12.51,5.89-19.41c0.37-4.54-1.6-6.01-5.91-4.31c-3.77,1.49-6.42,4.35-9.09,7.21
	c-6.91,7.38-12.71,15.61-18.66,23.73c-12.67,17.28-25.94,34.07-39.69,50.52c-9.2,10.99-18.91,21.56-27.86,32.76
	c-1.59,1.99-3.21,2.54-5.66,1.52c-4.34-1.81-8.93-2.9-13.31-4.61c-0.83-0.59-2-0.89-1.94-2.25c0.03-0.25,0.1-0.5,0.21-0.72
	c0.69-0.96,1.74-1.67,2.15-2.86c1.19-1.72,2.53-3.32,4.1-4.72c0.53-0.54,1.15-0.99,1.56-1.71c-0.73,0.22-1.2,0.75-1.78,1.12
	c-7.23,4.27-14.68,8.04-23.24,8.52c-3.9,0.22-7.15-1.6-9.57-4.74c-3.35-6.1-2.07-12.42-0.86-18.73c0.35-1.86,1.12-3.61,1.69-5.4
	c0.06-0.27,0.15-0.52,0.26-0.77c0.3-0.7,0.82-1.32,0.98-2.24c-1.17,0.53-1.77,1.42-2.56,2.11c-7.53,6.1-15.48,11.59-24.16,15.93
	c-3.82,1.91-7.93,3.17-12.16,3.51c-3.72,0.3-11.43-1.48-12.91-5.75c-2.86-6.02-2.26-12.16-0.71-18.36
	c0.83-3.31,1.87-6.54,3.27-10.23c-2.36,1.52-3.79,3.32-5.59,4.64c-4.96,4.24-10.26,8-15.68,11.63c-5.37,3.59-10.92,6.81-16.93,9.15
	c-5.82,2.28-11.93,3.35-18.06,1.57c-6.82-1.98-11.59-9.1-12.09-17.47c-0.24-3.98,0.07-7.96,0.6-12.28c-2.2,1.33-4,2.81-5.75,4.23
	c-8.72,7.16-18.38,12.82-28.26,18.15c-7.88,4.25-16.31,7-25.01,8.72c-7.05,1.39-14.18,2.21-21.37-0.1
	c-6.73-2.17-11.07-6.58-13.86-12.84c-0.56-1.91-0.2-4.21-2.33-5.44c-5.15,4.73-10.03,9.72-15.24,14.38
	c-6.58,5.89-13.52,11.42-21.87,14.36c-9.28,3.26-17.88,1.38-21.17-10.21c-1.48-5.22-0.68-10.45-0.5-16
	c-4.69,5.8-9.32,11.39-14.13,16.82c-5.3,5.96-10.96,11.57-16.89,16.91c-0.9,0.81-1.96,1.3-3.02,1.81
	c-4.13,2.42-7.87,5.52-12.43,7.23c-3.25,1.22-6.5,2.31-10.02,2.23c-4.07-0.09-7.04-1.93-9.1-5.44c-2.58-4.4-3.05-9.23-3.26-14.16
	c-0.04-0.89,0.22-1.8-0.08-2.71c-0.76-0.29-0.92,0.42-1.18,0.78c-6.75,9.33-13.74,18.49-21.18,27.29c-0.35,0.42-0.68,0.85-0.8,1.41
	c-1.69,3.28-4.51,5.66-7.01,8.19c-5.74,5.79-11.95,11.09-19.68,14.19c-1.85,0.74-3.72,1.42-5.66,1.89
	c-9.59,1.53-15.12-4.85-18.07-13.38c-2.2-6.33-2.84-12.94-2.94-19.55c-0.1-7.17,0.19-14.37,0.94-21.5c0.84-8,2-15.98,3.62-23.87
	c2.32-11.29,5.05-22.46,8.64-33.42c1.67-4.48,3.26-9,4.41-13.65c3.27-10.61,7.72-20.74,12.29-30.84c1.87-4.14,3.81-8.24,5.9-12.27
	c0.77-1.49,0.64-2.44-1.39-2.24c-9.48,0.93-18.99,1.45-28.46,2.47c-0.54,0.06-1.08,0.15-1.57,0.41c-1.03,0.41-1.46,1.34-1.88,2.23
	c-3.56,7.64-7.47,15.12-10.87,22.84c-0.4,0.91-0.86,1.8-0.96,2.81c-3.65,8.8-7.79,17.39-11.54,26.13
	c-5.84,13.59-11.86,27.09-17.89,40.59c-0.44,1-0.94,1.96-1.57,2.85c-1.39,2.57-2.77,5.15-3.51,8.01
	c-4.42,10.55-9.26,20.91-14.03,31.3c-5.55,12.12-11.27,24.17-17.17,36.14c-5.17,10.48-10.39,20.94-15.81,31.3
	c-3.95,7.56-8.01,15.04-12.4,22.36c-4.93,8.24-10.41,16.1-16.31,23.69c-4.23,5.44-8.77,10.55-13.93,15.14c-2.4,2.13-4.93,4-7.7,5.57
	c-3.05,1.11-5.91,2.75-9.27,2.97c-5.43,0.36-9.44-1.97-12.56-6.18c-0.7-0.94-1.4-1.89-2.04-2.89c-3.98-7.06-5.14-14.84-5.71-22.74
	c-0.62-8.33-0.39-16.64,0.46-24.96c1.02-9.92,3.59-19.42,7.23-28.67c2.35-6.21,5.53-11.89,11.21-15.66
	c4.59-3.04,8.71-1.81,11.36,3.07c2.67,4.91,3.56,10.24,3.81,15.74c0.31,7.08,0.24,14.15-0.94,21.16c-0.95,5.6-1.85,11.22-3.9,16.57
	c-0.35,0.93-0.75,1.85-0.89,2.85c-0.24,1.82,0.42,2.5,2.28,2.24c4.36-0.61,7.68-3.14,10.71-6.07c6.01-5.81,10.3-12.87,14.21-20.16
	c7.54-14.06,14.06-28.61,20.15-43.36c1.01-1.96,1.96-3.94,2.47-6.11c2.81-6.47,5.23-13.1,7.86-19.65
	c3.68-9.15,6.89-18.47,10.46-27.66c7.37-18.99,14.52-38.05,22.39-56.84c0.74-1.75,1.36-3.55,2.23-5.25
	c1.61-3.31,3.16-6.66,4.24-10.2c2.21-5.84,4.75-11.53,7.29-17.23c3.73-8.35,7.16-16.83,11.47-24.91c1.81-3.01,3.24-6.23,4.76-9.39
	c0.09-0.25,0.21-0.48,0.33-0.72c2.71-5.23,5.72-10.29,8.04-15.71c3.83-7.18,7.59-14.4,11.94-21.28c1.51-1.8,2.46-3.92,3.58-5.95
	c9.3-16.25,19.66-31.76,31.73-46.1c1.69-2.01,3.53-3.89,5.11-6c12.46-14.13,26.91-25.61,44.6-33.35c-6.02-1.66-11.9-2.14-17.67-3.07
	c-7.63-1.23-15.38-1.51-23.08-1.56c-24.37-0.15-47.74,4.17-69.21,16.32c-12.99,7.34-23.85,17.15-32.88,29
	c-0.93,1.23-1.74,2.56-2.87,3.63c-1.8,1.41-2.52,3.59-3.81,5.37c-2.93,5.47-5.98,10.87-7.48,16.97c-0.07,0.57-0.19,1.12-0.39,1.66
	c-2.27,5.56-3.5,11.41-4.68,17.26c-1.35,6.72-1.47,13.49-0.41,20.24c0.72,4.62,2.28,8.89,5.73,12.35c2.86,2.88,6.15,4.01,10.09,3.47
	c2.51-0.34,5.02-0.68,7.38-1.71c12.01-4.58,21.08-12.95,29.18-22.58c3.88-4.6,6.87-9.8,9.9-14.98c4.59-8.13,6.84-16.95,7.69-26.17
	c0.55-5.9,0.12-11.78-0.63-17.63c-0.37-2.87,0.34-3.64,3.16-3.74c2.45-0.08,4.87-0.48,7.33-0.24c1.99,0.2,3.08,1,3.43,3.1
	c1.23,7.5,1.28,14.97-0.03,22.45c-1.8,10.32-4.49,20.37-9.04,29.85c-1.73,3.61-3.89,6.99-5.71,10.54
	c-6.72,11.43-15.41,21.18-25.46,29.78c-6.02,5.15-12.55,9.46-19.77,12.76c-1.41,0.64-2.91,0.96-4.33,1.56
	c-6.56,2.29-13.32,2.91-20.12,1.89c-9.59-1.43-15.99-7.26-20.29-15.66c-4.38-8.56-6.2-17.73-6.77-27.27
	c-0.54-9.14,0.37-18.09,2.5-26.97c2.17-8.08,4.01-16.27,7.08-24.09c1.58-3.04,2.53-6.37,4.17-9.39
	c5.46-11.7,12.81-22.09,21.71-31.41c0.51-0.54,0.88-1.14,1.22-1.79c8.33-8.77,18.07-15.65,28.79-21.17
	c14.51-7.47,30.07-11.38,46.18-13.24c12.55-1.45,25.18-1.24,37.71,0.01c18.13,1.81,35.86,5.88,53.37,10.87
	c6.7,1.91,13.28,4.26,20.03,6.02c2.17,0.57,4.27,0.66,6.44,0.43c3.36-0.35,6.72-0.31,9.98,0.66c6.39,1.9,8.63,8.73,5.42,14.53
	c-1.45,2.61-3.93,3.19-6.8,2.9c-3.63-0.37-7.11-1.4-10.62-2.23c-5.23-1.22-10.28-0.61-15.23,1.06c-8.56,2.89-15.88,7.95-22.59,13.86
	c-15.65,13.78-28.17,30.21-39.65,47.49c-6.78,10.2-13.11,20.68-18.98,31.44c-2.6,4.77-5.1,9.61-7.8,14.33
	c-1.22,2.15-0.95,2.63,1.51,2.65c6.6,0.05,13.2-0.29,19.79-0.67c2.53-0.14,5.05,0.06,7.6-0.23c1.47-0.17,2.24-0.62,2.95-1.84
	c8.21-14.03,16.99-27.68,26.77-40.66c6.97-9.26,14.21-18.31,22.31-26.63c4.42-4.55,8.71-9.26,13.55-13.36
	c10.19-8.65,20.84-16.62,33.32-21.78c5.29-2.19,10.75-4.1,16.41-4.72c10.3-1.13,20.57-1.03,29.24,5.94
	c5.17,4.17,8.54,9.49,9.26,16.34c0.77,7.4-5.66,13.25-12.88,10.42c-2.94-1.16-5.05-3.06-6.87-5.49c-1.85-2.48-3.26-5.25-4.77-7.94
	c-3.36-6.02-5.09-5.73-11.7-5.12c-4.83,0.45-8.98,2.84-13,5.34c-9.08,5.65-17.02,12.66-24.32,20.45
	c-9.51,10.16-18.03,21.11-25.9,32.58c-0.57,0.83-1.16,1.62-1.88,2.33c-2.58,2.57-4.26,5.78-6.09,8.87
	c-0.13,0.24-0.29,0.47-0.47,0.68c-11.61,18.37-21.62,37.57-30.29,57.49c-6.89,15.82-12.73,32.01-17.81,48.5
	c-4.12,13.36-7.39,26.93-9.83,40.67c-1.49,8.37-2.59,16.83-2.91,25.36c-0.15,3.84,0.32,7.6,1.1,11.34c0.71,3.43,2.1,3.95,5.14,2.07
	c9.71-6.57,16.85-15.62,23.81-24.83c8.04-10.63,15.67-21.55,22.99-32.7c4.94-7.52,9.08-15.47,13.17-23.48
	c5.86-11.48,12.26-22.67,18.93-33.71c8.59-14.22,17.31-28.36,25.64-42.73c1.23-2.13,2.75-2.81,5.24-2.97
	c8.08-0.5,16.1,0.63,24.15,0.4c0.75-0.02,1.53-0.1,1.93,0.64c0.52,0.94-0.06,1.77-0.54,2.53c-2.58,4.06-5.11,8.15-7.72,12.19
	c-8.53,13.18-16.83,26.51-25.09,39.86c-7.54,12.19-14.71,24.63-21.5,37.27c-1.55,2.88-2.82,5.9-4.67,8.61
	c-2.51,4.39-4.91,8.83-6.45,13.68c-1.84,5.19-4.35,10.2-4.59,15.87c-0.06,1.35-0.44,2.78,0.93,3.74c1.3,0.92,2.32-0.04,3.51-0.49
	c6.04-2.28,9.92-7.3,14.32-11.52c7.08-6.77,13.24-14.45,19.21-22.21c6.36-8.27,12.74-16.54,18.62-25.17
	c0.46-0.68,0.96-1.33,1.56-1.88c1.41-1.13,2.38-2.57,2.99-4.26c2.37-4.37,5.46-8.29,8.06-12.53c3.22-5.23,6.37-10.5,9.3-15.91
	c2.75-5.09,5.93-9.93,8.67-15.03c3.9-6.02,7.06-12.45,10.64-18.65c1.04-1.81,1.87-3.72,3.13-5.41c1.22-1.13,2.72-0.89,4.15-0.78
	c7.43,0.6,14.88,0.72,22.32,1.11c3.12,0.17,3.63,1.01,2.01,3.61c-8.2,13.29-16.61,26.43-24.97,39.61
	c-8.13,12.8-16.3,25.56-23.86,38.71c-4.26,7.41-8.32,14.9-11.82,22.7c-1.56,3.49-2.76,7.11-3.51,10.86
	c-0.31,1.57-0.84,3.52,0.66,4.6c1.54,1.13,3.42,0.32,4.87-0.59c6.85-4.31,13.16-9.27,18.76-15.17c3.49-3.67,7.11-7.24,10.55-10.97
	c1.7-1.85,2.71-3.8,3.25-6.35c1.72-8.19,5.07-15.67,11.29-21.59c0.31-0.5,0.78-0.77,1.33-0.9c2.9-1.65,5.88-3.13,9.25-3.56
	c1.56-0.35,3.12,0.06,4.68,0c1.3-0.15,2.45,0.17,3.42,1.08c3.22,1.94,5.42,4.65,6.3,8.35c0.74,0.43,0.96,1.07,0.79,1.89
	c0.12,3.92-0.31,7.74-1.95,11.36c-1.56,3.45-3.64,6.44-7.13,8.28c-3.45,1.83-6.95,1.93-10.43,0.4c-1.54-0.68-1.97-0.05-2.23,1.15
	c-0.87,4.06-1.15,8.19,0.64,12.01c2.12,4.52,6.34,6.38,10.95,7.03c7.4,1.05,13.01-2.46,17.3-8.04c8.16-10.6,10.5-22.61,7.92-35.68
	c-0.8-4.08-1.73-8.14-2.17-12.29c-0.33-1.56-0.66-3.12-0.99-4.68C423.86,197.49,423.65,196.35,423.94,195.12z"/>
<g>
	<path class="st1" d="M265.91,418.16c-0.02-0.17-0.17-0.32-0.25-0.48c-1.46-0.7-3.09,0.1-4.55-0.49c-3.5,0.05-5.41-2.19-6.68-4.99
		c-2.35-5.2-4.58-10.46-6.72-15.74c-7.46-18.38-14.86-36.79-22.29-55.19c-0.33-0.81-0.48-1.75-1.49-2.07
		c-0.94,0.44-2.01,0-2.96,0.39c-0.85,0.05-1.69,0.1-2.54,0.15c-0.92,0.46-1.97,0.01-2.91,0.39c-2.16,0.12-2.54,1.96-3.19,3.44
		c-0.99,2.25-1.78,4.58-2.77,6.82c-2.13,4.85-4.4,9.64-6.51,14.5c-2.23,5.13-4.31,10.32-6.52,15.46c-2.16,5.02-4.29,10.06-6.62,15
		c-2.47,5.23-4.29,10.76-7.46,15.67c-1.71,2.65-3.9,4.58-6.75,5.88c-1.26,0.58-1.21,0.04-1-0.88c0.41-0.93-0.09-1.98,0.4-2.89
		c0.05-0.67,0.09-1.35,0.14-2.02c0.42-0.93-0.08-1.98,0.4-2.9c0.05-0.67,0.09-1.34,0.14-2.01c0.42-0.93-0.07-1.99,0.4-2.92
		c0.05-0.66,0.09-1.33,0.14-1.99c0.26-0.92,0.33-1.83-0.05-2.73c-1.7,0.2-3.29-0.53-4.95-0.64c-0.91-0.05-1.88-0.62-2.66,0.33
		c-0.54,1.88-1.06,3.76-1.62,5.64c-2.55,8.6-8.81,12.72-15.71,12.74c-3.33,0.5-6.68,0.22-10.01,0.19
		c-3.78-0.03-7.57,0.39-11.34-0.25c-0.04-2.98-0.11-5.97-0.11-8.95c0.02-18.11,0.06-36.21,0.1-54.32c0.42-1.13-0.09-2.36,0.37-3.51
		c0.06-3.38,2.51-3.1,4.77-3.1c1.98-0.77,4.2,0.51,6.13-0.73c-0.05-0.99-0.24-2-0.11-2.96c0.31-2.21-0.42-2.88-2.74-2.85
		c-9.68,0.14-19.36,0.06-29.04,0.06c-6.03,0-6.03,0-6.16,5.87c1.96,0.98,4.13-0.09,6.11,0.63c4.1,0.77,4.88,1.7,4.79,5.74
		c0.31,0.68,0.24,1.42,0.24,2.14c0,18.23,0,36.46,0,54.69c0,0.72,0.07,1.45-0.24,2.14c0.09,3.74-0.77,5.07-3.71,5.74
		c-1.27,0.57-2.67-0.07-3.95,0.41c-2.79-0.39-3.64,0.95-3.22,3.53c0.13,0.79,0,1.62-0.01,2.43c0.87,0.76,1.92,0.37,2.87,0.37
		c30.8,0.02,61.61,0.02,92.41,0.02c5.71,0,5.71,0,5.26-5.77c-0.01-0.17-0.14-0.33-0.21-0.5l-0.01-0.01
		c-1.64-0.67-3.42,0.16-5.06-0.48c-5.62,0.02-5.99-3.22-5.07-6.78c1.27-4.91,3.37-9.5,5.52-14.07c0.43-0.18,0.88-0.2,1.33-0.2
		c10.1,0,20.2,0,30.3,0c0.45,0,0.9-0.01,1.29,0.28c1.81,5.25,4.19,10.28,5.71,15.64c0.99,3.52,0.42,4.61-3.33,5.14
		c-1.64,0.66-3.42-0.23-5.04,0.51c-0.56,1.11-0.11,2.31-0.29,3.45c-0.35,2.25,0.54,2.88,2.8,2.85c9.68-0.12,19.36-0.05,29.04-0.05
		C266.43,423.93,266.44,423.93,265.91,418.16z M227.94,384.92c-7.54-0.04-15.08-0.09-22.62,0.03c-2.16,0.03-1.91-0.73-1.28-2.17
		c4.25-9.81,8.46-19.63,12.93-30.04c2.57,6.4,4.95,12.35,7.34,18.3c1.62,4.03,3.17,8.09,4.9,12.08
		C229.91,384.73,229.41,384.93,227.94,384.92z"/>
	<polygon class="st1" points="229.16,417.68 229.16,417.67 229.17,417.67 	"/>
	<path class="st1" d="M265.66,417.68C265.66,417.68,265.66,417.68,265.66,417.68c0.01,0.01,0.01,0.01,0.02,0.01L265.66,417.68z"/>
</g>
<path class="st7" d="M503.59,430.34c-2.1,0.39-1.6,2.09-1.61,3.4c-0.04,12.25-0.05,24.51-0.02,36.76c0,2.07-0.29,4.16,0.23,6.21
	c3.3,0.52,6.61,0.39,9.92,0.04c5.61,0.27,8.91-2.02,10.79-7.4c0.33-0.94,0.87-2.05,0.85-2.82c-0.07-2.58,1.43-2.43,3.12-2.3
	c0.66,0.51,2.42-0.35,1.96,1.56c-0.05,0.86-0.1,1.73-0.15,2.59c-0.54,1.09,0.05,2.31-0.41,3.41c-0.05,0.83-0.1,1.67-0.15,2.5
	c-0.44,0.94-0.01,2-0.39,2.96c-0.08,0.63-0.16,1.25-0.23,1.88c-0.18,1.78-0.95,2.41-2.92,2.4c-12.56-0.09-25.12,0-37.67,0.04
	c-0.71-1.42-0.71-2.84,0-4.25c4.97,0.45,6.12-0.97,6.08-5.72c-0.11-12.17-0.04-24.33-0.04-36.5c0-1.81,0.01-3.61-1.74-4.78
	c-1.08-0.55-2.3,0.05-3.39-0.41c-0.36-0.03-0.71-0.07-1.07-0.1c-0.54-0.84-0.21-1.77-0.29-2.66c-0.09-1.05,0.43-1.43,1.46-1.42
	c6.72,0.04,13.44-0.05,20.16,0.06c0.15,0,0.29,0.2,0.43,0.32c-0.69,1.21,1.29,3.54-1.61,3.81
	C505.84,430.38,504.63,429.72,503.59,430.34z"/>
</svg>
