<?xml version="1.0" encoding="UTF-8" standalone="no"?>
<!-- Generator: Adobe Illustrator 26.1.0, SVG Export Plug-In . SVG Version: 6.00 Build 0)  -->

<svg
   version="1.1"
   id="Layer_0_xA0_Image_00000141453104970908346110000010340226681881014163_"
   x="0px"
   y="0px"
   viewBox="0 0 837 440.8"
   xml:space="preserve"
   sodipodi:docname="text-logo-white.svg"
   width="837"
   height="440.79999"
   inkscape:version="1.1.2 (0a00cf5339, 2022-02-04, custom)"
   xmlns:inkscape="http://www.inkscape.org/namespaces/inkscape"
   xmlns:sodipodi="http://sodipodi.sourceforge.net/DTD/sodipodi-0.dtd"
   xmlns="http://www.w3.org/2000/svg"
   xmlns:svg="http://www.w3.org/2000/svg"><defs
   id="defs3295" /><sodipodi:namedview
   id="namedview3293"
   pagecolor="#505050"
   bordercolor="#ffffff"
   borderopacity="1"
   inkscape:pageshadow="0"
   inkscape:pageopacity="0"
   inkscape:pagecheckerboard="1"
   showgrid="false"
   height="491.79999px"
   inkscape:zoom="1.5937873"
   inkscape:cx="206.11282"
   inkscape:cy="245.6413"
   inkscape:window-width="2560"
   inkscape:window-height="1408"
   inkscape:window-x="0"
   inkscape:window-y="1440"
   inkscape:window-maximized="1"
   inkscape:current-layer="Layer_0_xA0_Image_00000141453104970908346110000010340226681881014163_" />
<style
   type="text/css"
   id="style3250">
	.st0{fill:#FFFFFF;}
</style>
<path
   class="st0"
   d="m 837,398.9 c 0,-0.2 -0.1,-0.4 -0.1,-0.6 -1.1,-0.9 -2.4,-0.1 -3.5,-0.6 -0.8,0 -1.6,0.1 -2.4,0 -1.3,-0.2 -2,0.6 -2.1,1.5 -0.3,2.1 -1.1,4.1 -1.7,6.1 -2,6.9 -7.3,10.9 -14.6,10.9 -7.2,0.5 -14.4,0 -21.6,0.3 -2.3,0.1 -2.7,-0.8 -2.7,-2.8 0.1,-9.2 0,-18.5 0,-27.7 0,-0.8 -0.2,-1.6 0.3,-2.4 4.8,-0.4 9.5,-0.2 14.3,-0.1 1.3,0.5 2.7,-0.1 4,0.4 4.8,0.3 7.8,2.6 8.1,7.7 0.2,2.4 1.4,3.8 4.2,3.2 1.2,-0.3 2.5,0 3.8,0 0.3,-0.2 0.4,-0.6 0.4,-1 0,-9.2 0,-18.5 0,-27.7 0,-0.3 -0.2,-0.5 -0.3,-0.7 -1.9,0 -3.8,0 -5.8,0 -1.2,0 -1.6,0.1 -1.8,1.7 -0.7,6.2 -2.9,9.7 -10.2,9.3 -5.6,0.4 -11.2,0.4 -16.8,0 -0.6,-9.5 -0.1,-19 -0.3,-28.5 0,-1 0.5,-1.2 1.4,-1.2 6.8,0.1 13.7,-0.3 20.5,0.2 1.5,-0.5 2.9,0.3 4.2,0.6 3.8,0.9 7.3,2.4 9.1,6.2 1.1,2.4 2.3,4.8 2.5,7.5 0.1,1.5 0.9,2.2 2.5,2 0.7,-0.1 1.5,0 2.2,0 1.1,-0.5 2.4,0 3.5,-0.4 0.3,-0.4 0.3,-0.8 0.1,-1.2 0,-0.5 -0.1,-1 -0.1,-1.5 -0.5,-0.9 0,-2 -0.4,-2.9 -0.1,-0.8 -0.1,-1.7 -0.2,-2.5 -0.4,-1 0,-2 -0.4,-3 0,-0.7 -0.1,-1.4 -0.1,-2.1 -0.5,-0.9 0,-1.9 -0.4,-2.9 0,-0.9 -0.1,-1.7 -0.2,-2.6 -0.5,-0.9 0,-2 -0.4,-2.9 0,-2 -1.4,-1.6 -2.6,-1.6 -22,0 -44.1,0 -66.1,0 -0.4,2 -0.5,4 0,6 1.1,0 2.2,0.1 3.3,0.1 1.1,0.5 2.3,-0.2 3.3,0.4 2.5,0.8 2.7,2.9 2.8,5.1 0.1,11.5 0.2,23.1 0.2,34.6 0,8.6 -0.1,17.3 -0.2,25.9 0,2 0,4.2 -2.7,4.8 -0.9,0.6 -1.9,0 -2.8,0.4 -6.6,1.3 -10.9,-1.5 -13.7,-7.2 -2.1,-4.3 -4.4,-8.5 -6.7,-12.8 -3,-5.6 -6.9,-10.4 -12.6,-13.6 -0.3,-0.4 -0.7,-0.8 0,-1.1 2.3,-0.8 4.6,-1.5 6.8,-2.3 8.2,-3.2 12.4,-9.4 12.9,-17.9 0.4,-8.3 -3.2,-14.4 -11,-18.1 -4.5,-2.1 -9.4,-2.8 -14.2,-3.8 -1.2,-0.5 -2.4,0.1 -3.5,-0.4 -0.3,0 -0.5,0.1 -0.8,0.1 -14.1,0 -28.1,-0.1 -42.2,-0.1 -0.7,0 -1.8,-0.4 -2,0.4 -0.3,1.6 -0.3,3.2 -0.1,4.8 0.2,1.4 1.7,0.4 2.5,0.9 1.3,0.5 2.7,-0.2 3.9,0.4 1.4,0.2 2.5,0.7 2.8,2.2 0.5,2.5 0.5,5 0.5,7.4 0,17 0,34 0,51 0,1.5 0.1,2.9 -0.1,4.4 -0.4,2.3 -0.2,5.2 -3.7,5.4 -2.8,0.4 -5.7,0.4 -8.5,0 -1.7,0.2 -2.9,-0.6 -4.1,-1.6 -1.9,-1.7 -2.9,-3.9 -3.8,-6.1 -8,-19.5 -15.9,-39.1 -23.9,-58.6 -1.6,-3.9 -2.7,-8.1 -5.2,-11.6 -1.1,0.5 -2.3,0 -3.4,0.4 -0.8,0 -1.6,0.1 -2.5,0.1 -1,0.4 -2.1,0 -3,0.4 -1.9,0.2 -2.1,1.9 -2.7,3.1 -1.9,3.9 -3.5,8 -5.4,11.9 -2.3,4.8 -4.1,9.8 -6.2,14.6 -2.1,5 -4.3,9.9 -6.6,14.9 -2.2,4.8 -4.6,9.6 -6.5,14.5 -1.8,4.6 -3.7,9.2 -6.7,13.1 -1.7,2.2 -3.8,4.5 -7,4.8 -1.4,0.6 -3,-0.2 -4.4,0.5 -0.3,0.5 -0.6,0.9 -0.9,1.4 -0.1,5.3 1.2,4.8 2.3,4.8 10.3,0 20.6,0 30.9,0 1.1,0 2.4,0.5 2.2,-4.9 -0.3,-0.5 -0.6,-0.9 -0.9,-1.3 -1.6,-0.7 -3.4,0.2 -5,-0.5 -2.2,0 -4.4,0 -5.3,-2.7 -0.4,-1 -0.3,-2 0,-3 0.7,-5.5 3.4,-10.2 5.6,-15.1 0.2,-0.1 0.5,-0.3 0.8,-0.2 10.2,0 20.5,0 30.8,0 0.8,0 1.5,0 1.8,0.8 1.8,4.6 3.7,9.1 5.2,13.8 1.7,5.2 0.2,6.1 -3.2,6.4 -1.5,0.5 -3.1,-0.1 -4.7,0.4 -1,1.9 -0.2,4 -0.5,5.9 0.9,0.8 1.9,0.4 2.9,0.4 20.9,0 41.7,0 62.6,0 4.9,0 4.9,0 4.5,-5 -0.1,-1.2 -0.5,-1.6 -1.7,-1.6 -1.5,0 -2.9,0.2 -4.4,-0.2 -3.2,-0.2 -3.6,-0.7 -3.7,-4.2 -0.5,-8.7 -0.1,-17.3 -0.2,-26 0,-0.9 0.4,-1.3 1.3,-1.3 2.4,0.1 4.9,-0.3 7.3,0.2 5.4,0.4 9.7,2.4 12.8,7 6.4,9.4 10.4,19.9 15,30.1 0.5,1 1.5,0.8 2.4,0.8 29.2,0 58.3,0 87.5,0 0.9,0 1.9,0.2 2.3,-1 0,-3.8 0.6,-7.6 1.2,-11.3 0.4,-0.9 -0.1,-2 0.4,-2.9 -0.1,-2.2 0.1,-4.3 0.7,-6.4 0.9,-0.4 0.3,-1.5 0.9,-2.5 z M 642.8,386 c -8,-0.1 -16.1,0 -24.6,0 4.7,-10.9 9.2,-21.4 13.8,-32.1 4.2,10.4 8.1,20.2 12.2,30.1 0.8,1.6 0.5,2 -1.4,2 z m 79.2,-7.9 c -5.5,1 -11,0.6 -16.6,0.7 -1.6,0 -1.4,-0.9 -1.4,-1.9 0,-4.7 0,-9.5 0,-14.2 0,-4.7 0,-9.5 0,-14.2 0,-1 -0.1,-2 1.5,-1.9 5.7,0.1 11.5,-0.3 17.1,0.8 9.7,1.9 13.7,6.5 13.6,15.4 -0.1,8.4 -4.9,13.7 -14.2,15.3 z"
   id="path3252" />
<path
   class="st0"
   d="m 396.1,409.8 c 0,5 1.3,6.6 5.4,6.9 1.7,0.8 3.8,-0.5 5.5,0.7 0,1.9 0,3.7 0,5.6 -0.4,0.8 -1.1,0.5 -1.7,0.5 -9.6,0 -19.2,0 -28.8,0 -0.5,0 -1.1,0.1 -1.5,-0.3 0,-2 0,-3.9 0,-5.9 1.8,-0.8 3.9,0.1 5.7,-0.6 2.7,-0.4 4.4,-1.7 5,-4.4 0.5,-2.4 1.4,-4.8 1.1,-7.4 0.3,-0.7 0.2,-1.4 0.2,-2.1 0,-16 0,-32.1 0,-48.1 0,-0.7 0.1,-1.5 -0.2,-2.1 0.1,-4.2 -0.4,-5.1 -3.9,-6.3 -1.3,-0.6 -2.7,0.1 -4,-0.4 -0.4,0 -0.8,0 -1.2,0 -0.9,0.4 -1.9,-0.1 -2.8,0.4 -1.7,-0.1 -3.1,0.5 -4.3,1.5 -0.3,0.9 -0.9,1.4 -1.7,1.7 -3.3,3.7 -4.3,8.5 -5.8,13 -6.3,19.5 -12.4,39 -18.5,58.5 -0.6,1.9 -1.3,2.9 -3.5,2.6 -2,-0.2 -4,-0.1 -6,0 -1.5,0.1 -2,-0.5 -2.4,-2 -3.6,-11.9 -7.4,-23.7 -11,-35.5 -2.6,-8.2 -5.1,-16.5 -7.7,-24.8 -1.4,0.3 -1.2,1.6 -1.4,2.3 -6.6,19.4 -13.1,38.8 -19.7,58.2 -0.4,1.2 -1,1.9 -2.5,1.8 -1.5,-0.2 -3.1,0 -4.6,0 -5,0 -5.2,0.1 -6.3,-4.7 -2.7,-11.4 -6.3,-22.5 -9.2,-33.7 -2.8,-11 -6.1,-21.8 -9.4,-32.6 -1.1,-3.5 -3.2,-6.2 -7.3,-6.4 -1,-0.4 -2,0 -3,-0.4 -2,-1.5 -0.9,-3.6 -0.8,-5.4 0.1,-1.4 1.8,-0.7 2.7,-0.7 10.3,-0.1 20.7,0 31,-0.1 2.3,0 3.3,0.5 2.9,2.9 -0.2,1 0,2 0,3 -1.8,1 -3.8,-0.1 -5.7,0.6 -1.7,0 -3.5,-0.1 -4.1,2.1 -0.4,1 -0.4,2 0,3 0.7,5.4 2.6,10.4 3.9,15.6 2.9,11.2 6.1,22.4 9.2,33.5 0.1,0.5 0.4,1 0.8,2 2,-6.1 3.9,-11.6 5.7,-17.2 4.7,-14.3 9.5,-28.6 14.2,-42.9 0.2,-0.6 0.6,-1 0.9,-1.6 3.8,0 7.6,-0.6 11.3,0.3 1.6,6.8 4,13.3 6,19.9 3.9,12.7 7.9,25.3 11.9,38 0.2,0.8 0.2,1.8 1.2,1.8 1,0 0.8,-1.3 1,-2 2.6,-8.7 5.1,-17.4 7.8,-26.1 2.1,-6.8 4.4,-13.5 5.8,-20.5 0.6,-3 -1.1,-4.9 -5.2,-5.9 -1.8,-0.7 -3.9,0.4 -5.7,-0.7 0.4,-1.9 -0.8,-4.5 0.5,-5.4 1.4,-1 3.8,-0.4 5.8,-0.4 15.8,0 31.7,0 47.5,0 1.4,0 2.4,0.3 3.4,1.5 7.2,9.1 14.4,18.2 21.7,27.2 7.1,8.8 14.2,17.7 21.4,26.5 1.6,2 3,4.3 5,6 1,0.1 0.9,-0.6 0.9,-1.2 0,-13.4 0.1,-26.7 -0.1,-40.1 0,-0.2 -0.1,-0.4 -0.2,-0.5 0.7,-3.1 -0.2,-6.2 -0.7,-9.3 -0.4,-2.5 -3,-3.1 -5.2,-3.5 -0.9,-0.5 -1.9,0 -2.8,-0.4 -0.8,-0.5 -2.3,0.5 -2.5,-0.8 -0.3,-1.6 -0.3,-3.3 0,-4.8 0.2,-0.8 1.4,-0.4 2.2,-0.4 9.9,0 19.8,0 29.7,0 0.3,2 0.4,4 -0.1,6 -0.7,0 -1.4,0.1 -2.1,0.1 -0.9,0.4 -1.9,-0.1 -2.8,0.4 -4.1,0.3 -5.8,2.7 -5.9,8.1 -0.4,1 -0.2,2 -0.2,3 0,21.2 0,42.4 0,63.6 0,0.9 0.5,2 -0.4,2.8 -1.6,0 -3.3,-0.3 -4.9,0 -4.3,0.9 -6.8,-1.5 -9.1,-4.6 -4.1,-5.5 -8.5,-10.7 -12.7,-16.1 -6.2,-7.8 -12.4,-15.6 -18.6,-23.4 -5.5,-6.9 -11,-13.7 -16.5,-20.5 -0.8,-1 -1.5,-2 -2.3,-3 -0.8,0.1 -0.7,0.7 -0.7,1.2 0,17.3 -0.1,34.6 0,52 0.3,0 0.4,0.2 0.4,0.4 z"
   id="path3254" />
<path
   class="st0"
   d="m 585.6,367.3 c -1.1,-6.1 -3,-11.8 -7.9,-16.2 -3.6,-3.2 -8,-5 -12.5,-6.1 -5.1,-1.3 -10.2,-0.7 -15.2,1 -8,2.9 -12.6,8.9 -15.3,16.6 -1.3,3.6 -2.4,7.3 -2.3,11.3 -0.6,1.5 0.1,3.1 -0.4,4.5 0,1.5 0,2.9 0,4.4 0.5,1.3 -0.2,2.7 0.4,3.9 0.7,13.3 8.9,26.6 22.8,29.7 1.4,0.3 2.8,0.4 4.3,0.3 1.8,0.3 3.6,0.4 5.5,0 11.2,-0.8 19.4,-6.3 24.5,-16.3 0.6,-1.1 1.6,-1.9 1.6,-3.3 0,-0.9 0.6,-0.7 1.1,-0.6 0.4,0.1 0.8,0.3 1.2,0.5 5.7,2.3 5.8,2.4 2.7,7.9 -4.7,8.5 -11.5,14.3 -20.8,17.3 -3,0.9 -6,1.4 -9,2.1 -1,0.4 -2,0 -3,0.4 -3.5,0 -7.1,0.4 -10.6,0 -8,-1 -15.5,-3.5 -22.1,-8.5 -4.9,-3.7 -8.8,-8.4 -11.5,-13.8 -2.1,-4.1 -3.3,-6.9 -3.7,-11.6 -0.6,-1 -0.4,-3.4 -0.4,-5.2 0,-2.3 0,-4.3 0,-6.7 0.5,-1.1 0,-2.3 0.4,-3.5 0.8,-9.1 4.5,-17.1 10.3,-24 6.1,-7.2 14.4,-10.9 23.5,-12.6 1.1,-0.2 2.3,-0.4 3.4,-0.7 0.9,-0.4 2,0.1 2.9,-0.4 8.9,-0.4 17.5,1.7 26,4 3.6,1 6.7,-0.2 9.9,-1.3 2.1,-0.7 2.2,-0.1 2.2,1.7 0,8.5 0,17.1 0,25.7 -2.3,0.6 -4.7,0.2 -7,0.3 -0.5,0.2 -0.9,-0.2 -1,-0.8 z"
   id="path3256" />








<path
   class="st0"
   d="m 764,161.5 c -1.8,-2.6 -2.8,-5.5 -4,-8.4 -0.3,-0.8 -0.6,-1.6 -0.9,-2.4 v 0 c -1.1,-3.3 -2.1,-6.5 -1.8,-10 0.1,-0.9 0.2,-1.8 0.8,-2.6 2.3,-2.8 4,-3 6.9,-1 0.4,0.2 0.7,0.6 1.1,0.7 2,1 3,3.1 4.3,4.8 0.9,1.1 1.6,2.3 2,3.7 3.1,7.6 5.1,15.6 5.4,23.8 0.2,5.2 -0.1,10.5 -0.9,15.7 -0.4,2.7 -0.9,5.3 -1.5,8 -1.4,5.4 -3,10.7 -7.6,14.4 -0.1,0.1 -0.3,0.2 -0.5,0.3 -0.3,0.2 -0.6,0.3 -0.9,0.4 -1.9,0.7 -2.3,0.4 -2.5,-1.6 -0.3,-3.1 -0.6,-6.1 -1.2,-9.2 -0.2,-0.9 -0.2,-1.8 0.5,-2.5 4.1,-4.1 6.1,-9.1 7,-14.7 0.6,-4 0.7,-8 0.2,-12 -0.1,-0.9 -0.5,-1.5 -1.1,-2 -2.2,-1.3 -3.8,-3.3 -5.3,-5.4 z"
   id="path3274" />
<path
   class="st0"
   d="m 668,141.2 c -3,1.8 -6.1,1.1 -8.7,-0.7 -7.5,-5.2 -11.3,-12.7 -11.3,-21.8 0,-5.9 4.7,-8.8 10.2,-6.6 7.5,3 11.2,9.1 13.1,16.6 0.5,2.9 0.6,5.8 -0.5,8.7 -0.6,1.5 -1.4,2.9 -2.8,3.8 z"
   id="path3276" />

<path
   class="st0"
   d="m 423.9,195.1 c -0.7,-3.4 -1.4,-6.9 -2.2,-10.3 -0.3,-1.2 0.2,-2.3 -0.2,-3.4 -0.4,-0.9 0.2,-1.9 -0.3,-2.8 0,-0.3 0,-0.7 0,-1 -0.4,-0.7 -0.6,-1.4 -0.1,-2.1 0.4,-5.8 2,-11.2 5.3,-16.1 4,-5.9 9.4,-9.8 16.4,-11.8 7.3,-2.1 14.5,-1.8 21.5,0.5 9.6,3 16.6,9.2 18.6,19.4 2,10.2 -1.3,19.4 -13.3,23 -4.2,1.3 -8.2,0.7 -12.4,0.6 -1.9,-0.1 -2.1,-1.2 -1.4,-2.6 1.2,-2.4 2.4,-4.9 3.4,-7.4 1.6,-3.9 2.4,-8 2.2,-12.2 -0.3,-7.1 -5.7,-11 -13.1,-8.3 -3.8,2.1 -4.7,5.8 -5.1,9.6 -0.8,6.8 1.2,13.3 3.4,19.6 2.8,8 5.4,16 6.2,24.4 1.2,12.3 -1.4,23.8 -9.2,33.8 -0.1,0.3 -0.5,0.5 -0.4,0.8 0,0.1 0.4,-0.2 0.6,-0.3 1.1,-0.7 2.1,-1.5 3.1,-2.2 9.3,-6.1 18.1,-12.7 26.2,-20.4 6.4,-6.1 12.2,-12.6 16.5,-20.4 6.5,-11.6 13.8,-22.6 20.2,-34.2 0.7,-1.3 1.3,-2.6 2,-3.9 0.8,-1.4 0.3,-2 -1.2,-2.1 -2.1,-0.1 -4.2,-0.1 -6.3,-0.3 -3.1,-0.3 -3.8,-1.3 -2.8,-4.3 0.8,-2.2 1.7,-4.4 2.5,-6.6 0.8,-2.1 2.1,-3 4.4,-2.9 2.7,0.1 5.3,0.6 8.1,0.7 2.2,0 3.5,-0.5 4.4,-2.6 3.8,-8.2 7.6,-16.5 10.8,-25 1.2,-3.3 1.5,-3.4 5,-3.3 6,0.2 12,0.5 18,0.8 2.5,0.1 3,0.7 2.1,3.3 -2,5.7 -4.2,11.4 -6.6,17 -1.2,2.9 -2.5,5.8 -3.9,8.7 -0.8,1.6 -0.9,2.5 1.4,2.8 6.8,1.1 13.7,1.4 20.6,1.4 1.7,0 3.4,0.3 5.2,0.4 1.7,0.1 2.3,1.3 2,2.9 -0.8,3.1 -1.9,6.1 -3,9 -0.4,1 -1.2,1.6 -2.4,1.5 -4.3,-0.2 -8.7,-0.1 -13,-0.6 -5.6,-1.2 -11.3,-0.8 -17,-1.1 -1.4,-0.1 -2.2,0.6 -2.7,1.8 -1.1,2.7 -2.8,5.1 -3.8,7.8 -5.8,11.3 -12.5,22.1 -19.3,32.8 -7.2,11.3 -15,22.3 -21.3,34.2 -1.7,3.1 -2.9,6.4 -3.7,9.9 -0.5,2.2 0.3,3.5 2.4,4.1 3.6,1 7.2,0.6 10.7,-0.8 5.4,-2 10.2,-5.1 15,-8.2 9.8,-6.4 18.4,-14.4 26.9,-22.5 9.6,-9.1 17.9,-19.1 24.3,-30.9 3.8,-7 7.5,-14.1 11.6,-21 3.6,-6.2 6.3,-12.9 9.1,-19.4 5.9,-14.1 10.3,-28.6 12.9,-43.6 1,-5.9 2,-12 1.9,-18 -0.1,-5.8 0.4,-11.6 -1.2,-17.2 -0.8,-3.3 -1.4,-6.7 -2.2,-10.1 -0.3,-1.4 0,-2.5 1.7,-2.7 3,-0.5 6.1,-0.8 9.1,-1.4 2.8,-0.5 5.7,-1.1 8.5,-1.7 2.4,-0.5 3.5,0.5 4.3,2.5 0.5,1.4 0.3,2.9 0.8,4.2 3,12.6 2.9,25.4 1.7,38.2 -0.8,9.3 -2.8,18.4 -5.2,27.5 -4.7,17.4 -11.6,34 -19.9,49.9 -0.2,0.5 -0.5,1 -0.6,1.5 -0.4,1.5 -1.2,2.9 -1.9,4.2 -7.6,13.6 -16,26.8 -24.8,39.6 -5.6,8.1 -11.4,16 -16.5,24.3 -1.8,2.9 -3.6,5.9 -4.7,9.2 -0.9,2.9 -0.1,4 2.9,3.4 3.2,-0.6 6.3,-1.9 9.1,-3.6 11.6,-6.9 21.9,-15.4 31.4,-25 6.7,-6.8 12.9,-14 18.7,-21.5 4,-5.3 7.3,-11.1 10.6,-16.8 6.5,-11.2 12.1,-22.9 16.6,-35.1 0.8,-2.1 2,-2.9 4.3,-2.6 6,0.6 11.9,1.3 17.9,1.4 2.7,0.1 3.2,0.8 2.3,3.4 -2.1,6.2 -4.9,12.1 -7.7,18 -6.5,13.6 -14.1,26.6 -22.5,39.1 -7.9,11.9 -16.7,23.1 -25.2,34.5 -3,4.1 -6,8.2 -8.5,12.6 -0.8,1.4 -2,3.1 -1,4.5 1.1,1.4 3.1,1 4.8,0.4 6,-2 11.2,-5.5 16.4,-9 12.8,-8.7 24,-19.1 34,-30.8 5.6,-6.6 9.6,-14.3 13.8,-21.8 4.2,-7.3 7.5,-15.1 11.4,-22.6 2.7,-5.1 5,-10.5 6.4,-16.1 1.5,-6.1 3.7,-10.7 11.2,-9.2 4.1,-0.8 8.2,0.1 12.4,-0.4 2.2,-0.3 3,0.6 2.5,2.9 -0.6,2.9 -1.8,5.6 -2.8,8.4 -0.2,0.5 -0.5,1 -0.8,1.5 -0.2,0.3 -0.5,0.6 -0.7,0.9 -0.2,0.3 -0.7,0.6 -0.4,1.1 0.1,0.1 0.4,-0.2 0.6,-0.4 0.3,-0.4 0.5,-0.8 0.7,-1.2 0.2,-0.5 0.4,-0.9 0.7,-1.4 2.4,-2.5 4.6,-5.3 7.3,-7.6 3.8,-3.3 8.1,-5.6 13.3,-5.7 2.5,-0.1 4.5,1.3 6.7,1.8 5,2.6 7.5,7.3 9.4,12.2 3.1,7.8 3.8,16.1 2.7,24.3 -1.2,8.9 -4.6,17.2 -8.6,25.3 -7.6,15.3 -17.8,28.8 -28.6,41.9 -7.5,9.1 -15.5,17.9 -22.7,27.4 -1.3,1.7 -2.3,3.5 -3,5.5 -0.8,2.2 0,3.1 2.3,3.4 7.1,1 12.6,-2.7 18.1,-6.1 9.2,-5.7 17,-13.2 24.8,-20.7 6.5,-6.2 12.3,-13.1 17.8,-20.2 9.5,-12.3 17.9,-25.3 24.5,-39.4 1.8,-3.9 3.4,-7.8 4.9,-11.8 0.4,-1 0.7,-2.2 2,-2.3 1.2,0 1.4,1.2 1.9,2 0.3,0.5 0.5,1.2 1,1.6 4.4,4.5 2.9,9 0.6,13.9 -6.1,13 -13.3,25.4 -21.6,37.1 -6,8.5 -12.8,16.3 -19.9,23.8 -6.7,7.1 -13.8,13.7 -21.3,19.9 -10.1,8.4 -20.9,16 -33.8,19.9 -2.8,0.8 -5.7,1.4 -8.8,0.5 -5.5,-1.5 -8.3,-4.5 -8.7,-12.2 -0.5,-9.8 3,-18.7 7,-27.4 5.3,-11.6 13,-21.7 20.5,-31.9 10.8,-14.6 21.5,-29.3 29.6,-45.7 3,-6.1 5.3,-12.5 5.9,-19.4 0.4,-4.5 -1.6,-6 -5.9,-4.3 -3.8,1.5 -6.4,4.4 -9.1,7.2 -6.9,7.4 -12.7,15.6 -18.7,23.7 -12.7,17.3 -25.9,34.1 -39.7,50.5 -9.2,11 -18.9,21.6 -27.9,32.8 -1.6,2 -3.2,2.5 -5.7,1.5 -4.3,-1.8 -8.9,-2.9 -13.3,-4.6 -0.8,-0.6 -2,-0.9 -1.9,-2.2 0,-0.2 0.1,-0.5 0.2,-0.7 0.7,-1 1.7,-1.7 2.2,-2.9 1.2,-1.7 2.5,-3.3 4.1,-4.7 0.5,-0.5 1.2,-1 1.6,-1.7 -0.7,0.2 -1.2,0.8 -1.8,1.1 -7.2,4.3 -14.7,8 -23.2,8.5 -3.9,0.2 -7.2,-1.6 -9.6,-4.7 -3.3,-6.1 -2.1,-12.4 -0.9,-18.7 0.3,-1.9 1.1,-3.6 1.7,-5.4 0.1,-0.3 0.2,-0.5 0.3,-0.8 0.3,-0.7 0.8,-1.3 1,-2.2 -1.2,0.5 -1.8,1.4 -2.6,2.1 -7.5,6.1 -15.5,11.6 -24.2,15.9 -3.8,1.9 -7.9,3.2 -12.2,3.5 -3.7,0.3 -11.4,-1.5 -12.9,-5.8 -2.9,-6 -2.3,-12.2 -0.7,-18.4 0.8,-3.3 1.9,-6.5 3.3,-10.2 -2.4,1.5 -3.8,3.3 -5.6,4.6 -5,4.2 -10.3,8 -15.7,11.6 -5.4,3.6 -10.9,6.8 -16.9,9.1 -5.8,2.3 -11.9,3.4 -18.1,1.6 -6.8,-2 -11.6,-9.1 -12.1,-17.5 -0.2,-4 0.1,-8 0.6,-12.3 -2.2,1.3 -4,2.8 -5.8,4.2 -8.7,7.2 -18.4,12.8 -28.3,18.2 -7.9,4.2 -16.3,7 -25,8.7 -7,1.4 -14.2,2.2 -21.4,-0.1 -6.7,-2.2 -11.1,-6.6 -13.9,-12.8 -0.6,-1.9 -0.2,-4.2 -2.3,-5.4 -5.1,4.7 -10,9.7 -15.2,14.4 -6.6,5.9 -13.5,11.4 -21.9,14.4 -9.3,3.3 -17.9,1.4 -21.2,-10.2 -1.5,-5.2 -0.7,-10.5 -0.5,-16 -4.7,5.8 -9.3,11.4 -14.1,16.8 -5.3,6 -11,11.6 -16.9,16.9 -0.9,0.8 -2,1.3 -3,1.8 -4.1,2.4 -7.9,5.5 -12.4,7.2 -3.2,1.2 -6.5,2.3 -10,2.2 -4.1,-0.1 -7,-1.9 -9.1,-5.4 -2.6,-4.4 -3.1,-9.2 -3.3,-14.2 0,-0.9 0.2,-1.8 -0.1,-2.7 -0.8,-0.3 -0.9,0.4 -1.2,0.8 -6.8,9.3 -13.7,18.5 -21.2,27.3 -0.4,0.4 -0.7,0.9 -0.8,1.4 -1.7,3.3 -4.5,5.7 -7,8.2 -5.7,5.8 -11.9,11.1 -19.7,14.2 -1.9,0.7 -3.7,1.4 -5.7,1.9 -9.6,1.5 -15.1,-4.9 -18.1,-13.4 -2.2,-6.3 -2.8,-12.9 -2.9,-19.5 -0.1,-7.2 0.2,-14.4 0.9,-21.5 0.8,-8 2,-16 3.6,-23.9 2.3,-11.3 5.1,-22.5 8.6,-33.4 1.7,-4.5 3.3,-9 4.4,-13.6 3.3,-10.6 7.7,-20.7 12.3,-30.8 1.9,-4.1 3.8,-8.2 5.9,-12.3 0.8,-1.5 0.6,-2.4 -1.4,-2.2 -9.5,0.9 -19,1.4 -28.5,2.5 -0.5,0.1 -1.1,0.1 -1.6,0.4 -1,0.4 -1.5,1.3 -1.9,2.2 -3.6,7.6 -7.5,15.1 -10.9,22.8 -0.4,0.9 -0.9,1.8 -1,2.8 -3.6,8.8 -7.8,17.4 -11.5,26.1 -5.8,13.6 -11.9,27.1 -17.9,40.6 -0.4,1 -0.9,2 -1.6,2.9 -1.4,2.6 -2.8,5.1 -3.5,8 -4.4,10.5 -9.3,20.9 -14,31.3 -5.6,12.1 -11.3,24.2 -17.2,36.1 -5.2,10.5 -10.4,20.9 -15.8,31.3 -3.9,7.6 -8,15 -12.4,22.4 -4.9,8.2 -10.4,16.1 -16.3,23.7 -4.2,5.4 -8.8,10.5 -13.9,15.1 -2.4,2.1 -4.9,4 -7.7,5.6 -3,1.1 -5.9,2.8 -9.3,3 -5.4,0.4 -9.4,-2 -12.6,-6.2 -0.7,-0.9 -1.4,-1.9 -2,-2.9 -4,-7.1 -5.1,-14.8 -5.7,-22.7 -0.6,-8.3 -0.4,-16.6 0.5,-25 1,-9.9 3.6,-19.4 7.2,-28.7 2.4,-6.2 5.5,-11.9 11.2,-15.7 4.6,-3 8.7,-1.8 11.4,3.1 2.7,4.9 3.6,10.2 3.8,15.7 0.3,7.1 0.2,14.1 -0.9,21.2 -1,5.6 -1.9,11.2 -3.9,16.6 -0.4,0.9 -0.8,1.9 -0.9,2.9 -0.2,1.8 0.4,2.5 2.3,2.2 4.4,-0.6 7.7,-3.1 10.7,-6.1 6,-5.8 10.3,-12.9 14.2,-20.2 7.5,-14.1 14.1,-28.6 20.2,-43.4 1,-2 2,-3.9 2.5,-6.1 2.8,-6.5 5.2,-13.1 7.9,-19.6 3.7,-9.1 6.9,-18.5 10.5,-27.7 7.4,-19 14.5,-38.1 22.4,-56.8 0.7,-1.8 1.4,-3.6 2.2,-5.2 1.6,-3.3 3.2,-6.7 4.2,-10.2 2.2,-5.8 4.8,-11.5 7.3,-17.2 3.7,-8.4 7.2,-16.8 11.5,-24.9 1.8,-3 3.2,-6.2 4.8,-9.4 0.1,-0.2 0.2,-0.5 0.3,-0.7 2.7,-5.2 5.7,-10.3 8,-15.7 3.8,-7.2 7.6,-14.4 11.9,-21.3 1.5,-1.8 2.5,-3.9 3.6,-5.9 9.3,-16.2 19.7,-31.8 31.7,-46.1 1.7,-2 3.5,-3.9 5.1,-6 12.5,-14.1 26.9,-25.6 44.6,-33.3 -6,-1.7 -11.9,-2.1 -17.7,-3.1 -7.6,-1.2 -15.4,-1.5 -23.1,-1.6 -24.4,-0.1 -47.7,4.2 -69.2,16.3 -13,7.3 -23.8,17.2 -32.9,29 -0.9,1.2 -1.7,2.6 -2.9,3.6 -1.8,1.4 -2.5,3.6 -3.8,5.4 -2.9,5.5 -6,10.9 -7.5,17 -0.1,0.6 -0.2,1.1 -0.4,1.7 -2.3,5.6 -3.5,11.4 -4.7,17.3 -1.3,6.7 -1.5,13.5 -0.4,20.2 0.7,4.6 2.3,8.9 5.7,12.4 2.9,2.9 6.2,4 10.1,3.5 2.5,-0.3 5,-0.7 7.4,-1.7 12,-4.6 21.1,-12.9 29.2,-22.6 3.9,-4.6 6.9,-9.8 9.9,-15 4.6,-8.1 6.8,-16.9 7.7,-26.2 0.6,-5.9 0.1,-11.8 -0.6,-17.6 -0.4,-2.9 0.3,-3.6 3.2,-3.7 2.4,-0.1 4.9,-0.5 7.3,-0.2 2,0.2 3.1,1 3.4,3.1 1.2,7.5 1.3,15 0,22.5 -1.8,10.3 -4.5,20.4 -9,29.8 -1.7,3.6 -3.9,7 -5.7,10.5 -6.7,11.4 -15.4,21.2 -25.5,29.8 -6,5.1 -12.6,9.5 -19.8,12.8 -1.4,0.6 -2.9,1 -4.3,1.6 -6.6,2.3 -13.3,2.9 -20.1,1.9 -9.6,-1.4 -16,-7.3 -20.3,-15.7 -4.4,-8.6 -6.2,-17.7 -6.8,-27.3 -0.5,-9.1 0.4,-18.1 2.5,-27 2.2,-8.1 4,-16.3 7.1,-24.1 1.6,-3 2.5,-6.4 4.2,-9.4 5.8,-11.6 13.2,-22 22.1,-31.3 0.5,-0.5 0.9,-1.1 1.2,-1.8 8.3,-8.8 18.1,-15.6 28.8,-21.2 14.5,-7.5 30.1,-11.4 46.2,-13.2 12.6,-1.5 25.2,-1.2 37.7,0 18.1,1.8 35.9,5.9 53.4,10.9 6.7,1.9 13.3,4.3 20,6 2.2,0.6 4.3,0.7 6.4,0.4 3.4,-0.4 6.7,-0.3 10,0.7 6.4,1.9 8.6,8.7 5.4,14.5 -1.5,2.6 -3.9,3.2 -6.8,2.9 C 298,36 294.5,35 291,34.1 c -5.2,-1.2 -10.3,-0.6 -15.2,1.1 -8.6,2.9 -15.9,8 -22.6,13.9 -15.6,13.8 -28.2,30.2 -39.6,47.5 -6.8,10.2 -13.1,20.7 -19,31.4 -2.6,4.8 -5.1,9.6 -7.8,14.3 -1.2,2.1 -0.9,2.6 1.5,2.6 6.6,0.1 13.2,-0.3 19.8,-0.7 2.5,-0.1 5.1,0.1 7.6,-0.2 1.5,-0.2 2.2,-0.6 2.9,-1.8 8.2,-14 17,-27.7 26.8,-40.7 7,-9.3 14.2,-18.3 22.3,-26.6 4.4,-4.6 8.7,-9.3 13.5,-13.4 10.2,-8.7 20.8,-16.6 33.3,-21.8 5.3,-2.2 10.8,-4.1 16.4,-4.7 10.3,-1.1 20.6,-1 29.2,5.9 5.2,4.2 8.5,9.5 9.3,16.3 0.8,7.4 -5.7,13.2 -12.9,10.4 -2.9,-1.2 -5,-3.1 -6.9,-5.5 -1.9,-2.5 -3.3,-5.2 -4.8,-7.9 -3.4,-6 -5.1,-5.7 -11.7,-5.1 -4.8,0.5 -9,2.8 -13,5.3 -9.1,5.7 -17,12.7 -24.3,20.5 -9.5,10.2 -18,21.1 -25.9,32.6 -0.6,0.8 -1.2,1.6 -1.9,2.3 -2.6,2.6 -4.3,5.8 -6.1,8.9 -0.1,0.2 -0.3,0.5 -0.5,0.7 -11.4,18.5 -21.4,37.7 -30.1,57.6 -6.9,15.8 -12.7,32 -17.8,48.5 -4.1,13.4 -7.4,26.9 -9.8,40.7 -1.5,8.4 -2.6,16.8 -2.9,25.4 -0.1,3.8 0.3,7.6 1.1,11.3 0.7,3.4 2.1,4 5.1,2.1 9.7,-6.6 16.9,-15.6 23.8,-24.8 8,-10.6 15.7,-21.5 23,-32.7 4.9,-7.5 9.1,-15.5 13.2,-23.5 5.9,-11.5 12.3,-22.7 18.9,-33.7 8.6,-14.2 17.3,-28.4 25.6,-42.7 1.2,-2.1 2.8,-2.8 5.2,-3 8.1,-0.5 16.1,0.6 24.1,0.4 0.8,0 1.5,-0.1 1.9,0.6 0.5,0.9 -0.1,1.8 -0.5,2.5 -2.6,4.1 -5.1,8.1 -7.7,12.2 -8.5,13.2 -16.8,26.5 -25.1,39.9 -7.5,12.2 -14.7,24.6 -21.5,37.3 -1.5,2.9 -2.8,5.9 -4.7,8.6 -2.5,4.4 -4.9,8.8 -6.5,13.7 -1.8,5.2 -4.4,10.2 -4.6,15.9 -0.1,1.4 -0.4,2.8 0.9,3.7 1.3,0.9 2.3,0 3.5,-0.5 6,-2.3 9.9,-7.3 14.3,-11.5 7.1,-6.8 13.2,-14.4 19.2,-22.2 6.4,-8.3 12.7,-16.5 18.6,-25.2 0.5,-0.7 1,-1.3 1.6,-1.9 1.4,-1.1 2.4,-2.6 3,-4.3 2.4,-4.4 5.5,-8.3 8.1,-12.5 3.2,-5.2 6.4,-10.5 9.3,-15.9 2.8,-5.1 5.9,-9.9 8.7,-15 3.9,-6 7.1,-12.4 10.6,-18.6 1,-1.8 1.9,-3.7 3.1,-5.4 1.2,-1.1 2.7,-0.9 4.1,-0.8 7.4,0.6 14.9,0.7 22.3,1.1 3.1,0.2 3.6,1 2,3.6 -8.2,13.3 -16.6,26.4 -25,39.6 -8.1,12.8 -16.3,25.6 -23.9,38.7 -4.3,7.4 -8.3,14.9 -11.8,22.7 -1.6,3.5 -2.8,7.1 -3.5,10.9 -0.3,1.6 -0.8,3.5 0.7,4.6 1.5,1.1 3.4,0.3 4.9,-0.6 6.9,-4.3 13.2,-9.3 18.8,-15.2 3.5,-3.7 7.1,-7.2 10.5,-11 1.7,-1.9 2.7,-3.8 3.2,-6.4 1.7,-8.2 5.1,-15.7 11.3,-21.6 0.3,-0.5 0.8,-0.8 1.3,-0.9 2.9,-1.6 5.9,-3.1 9.2,-3.6 1.6,-0.4 3.1,0.1 4.7,0 1.3,-0.1 2.5,0.2 3.4,1.1 3.2,1.9 5.4,4.6 6.3,8.4 0.7,0.4 1,1.1 0.8,1.9 0.1,3.9 -0.3,7.7 -2,11.4 -1.6,3.4 -3.6,6.4 -7.1,8.3 -3.5,1.8 -7,1.9 -10.4,0.4 -1.5,-0.7 -2,-0.1 -2.2,1.1 -0.9,4.1 -1.1,8.2 0.6,12 2.1,4.5 6.3,6.4 11,7 7.4,1 13,-2.5 17.3,-8 8.2,-10.6 10.5,-22.6 7.9,-35.7 -0.8,-4.1 -1.7,-8.1 -2.2,-12.3 -0.3,-1.6 -0.7,-3.1 -1,-4.7 -0.3,-0.9 -0.6,-2 -0.3,-3.3 z"
   id="path3280" />
<g
   id="g3288">
	<path
   class="st0"
   d="m 265.6,417.9 c 0,-0.2 -0.2,-0.3 -0.2,-0.5 -1.5,-0.7 -3.1,0.1 -4.5,-0.5 -3.5,0 -5.4,-2.2 -6.7,-5 -2.4,-5.2 -4.6,-10.5 -6.7,-15.7 -7.5,-18.4 -14.9,-36.8 -22.3,-55.2 -0.3,-0.8 -0.5,-1.8 -1.5,-2.1 -0.9,0.4 -2,0 -3,0.4 -0.9,0 -1.7,0.1 -2.5,0.1 -0.9,0.5 -2,0 -2.9,0.4 -2.2,0.1 -2.5,2 -3.2,3.4 -1,2.2 -1.8,4.6 -2.8,6.8 -2.1,4.9 -4.4,9.6 -6.5,14.5 -2.2,5.1 -4.3,10.3 -6.5,15.5 -2.2,5 -4.3,10.1 -6.6,15 -2.5,5.2 -4.3,10.8 -7.5,15.7 -1.7,2.6 -3.9,4.6 -6.8,5.9 -1.3,0.6 -1.2,0 -1,-0.9 0.4,-0.9 -0.1,-2 0.4,-2.9 0.1,-0.7 0.1,-1.4 0.1,-2 0.4,-0.9 -0.1,-2 0.4,-2.9 0.1,-0.7 0.1,-1.3 0.1,-2 0.4,-0.9 -0.1,-2 0.4,-2.9 0.1,-0.7 0.1,-1.3 0.1,-2 0.3,-0.9 0.3,-1.8 -0.1,-2.7 -1.7,0.2 -3.3,-0.5 -4.9,-0.6 -0.9,0 -1.9,-0.6 -2.7,0.3 -0.5,1.9 -1.1,3.8 -1.6,5.6 -2.6,8.6 -8.8,12.7 -15.7,12.7 -3.3,0.5 -6.7,0.2 -10,0.2 -3.8,0 -7.6,0.4 -11.3,-0.2 0,-3 -0.1,-6 -0.1,-9 0,-18.1 0.1,-36.2 0.1,-54.3 0.4,-1.1 -0.1,-2.4 0.4,-3.5 0.1,-3.4 2.5,-3.1 4.8,-3.1 2,-0.8 4.2,0.5 6.1,-0.7 -0.1,-1 -0.2,-2 -0.1,-3 0.3,-2.2 -0.4,-2.9 -2.7,-2.9 -9.7,0.1 -19.4,0.1 -29,0.1 -6,0 -6,0 -6.2,5.9 2,1 4.1,-0.1 6.1,0.6 4.1,0.8 4.9,1.7 4.8,5.7 0.3,0.7 0.2,1.4 0.2,2.1 0,18.2 0,36.5 0,54.7 0,0.7 0.1,1.5 -0.2,2.1 0.1,3.7 -0.8,5.1 -3.7,5.7 -1.3,0.6 -2.7,-0.1 -3.9,0.4 -2.8,-0.4 -3.6,1 -3.2,3.5 0.1,0.8 0,1.6 0,2.4 0.9,0.8 1.9,0.4 2.9,0.4 30.8,0 61.6,0 92.4,0 5.7,0 5.7,0 5.3,-5.8 0,-0.2 -0.1,-0.3 -0.2,-0.5 v 0 c -1.6,-0.7 -3.4,0.2 -5.1,-0.5 -5.6,0 -6,-3.2 -5.1,-6.8 1.3,-4.9 3.4,-9.5 5.5,-14.1 0.4,-0.2 0.9,-0.2 1.3,-0.2 10.1,0 20.2,0 30.3,0 0.4,0 0.9,0 1.3,0.3 1.8,5.2 4.2,10.3 5.7,15.6 1,3.5 0.4,4.6 -3.3,5.1 -1.6,0.7 -3.4,-0.2 -5,0.5 -0.6,1.1 -0.1,2.3 -0.3,3.5 -0.4,2.2 0.5,2.9 2.8,2.9 9.7,-0.1 19.4,0 29,0 5.6,0.2 5.6,0.2 5.1,-5.5 z m -37.7,-33 c -7.5,0 -15.1,-0.1 -22.6,0 -2.2,0 -1.9,-0.7 -1.3,-2.2 4.2,-9.8 8.5,-19.6 12.9,-30 2.6,6.4 4.9,12.4 7.3,18.3 1.6,4 3.2,8.1 4.9,12.1 0.8,1.6 0.3,1.8 -1.2,1.8 z"
   id="path3282" />
	<polygon
   class="st0"
   points=""
   id="polygon3284" />
	<path
   class="st0"
   d="m 265.7,417.7 v 0 c 0,0 0,0 0,0 z"
   id="path3286" />
</g>

</svg>
