<?xml version="1.0" encoding="utf-8"?>
<!-- Generator: Adobe Illustrator 26.1.0, SVG Export Plug-In . SVG Version: 6.00 Build 0)  -->
<svg version="1.1" id="Layer_0_xA0_Image_00000141453104970908346110000010340226681881014163_"
	 xmlns="http://www.w3.org/2000/svg" xmlns:xlink="http://www.w3.org/1999/xlink" x="0px" y="0px" viewBox="0 0 837 491.8"
	 style="enable-background:new 0 0 837 491.8;" xml:space="preserve">
<style type="text/css">
	.st0{fill:#FFFFFF;}
</style>
<path class="st0" d="M837,398.9c0-0.2-0.1-0.4-0.1-0.6c-1.1-0.9-2.4-0.1-3.5-0.6c-0.8,0-1.6,0.1-2.4,0c-1.3-0.2-2,0.6-2.1,1.5
	c-0.3,2.1-1.1,4.1-1.7,6.1c-2,6.9-7.3,10.9-14.6,10.9c-7.2,0.5-14.4,0-21.6,0.3c-2.3,0.1-2.7-0.8-2.7-2.8c0.1-9.2,0-18.5,0-27.7
	c0-0.8-0.2-1.6,0.3-2.4c4.8-0.4,9.5-0.2,14.3-0.1c1.3,0.5,2.7-0.1,4,0.4c4.8,0.3,7.8,2.6,8.1,7.7c0.2,2.4,1.4,3.8,4.2,3.2
	c1.2-0.3,2.5,0,3.8,0c0.3-0.2,0.4-0.6,0.4-1c0-9.2,0-18.5,0-27.7c0-0.3-0.2-0.5-0.3-0.7c-1.9,0-3.8,0-5.8,0c-1.2,0-1.6,0.1-1.8,1.7
	c-0.7,6.2-2.9,9.7-10.2,9.3c-5.6,0.4-11.2,0.4-16.8,0c-0.6-9.5-0.1-19-0.3-28.5c0-1,0.5-1.2,1.4-1.2c6.8,0.1,13.7-0.3,20.5,0.2
	c1.5-0.5,2.9,0.3,4.2,0.6c3.8,0.9,7.3,2.4,9.1,6.2c1.1,2.4,2.3,4.8,2.5,7.5c0.1,1.5,0.9,2.2,2.5,2c0.7-0.1,1.5,0,2.2,0
	c1.1-0.5,2.4,0,3.5-0.4c0.3-0.4,0.3-0.8,0.1-1.2c0-0.5-0.1-1-0.1-1.5c-0.5-0.9,0-2-0.4-2.9c-0.1-0.8-0.1-1.7-0.2-2.5
	c-0.4-1,0-2-0.4-3c0-0.7-0.1-1.4-0.1-2.1c-0.5-0.9,0-1.9-0.4-2.9c0-0.9-0.1-1.7-0.2-2.6c-0.5-0.9,0-2-0.4-2.9c0-2-1.4-1.6-2.6-1.6
	c-22,0-44.1,0-66.1,0c-0.4,2-0.5,4,0,6c1.1,0,2.2,0.1,3.3,0.1c1.1,0.5,2.3-0.2,3.3,0.4c2.5,0.8,2.7,2.9,2.8,5.1
	c0.1,11.5,0.2,23.1,0.2,34.6c0,8.6-0.1,17.3-0.2,25.9c0,2,0,4.2-2.7,4.8c-0.9,0.6-1.9,0-2.8,0.4c-6.6,1.3-10.9-1.5-13.7-7.2
	c-2.1-4.3-4.4-8.5-6.7-12.8c-3-5.6-6.9-10.4-12.6-13.6c-0.3-0.4-0.7-0.8,0-1.1c2.3-0.8,4.6-1.5,6.8-2.3c8.2-3.2,12.4-9.4,12.9-17.9
	c0.4-8.3-3.2-14.4-11-18.1c-4.5-2.1-9.4-2.8-14.2-3.8c-1.2-0.5-2.4,0.1-3.5-0.4c-0.3,0-0.5,0.1-0.8,0.1c-14.1,0-28.1-0.1-42.2-0.1
	c-0.7,0-1.8-0.4-2,0.4c-0.3,1.6-0.3,3.2-0.1,4.8c0.2,1.4,1.7,0.4,2.5,0.9c1.3,0.5,2.7-0.2,3.9,0.4c1.4,0.2,2.5,0.7,2.8,2.2
	c0.5,2.5,0.5,5,0.5,7.4c0,17,0,34,0,51c0,1.5,0.1,2.9-0.1,4.4c-0.4,2.3-0.2,5.2-3.7,5.4c-2.8,0.4-5.7,0.4-8.5,0
	c-1.7,0.2-2.9-0.6-4.1-1.6c-1.9-1.7-2.9-3.9-3.8-6.1c-8-19.5-15.9-39.1-23.9-58.6c-1.6-3.9-2.7-8.1-5.2-11.6c-1.1,0.5-2.3,0-3.4,0.4
	c-0.8,0-1.6,0.1-2.5,0.1c-1,0.4-2.1,0-3,0.4c-1.9,0.2-2.1,1.9-2.7,3.1c-1.9,3.9-3.5,8-5.4,11.9c-2.3,4.8-4.1,9.8-6.2,14.6
	c-2.1,5-4.3,9.9-6.6,14.9c-2.2,4.8-4.6,9.6-6.5,14.5c-1.8,4.6-3.7,9.2-6.7,13.1c-1.7,2.2-3.8,4.5-7,4.8c-1.4,0.6-3-0.2-4.4,0.5
	c-0.3,0.5-0.6,0.9-0.9,1.4c-0.1,5.3,1.2,4.8,2.3,4.8c10.3,0,20.6,0,30.9,0c1.1,0,2.4,0.5,2.2-4.9c-0.3-0.5-0.6-0.9-0.9-1.3
	c-1.6-0.7-3.4,0.2-5-0.5c-2.2,0-4.4,0-5.3-2.7c-0.4-1-0.3-2,0-3c0.7-5.5,3.4-10.2,5.6-15.1c0.2-0.1,0.5-0.3,0.8-0.2
	c10.2,0,20.5,0,30.8,0c0.8,0,1.5,0,1.8,0.8c1.8,4.6,3.7,9.1,5.2,13.8c1.7,5.2,0.2,6.1-3.2,6.4c-1.5,0.5-3.1-0.1-4.7,0.4
	c-1,1.9-0.2,4-0.5,5.9c0.9,0.8,1.9,0.4,2.9,0.4c20.9,0,41.7,0,62.6,0c4.9,0,4.9,0,4.5-5c-0.1-1.2-0.5-1.6-1.7-1.6
	c-1.5,0-2.9,0.2-4.4-0.2c-3.2-0.2-3.6-0.7-3.7-4.2c-0.5-8.7-0.1-17.3-0.2-26c0-0.9,0.4-1.3,1.3-1.3c2.4,0.1,4.9-0.3,7.3,0.2
	c5.4,0.4,9.7,2.4,12.8,7c6.4,9.4,10.4,19.9,15,30.1c0.5,1,1.5,0.8,2.4,0.8c29.2,0,58.3,0,87.5,0c0.9,0,1.9,0.2,2.3-1
	c0-3.8,0.6-7.6,1.2-11.3c0.4-0.9-0.1-2,0.4-2.9c-0.1-2.2,0.1-4.3,0.7-6.4C837,401,836.4,399.9,837,398.9z M642.8,386
	c-8-0.1-16.1,0-24.6,0c4.7-10.9,9.2-21.4,13.8-32.1c4.2,10.4,8.1,20.2,12.2,30.1C645,385.6,644.7,386,642.8,386z M722,378.1
	c-5.5,1-11,0.6-16.6,0.7c-1.6,0-1.4-0.9-1.4-1.9c0-4.7,0-9.5,0-14.2c0-4.7,0-9.5,0-14.2c0-1-0.1-2,1.5-1.9
	c5.7,0.1,11.5-0.3,17.1,0.8c9.7,1.9,13.7,6.5,13.6,15.4C736.1,371.2,731.3,376.5,722,378.1z"/>
<path class="st0" d="M396.1,409.8c0,5,1.3,6.6,5.4,6.9c1.7,0.8,3.8-0.5,5.5,0.7c0,1.9,0,3.7,0,5.6c-0.4,0.8-1.1,0.5-1.7,0.5
	c-9.6,0-19.2,0-28.8,0c-0.5,0-1.1,0.1-1.5-0.3c0-2,0-3.9,0-5.9c1.8-0.8,3.9,0.1,5.7-0.6c2.7-0.4,4.4-1.7,5-4.4
	c0.5-2.4,1.4-4.8,1.1-7.4c0.3-0.7,0.2-1.4,0.2-2.1c0-16,0-32.1,0-48.1c0-0.7,0.1-1.5-0.2-2.1c0.1-4.2-0.4-5.1-3.9-6.3
	c-1.3-0.6-2.7,0.1-4-0.4c-0.4,0-0.8,0-1.2,0c-0.9,0.4-1.9-0.1-2.8,0.4c-1.7-0.1-3.1,0.5-4.3,1.5c-0.3,0.9-0.9,1.4-1.7,1.7
	c-3.3,3.7-4.3,8.5-5.8,13c-6.3,19.5-12.4,39-18.5,58.5c-0.6,1.9-1.3,2.9-3.5,2.6c-2-0.2-4-0.1-6,0c-1.5,0.1-2-0.5-2.4-2
	c-3.6-11.9-7.4-23.7-11-35.5c-2.6-8.2-5.1-16.5-7.7-24.8c-1.4,0.3-1.2,1.6-1.4,2.3c-6.6,19.4-13.1,38.8-19.7,58.2
	c-0.4,1.2-1,1.9-2.5,1.8c-1.5-0.2-3.1,0-4.6,0c-5,0-5.2,0.1-6.3-4.7c-2.7-11.4-6.3-22.5-9.2-33.7c-2.8-11-6.1-21.8-9.4-32.6
	c-1.1-3.5-3.2-6.2-7.3-6.4c-1-0.4-2,0-3-0.4c-2-1.5-0.9-3.6-0.8-5.4c0.1-1.4,1.8-0.7,2.7-0.7c10.3-0.1,20.7,0,31-0.1
	c2.3,0,3.3,0.5,2.9,2.9c-0.2,1,0,2,0,3c-1.8,1-3.8-0.1-5.7,0.6c-1.7,0-3.5-0.1-4.1,2.1c-0.4,1-0.4,2,0,3c0.7,5.4,2.6,10.4,3.9,15.6
	c2.9,11.2,6.1,22.4,9.2,33.5c0.1,0.5,0.4,1,0.8,2c2-6.1,3.9-11.6,5.7-17.2c4.7-14.3,9.5-28.6,14.2-42.9c0.2-0.6,0.6-1,0.9-1.6
	c3.8,0,7.6-0.6,11.3,0.3c1.6,6.8,4,13.3,6,19.9c3.9,12.7,7.9,25.3,11.9,38c0.2,0.8,0.2,1.8,1.2,1.8c1,0,0.8-1.3,1-2
	c2.6-8.7,5.1-17.4,7.8-26.1c2.1-6.8,4.4-13.5,5.8-20.5c0.6-3-1.1-4.9-5.2-5.9c-1.8-0.7-3.9,0.4-5.7-0.7c0.4-1.9-0.8-4.5,0.5-5.4
	c1.4-1,3.8-0.4,5.8-0.4c15.8,0,31.7,0,47.5,0c1.4,0,2.4,0.3,3.4,1.5c7.2,9.1,14.4,18.2,21.7,27.2c7.1,8.8,14.2,17.7,21.4,26.5
	c1.6,2,3,4.3,5,6c1,0.1,0.9-0.6,0.9-1.2c0-13.4,0.1-26.7-0.1-40.1c0-0.2-0.1-0.4-0.2-0.5c0.7-3.1-0.2-6.2-0.7-9.3
	c-0.4-2.5-3-3.1-5.2-3.5c-0.9-0.5-1.9,0-2.8-0.4c-0.8-0.5-2.3,0.5-2.5-0.8c-0.3-1.6-0.3-3.3,0-4.8c0.2-0.8,1.4-0.4,2.2-0.4
	c9.9,0,19.8,0,29.7,0c0.3,2,0.4,4-0.1,6c-0.7,0-1.4,0.1-2.1,0.1c-0.9,0.4-1.9-0.1-2.8,0.4c-4.1,0.3-5.8,2.7-5.9,8.1
	c-0.4,1-0.2,2-0.2,3c0,21.2,0,42.4,0,63.6c0,0.9,0.5,2-0.4,2.8c-1.6,0-3.3-0.3-4.9,0c-4.3,0.9-6.8-1.5-9.1-4.6
	c-4.1-5.5-8.5-10.7-12.7-16.1c-6.2-7.8-12.4-15.6-18.6-23.4c-5.5-6.9-11-13.7-16.5-20.5c-0.8-1-1.5-2-2.3-3
	c-0.8,0.1-0.7,0.7-0.7,1.2c0,17.3-0.1,34.6,0,52C396,409.4,396.1,409.6,396.1,409.8z"/>
<path class="st0" d="M585.6,367.3c-1.1-6.1-3-11.8-7.9-16.2c-3.6-3.2-8-5-12.5-6.1c-5.1-1.3-10.2-0.7-15.2,1
	c-8,2.9-12.6,8.9-15.3,16.6c-1.3,3.6-2.4,7.3-2.3,11.3c-0.6,1.5,0.1,3.1-0.4,4.5c0,1.5,0,2.9,0,4.4c0.5,1.3-0.2,2.7,0.4,3.9
	c0.7,13.3,8.9,26.6,22.8,29.7c1.4,0.3,2.8,0.4,4.3,0.3c1.8,0.3,3.6,0.4,5.5,0c11.2-0.8,19.4-6.3,24.5-16.3c0.6-1.1,1.6-1.9,1.6-3.3
	c0-0.9,0.6-0.7,1.1-0.6c0.4,0.1,0.8,0.3,1.2,0.5c5.7,2.3,5.8,2.4,2.7,7.9c-4.7,8.5-11.5,14.3-20.8,17.3c-3,0.9-6,1.4-9,2.1
	c-1,0.4-2,0-3,0.4c-3.5,0-7.1,0.4-10.6,0c-8-1-15.5-3.5-22.1-8.5c-4.9-3.7-8.8-8.4-11.5-13.8c-2.1-4.1-3.3-6.9-3.7-11.6
	c-0.6-1-0.4-3.4-0.4-5.2c0-2.3,0-4.3,0-6.7c0.5-1.1,0-2.3,0.4-3.5c0.8-9.1,4.5-17.1,10.3-24c6.1-7.2,14.4-10.9,23.5-12.6
	c1.1-0.2,2.3-0.4,3.4-0.7c0.9-0.4,2,0.1,2.9-0.4c8.9-0.4,17.5,1.7,26,4c3.6,1,6.7-0.2,9.9-1.3c2.1-0.7,2.2-0.1,2.2,1.7
	c0,8.5,0,17.1,0,25.7c-2.3,0.6-4.7,0.2-7,0.3C586.1,368.3,585.7,367.9,585.6,367.3z"/>
<path class="st0" d="M261.5,482c-3.2-3.6-5.6-7.8-8.4-11.7c-7.8-10.9-15.3-22-22.9-33c-0.1-0.1-0.3-0.1-0.6-0.2
	c-0.1,0.3-0.2,0.7-0.2,1c0,11.2,0,22.4,0.1,33.6c0.1,5.3,0.7,5.8,6.1,5.8c0.5,1.4,0.7,2.9-0.1,4.3c-5.9,0-11.8,0-17.7,0
	c-0.8-1.4-0.6-2.9-0.1-4.3c4.2,0.1,5.2-0.7,6-4.8c0.2-0.3,0.2-0.7,0.2-1c0-12.9,0-25.8,0-38.7c0-0.4-0.1-0.7-0.2-1.1
	c-1.3-2-3.3-2.1-5.4-2.1c-0.7-0.9-0.3-1.9-0.4-2.9c-0.1-0.8,0.3-1.2,1.1-1.2c4.7,0,9.4-0.1,14.1,0.1c0.1,0,0.2,0.3,0.3,0.4
	c5.2,8.4,11.2,16.2,16.8,24.4c3.5,5.1,7.1,10.2,10.6,15.3c0.2,0.3,0.3,0.6,1.1,0.4c0-10.3,0-20.7,0-31c-0.4-0.9,0.1-1.9-0.4-2.8
	c-1.3-2.5-3.7-2.4-5.9-2.7c-0.9-3.8-0.8-4.1,2.9-4.1c4.2,0,8.4,0,12.5,0c3.7,0,3.9,0.3,2.9,4.1c-5.2,0.1-6.4,1.3-6.5,6.3
	c0,15.2,0,30.4,0,45.6C265.5,482.5,263.5,482.1,261.5,482z"/>
<path class="st0" d="M580.4,429.8c-3.3-0.1-6,1.2-8.3,3.3c-4.9,4.5-9.3,9.4-13.8,14.2c-0.8,0.9-0.8,1.5-0.1,2.5
	c5.4,7.6,10.6,15.4,16,23c1.7,2.5,3.9,4.6,7.1,4.9c2,0.2,1.3,1.5,1.4,2.5c0.2,1.5-0.9,1.3-1.8,1.3c-3.5,0-7.1,0-10.6,0
	c-1.2,0-1.8-0.4-2.5-1.4c-5-7.9-10.2-15.6-15.3-23.4c-1-1.5-1.8-1.7-3.1-0.4c-1.8,1.7-2.9,3.4-2.7,6.1c0.3,3.8,0.1,7.6,0.1,11.4
	c0,2.4,0.8,3.9,3.4,3.5c1.8-0.2,2.4,0.5,2.4,2.3c0,1.9-1,1.9-2.4,1.9c-5.3,0-10.5,0-15.8,0c-1.4,0-2.3-0.1-2.1-1.8
	c0.1-1.3-0.2-2.6,1.8-2.4c1.4,0.1,2.6-0.3,3.4-1.6c0.4-0.6,0.2-1.2,0.2-1.9c0-13.5,0-27.1,0-40.6c0-0.6,0.1-1.3-0.2-1.9
	c-0.4-0.6-0.7-1.2-1.6-1.1c-2.7,0.1-4.1-1.1-3.9-4c0.2-0.8,0.8-0.6,1.3-0.6c6,0,12,0,18,0c0.5,0,1.1-0.2,1.3,0.6
	c-0.1,2.2-0.4,4-3.5,3.6c-1.5-0.2-2.5,0.9-2.5,2.7c0.1,6.2,0,12.5,0,19.2c2.9-3.1,5.8-5.5,8.3-8.6c2.8-3.5,6.5-6.3,9.2-9.9
	c1.3-1.7,1.8-3-1-3.2c-2.9-0.3-2.1-2.5-2.3-4.1c3.3-0.7,6.7-0.2,10-0.3c2.2-0.1,4.4,0,6.5,0C581.2,425.7,581.3,425.9,580.4,429.8z"
	/>
<path class="st0" d="M653,481.8c-2.1-4.3-3.3-9-4.9-13.4c-2.2-6.3-4.4-12.5-6.8-18.8c-1.9-5.2-3.3-10.5-5.8-15.5
	c-1-1.9-1.9-3.6-4.6-3.8c-2.4-0.1-1.6-2.5-1.9-4c0.3-0.7,0.9-0.5,1.4-0.5c6.3,0,12.7,0,19,0c0.5,0,0.9,0,1.3,0.3
	c0.3,2.4,0.1,4-3.1,4.1c-2.5,0-3,1.4-2,4.2c2.9,8.4,5.8,16.8,8.7,25.2c1.1,3.2,2.2,6.5,3.6,10.5c1.9-5.5,3.4-10.3,5.2-15
	c2.5-6.6,4.9-13.2,6.9-20c1-3.4,0.6-4-2.9-4.7c-0.8-0.2-1.7-0.6-2.6-0.5c-1-3.8-0.8-4,2.9-4c4.6,0,9.2,0,13.8,0c3.3,0,3.6,0.4,2.6,4
	c-3.7-0.3-6,1.8-7.4,4.8c-3.5,7.3-5.8,15.1-8.7,22.7c-3.1,8.1-5.9,16.2-8.9,24.4C657,482.2,655,482,653,481.8z"/>
<path class="st0" d="M408.8,481.6c-6.1,0-12.1-0.1-18.2-0.1c-1.3,0-2.2,0-2.1-1.8c0.1-1.5,0-2.6,2.1-2.4c1.5,0.1,2.9-0.1,3.2-2
	c0.2-0.4,0.2-0.9,0.2-1.3c0-13.4,0-26.7,0-40.1c0-0.5,0-1.1-0.2-1.6c0.2-1.6-0.6-2-2-2c-2.5,0-3.7-1.4-3.4-3.9
	c0.7-1.2,1.8-0.5,2.7-0.5c11,0,22.1,0,33.1,0c4,0,4,0,4.5,3.7c0,1.2,0.1,2.4,0.1,3.6c0.5,1.5-0.2,3.1,0.4,4.5
	c0.7,3.2-1.1,3.9-3.8,3.7c-0.4,0.2-0.7,0.2-1-0.1c-0.7-6.1-1.9-9-6.5-10.3c-4.5-1.3-9.3-0.7-13.9-0.7c-1.2,0-1,0.8-1,1.5
	c0,5.8,0,11.6,0,17.4c0,1.3,0.5,1.5,1.6,1.5c2.6-0.1,5.3,0,7.9-0.1c3.8-0.1,4.9-1.1,5.9-5c0.2-0.7,0.8-1.2,0.5-2
	c1-0.8,2.1-0.3,3.1-0.4c1-0.1,1.5,0.4,1.5,1.4c-0.2,6,0.3,12-0.3,17.9l0,0c-1.5,0.3-2.9,0.6-4.3-0.2c0.2-0.8-0.6-1.2-0.6-2
	c-0.1-3.3-1.7-4.7-5.2-5c-3.3-0.3-6.6-0.5-10,0c-0.4,6.4-0.1,12.8-0.1,19.2c0,1.8,1,2.8,2.9,2.6c1-0.1,2,0,3,0
	C409.4,478.7,409.6,480.2,408.8,481.6z"/>
<path class="st0" d="M593.1,469.8c5,0.4,7.2,3.7,6.8,8.5c-0.4,6-3.7,10.5-9.2,13.2c-2.6,1.3-2.8-1.3-3.7-2.3
	c-1.4-1.3,0.7-1.3,1.2-1.8c1.2-1.2,2.7-2.1,3.8-3.3c1.1-1.3,1-2.4-0.9-3.1c-3.3-1.1-4.6-3.4-3.9-7
	C587.6,471.7,590.3,469.8,593.1,469.8z"/>
<path class="st0" d="M382.9,477.3c-1.6,0.1-2.6-0.8-3.5-2.1c-1.2-1.9-2-4-3-5.9c-2.7-5.4-4.3-11.6-10.1-14.6c1.4-1,3-1.4,4.4-2
	c9.1-3.8,9.9-18.3,2.3-23.3c-3.2-2.1-6.9-2.7-10.6-3.4c-8.8-0.4-17.5-0.1-26.2-0.1c-0.1,0-0.3,0.2-0.4,0.3c-0.6,2.7,0.8,4.1,3.3,4.2
	c1.5,0.1,1.9,0.8,2.1,2c0.1,0.3,0.2,0.7,0.2,1.1c0,13.5,0,27,0,40.5c0,0.4-0.1,0.7-0.2,1c-0.3,1.9-1.5,2.7-3.3,2.5
	c-2-0.2-2,0.9-2.1,2.4c-0.2,2.1,1.1,1.8,2.3,1.8c5.9,0,11.8,0.1,17.6,0.1c0.8-1.4,0.6-2.8,0.1-4.3c-0.9,0-1.8,0-2.7,0
	c-1.8,0-2.7-0.8-2.7-2.6c0-6.1,0.1-12.1,0.1-18.2c2-0.5,4-0.4,6,0c3.1,0.5,5,2.4,6.5,5.1c3.2,5.7,5.4,11.8,7.6,17.8
	c0.6,1.7,1.3,2.1,2.9,2.1c3.7,0,7.4,0,11.1,0.1C385.5,478.4,385.3,478,382.9,477.3z M362.2,450.6c-3.6,1.3-7.3,1-11.1,1
	c-1.3,0-1.2-0.7-1.2-1.6c0-3.1,0-6.2,0-9.3c0-2.9,0.1-5.8,0-8.7c0-1.3,0.2-2,1.8-1.9c3.4,0.2,6.7-0.2,10,0.7
	c4.4,1.3,6.7,4.4,6.8,9.3C368.7,445.5,366.5,449.1,362.2,450.6z"/>
<path class="st0" d="M329.9,448.6c-0.9-7-3.6-12.9-8.6-17.8c-3.7-3.5-8.4-5.1-13.3-6c-2.4-0.3-4.7-0.3-7.1,0
	c-6.9,1-12.9,3.4-17.1,9.3c-3.1,4.5-5.1,9.3-5.4,14.8c-0.4,1.5,0.2,3.1-0.4,4.6v0c0.5,1.5,0,3.1,0.4,4.6c0.1,0.5,0.1,0.9,0.2,1.3
	c1.1,7.1,3.9,13.2,9.6,17.9c3.6,3,7.7,4.2,12.1,4.8c2.5,0.3,5.1,0.3,7.6,0c8.7-1.3,15.2-5.8,19-13.7
	C330,462.3,330.8,455.6,329.9,448.6z M317.5,470c-2.7,5.3-7,8.3-13,8.2c-6-0.1-10.5-3-12.9-8.5c-4.6-10.6-4.7-21.3-0.2-32
	c2.4-5.7,6.9-8.8,13.2-8.8c6.1,0,10.4,3.1,13.1,8.6c2.5,5.1,3.3,10.5,3.2,16.1C321,459.3,320.1,464.9,317.5,470z"/>
<path class="st0" d="M483,449c-0.8-6.8-3.2-12.6-7.9-17.5c-3.9-4-8.8-5.7-14-6.7c-2.4-0.3-4.7-0.3-7.1,0c-6.9,1-13,3.4-17.1,9.4
	c-3.1,4.4-5.2,9.3-5.4,14.8c-0.3,3.1-0.3,6.2,0,9.3c0,0.9-0.1,1.8,0.1,2.7c2.9,10.6,8.2,19.9,21.8,21.4c2.5,0.3,5.1,0.3,7.6,0
	c8.8-1.3,15.2-5.9,19-13.9C483,462.3,483.8,455.9,483,449z M470.3,470c-2.7,5.3-7,8.3-13.1,8.2c-5.9-0.1-10.3-2.9-12.7-8.3
	c-4.9-10.8-4.8-21.6-0.2-32.4c2.4-5.6,6.9-8.6,13.1-8.6c6,0,10.3,3,12.9,8.4c2.5,5.2,3.4,10.7,3.3,16.4
	C473.8,459.4,472.9,464.9,470.3,470z"/>
<path class="st0" d="M764,161.5c-1.8-2.6-2.8-5.5-4-8.4c-0.3-0.8-0.6-1.6-0.9-2.4l0,0c-1.1-3.3-2.1-6.5-1.8-10
	c0.1-0.9,0.2-1.8,0.8-2.6c2.3-2.8,4-3,6.9-1c0.4,0.2,0.7,0.6,1.1,0.7c2,1,3,3.1,4.3,4.8c0.9,1.1,1.6,2.3,2,3.7
	c3.1,7.6,5.1,15.6,5.4,23.8c0.2,5.2-0.1,10.5-0.9,15.7c-0.4,2.7-0.9,5.3-1.5,8c-1.4,5.4-3,10.7-7.6,14.4c-0.1,0.1-0.3,0.2-0.5,0.3
	c-0.3,0.2-0.6,0.3-0.9,0.4c-1.9,0.7-2.3,0.4-2.5-1.6c-0.3-3.1-0.6-6.1-1.2-9.2c-0.2-0.9-0.2-1.8,0.5-2.5c4.1-4.1,6.1-9.1,7-14.7
	c0.6-4,0.7-8,0.2-12c-0.1-0.9-0.5-1.5-1.1-2C767.1,165.6,765.5,163.6,764,161.5z"/>
<path class="st0" d="M668,141.2c-3,1.8-6.1,1.1-8.7-0.7c-7.5-5.2-11.3-12.7-11.3-21.8c0-5.9,4.7-8.8,10.2-6.6
	c7.5,3,11.2,9.1,13.1,16.6c0.5,2.9,0.6,5.8-0.5,8.7C670.2,138.9,669.4,140.3,668,141.2z"/>
<path class="st0" d="M733.1,482.1c-0.2-1,0.7-2.7-1.4-2.5c-3.4,0.3-4.8-2-5.7-4.6c-3.7-10.4-7.3-20.8-11-31.3
	c-1.8-5.3-4-10.5-5.4-15.9c-1-0.6-2.2-0.4-3.2-0.2c-3.2-0.2-4.3,1.8-4.9,4.5c-0.1,0.5-0.3,1-0.5,1.5c-4.2,10-7.7,20.2-11.6,30.3
	c-1.6,4-2.6,8.3-5.1,11.9c-1.5,2.2-3.2,4.1-6.3,3.6c-0.5,1.5-0.7,2.9,0.1,4.3c6.2,0,12.5,0,18.7,0c0.8-1.4,0.6-2.8,0.1-4.3
	c-0.6,0-1.3,0-1.9,0c-3.4-0.1-4.7-1.6-3.9-4.8c0.7-2.8,1.9-5.5,2.8-8.3c0.4-1.1,1.2-1.2,2.1-1.2c5.3,0,10.5,0,15.8,0
	c1,0,1.5,0.1,1.8,1.4c0.6,2.5,1.7,4.8,2.5,7.2c1.6,4.6,0.7,5.7-4.2,5.8c-0.6,1.4-0.8,2.8,0,4.2c6.5,0,12.9-0.1,19.3-0.1
	C732.6,483.7,733.3,483.4,733.1,482.1z M709.3,457.5c-3.8-0.1-7.6,0-11.4,0c-1.1,0-1.8-0.1-1.2-1.5c2.5-6.4,4.8-12.9,7.5-20
	c2.4,6.9,4.5,13.1,6.8,19.4C711.5,457.1,711,457.6,709.3,457.5z"/>
<path class="st0" d="M423.9,195.1c-0.7-3.4-1.4-6.9-2.2-10.3c-0.3-1.2,0.2-2.3-0.2-3.4c-0.4-0.9,0.2-1.9-0.3-2.8c0-0.3,0-0.7,0-1
	c-0.4-0.7-0.6-1.4-0.1-2.1c0.4-5.8,2-11.2,5.3-16.1c4-5.9,9.4-9.8,16.4-11.8c7.3-2.1,14.5-1.8,21.5,0.5c9.6,3,16.6,9.2,18.6,19.4
	c2,10.2-1.3,19.4-13.3,23c-4.2,1.3-8.2,0.7-12.4,0.6c-1.9-0.1-2.1-1.2-1.4-2.6c1.2-2.4,2.4-4.9,3.4-7.4c1.6-3.9,2.4-8,2.2-12.2
	c-0.3-7.1-5.7-11-13.1-8.3c-3.8,2.1-4.7,5.8-5.1,9.6c-0.8,6.8,1.2,13.3,3.4,19.6c2.8,8,5.4,16,6.2,24.4c1.2,12.3-1.4,23.8-9.2,33.8
	c-0.1,0.3-0.5,0.5-0.4,0.8c0,0.1,0.4-0.2,0.6-0.3c1.1-0.7,2.1-1.5,3.1-2.2c9.3-6.1,18.1-12.7,26.2-20.4c6.4-6.1,12.2-12.6,16.5-20.4
	c6.5-11.6,13.8-22.6,20.2-34.2c0.7-1.3,1.3-2.6,2-3.9c0.8-1.4,0.3-2-1.2-2.1c-2.1-0.1-4.2-0.1-6.3-0.3c-3.1-0.3-3.8-1.3-2.8-4.3
	c0.8-2.2,1.7-4.4,2.5-6.6c0.8-2.1,2.1-3,4.4-2.9c2.7,0.1,5.3,0.6,8.1,0.7c2.2,0,3.5-0.5,4.4-2.6c3.8-8.2,7.6-16.5,10.8-25
	c1.2-3.3,1.5-3.4,5-3.3c6,0.2,12,0.5,18,0.8c2.5,0.1,3,0.7,2.1,3.3c-2,5.7-4.2,11.4-6.6,17c-1.2,2.9-2.5,5.8-3.9,8.7
	c-0.8,1.6-0.9,2.5,1.4,2.8c6.8,1.1,13.7,1.4,20.6,1.4c1.7,0,3.4,0.3,5.2,0.4c1.7,0.1,2.3,1.3,2,2.9c-0.8,3.1-1.9,6.1-3,9
	c-0.4,1-1.2,1.6-2.4,1.5c-4.3-0.2-8.7-0.1-13-0.6c-5.6-1.2-11.3-0.8-17-1.1c-1.4-0.1-2.2,0.6-2.7,1.8c-1.1,2.7-2.8,5.1-3.8,7.8
	c-5.8,11.3-12.5,22.1-19.3,32.8c-7.2,11.3-15,22.3-21.3,34.2c-1.7,3.1-2.9,6.4-3.7,9.9c-0.5,2.2,0.3,3.5,2.4,4.1
	c3.6,1,7.2,0.6,10.7-0.8c5.4-2,10.2-5.1,15-8.2c9.8-6.4,18.4-14.4,26.9-22.5c9.6-9.1,17.9-19.1,24.3-30.9c3.8-7,7.5-14.1,11.6-21
	c3.6-6.2,6.3-12.9,9.1-19.4c5.9-14.1,10.3-28.6,12.9-43.6c1-5.9,2-12,1.9-18c-0.1-5.8,0.4-11.6-1.2-17.2c-0.8-3.3-1.4-6.7-2.2-10.1
	c-0.3-1.4,0-2.5,1.7-2.7c3-0.5,6.1-0.8,9.1-1.4c2.8-0.5,5.7-1.1,8.5-1.7c2.4-0.5,3.5,0.5,4.3,2.5c0.5,1.4,0.3,2.9,0.8,4.2
	c3,12.6,2.9,25.4,1.7,38.2c-0.8,9.3-2.8,18.4-5.2,27.5c-4.7,17.4-11.6,34-19.9,49.9c-0.2,0.5-0.5,1-0.6,1.5
	c-0.4,1.5-1.2,2.9-1.9,4.2c-7.6,13.6-16,26.8-24.8,39.6c-5.6,8.1-11.4,16-16.5,24.3c-1.8,2.9-3.6,5.9-4.7,9.2
	c-0.9,2.9-0.1,4,2.9,3.4c3.2-0.6,6.3-1.9,9.1-3.6c11.6-6.9,21.9-15.4,31.4-25c6.7-6.8,12.9-14,18.7-21.5c4-5.3,7.3-11.1,10.6-16.8
	c6.5-11.2,12.1-22.9,16.6-35.1c0.8-2.1,2-2.9,4.3-2.6c6,0.6,11.9,1.3,17.9,1.4c2.7,0.1,3.2,0.8,2.3,3.4c-2.1,6.2-4.9,12.1-7.7,18
	c-6.5,13.6-14.1,26.6-22.5,39.1c-7.9,11.9-16.7,23.1-25.2,34.5c-3,4.1-6,8.2-8.5,12.6c-0.8,1.4-2,3.1-1,4.5c1.1,1.4,3.1,1,4.8,0.4
	c6-2,11.2-5.5,16.4-9c12.8-8.7,24-19.1,34-30.8c5.6-6.6,9.6-14.3,13.8-21.8c4.2-7.3,7.5-15.1,11.4-22.6c2.7-5.1,5-10.5,6.4-16.1
	c1.5-6.1,3.7-10.7,11.2-9.2c4.1-0.8,8.2,0.1,12.4-0.4c2.2-0.3,3,0.6,2.5,2.9c-0.6,2.9-1.8,5.6-2.8,8.4c-0.2,0.5-0.5,1-0.8,1.5
	c-0.2,0.3-0.5,0.6-0.7,0.9c-0.2,0.3-0.7,0.6-0.4,1.1c0.1,0.1,0.4-0.2,0.6-0.4c0.3-0.4,0.5-0.8,0.7-1.2c0.2-0.5,0.4-0.9,0.7-1.4
	c2.4-2.5,4.6-5.3,7.3-7.6c3.8-3.3,8.1-5.6,13.3-5.7c2.5-0.1,4.5,1.3,6.7,1.8c5,2.6,7.5,7.3,9.4,12.2c3.1,7.8,3.8,16.1,2.7,24.3
	c-1.2,8.9-4.6,17.2-8.6,25.3c-7.6,15.3-17.8,28.8-28.6,41.9c-7.5,9.1-15.5,17.9-22.7,27.4c-1.3,1.7-2.3,3.5-3,5.5
	c-0.8,2.2,0,3.1,2.3,3.4c7.1,1,12.6-2.7,18.1-6.1c9.2-5.7,17-13.2,24.8-20.7c6.5-6.2,12.3-13.1,17.8-20.2
	c9.5-12.3,17.9-25.3,24.5-39.4c1.8-3.9,3.4-7.8,4.9-11.8c0.4-1,0.7-2.2,2-2.3c1.2,0,1.4,1.2,1.9,2c0.3,0.5,0.5,1.2,1,1.6
	c4.4,4.5,2.9,9,0.6,13.9c-6.1,13-13.3,25.4-21.6,37.1c-6,8.5-12.8,16.3-19.9,23.8c-6.7,7.1-13.8,13.7-21.3,19.9
	c-10.1,8.4-20.9,16-33.8,19.9c-2.8,0.8-5.7,1.4-8.8,0.5c-5.5-1.5-8.3-4.5-8.7-12.2c-0.5-9.8,3-18.7,7-27.4
	c5.3-11.6,13-21.7,20.5-31.9c10.8-14.6,21.5-29.3,29.6-45.7c3-6.1,5.3-12.5,5.9-19.4c0.4-4.5-1.6-6-5.9-4.3
	c-3.8,1.5-6.4,4.4-9.1,7.2c-6.9,7.4-12.7,15.6-18.7,23.7c-12.7,17.3-25.9,34.1-39.7,50.5c-9.2,11-18.9,21.6-27.9,32.8
	c-1.6,2-3.2,2.5-5.7,1.5c-4.3-1.8-8.9-2.9-13.3-4.6c-0.8-0.6-2-0.9-1.9-2.2c0-0.2,0.1-0.5,0.2-0.7c0.7-1,1.7-1.7,2.2-2.9
	c1.2-1.7,2.5-3.3,4.1-4.7c0.5-0.5,1.2-1,1.6-1.7c-0.7,0.2-1.2,0.8-1.8,1.1c-7.2,4.3-14.7,8-23.2,8.5c-3.9,0.2-7.2-1.6-9.6-4.7
	c-3.3-6.1-2.1-12.4-0.9-18.7c0.3-1.9,1.1-3.6,1.7-5.4c0.1-0.3,0.2-0.5,0.3-0.8c0.3-0.7,0.8-1.3,1-2.2c-1.2,0.5-1.8,1.4-2.6,2.1
	c-7.5,6.1-15.5,11.6-24.2,15.9c-3.8,1.9-7.9,3.2-12.2,3.5c-3.7,0.3-11.4-1.5-12.9-5.8c-2.9-6-2.3-12.2-0.7-18.4
	c0.8-3.3,1.9-6.5,3.3-10.2c-2.4,1.5-3.8,3.3-5.6,4.6c-5,4.2-10.3,8-15.7,11.6c-5.4,3.6-10.9,6.8-16.9,9.1
	c-5.8,2.3-11.9,3.4-18.1,1.6c-6.8-2-11.6-9.1-12.1-17.5c-0.2-4,0.1-8,0.6-12.3c-2.2,1.3-4,2.8-5.8,4.2c-8.7,7.2-18.4,12.8-28.3,18.2
	c-7.9,4.2-16.3,7-25,8.7c-7,1.4-14.2,2.2-21.4-0.1c-6.7-2.2-11.1-6.6-13.9-12.8c-0.6-1.9-0.2-4.2-2.3-5.4c-5.1,4.7-10,9.7-15.2,14.4
	c-6.6,5.9-13.5,11.4-21.9,14.4c-9.3,3.3-17.9,1.4-21.2-10.2c-1.5-5.2-0.7-10.5-0.5-16c-4.7,5.8-9.3,11.4-14.1,16.8
	c-5.3,6-11,11.6-16.9,16.9c-0.9,0.8-2,1.3-3,1.8c-4.1,2.4-7.9,5.5-12.4,7.2c-3.2,1.2-6.5,2.3-10,2.2c-4.1-0.1-7-1.9-9.1-5.4
	c-2.6-4.4-3.1-9.2-3.3-14.2c0-0.9,0.2-1.8-0.1-2.7c-0.8-0.3-0.9,0.4-1.2,0.8c-6.8,9.3-13.7,18.5-21.2,27.3c-0.4,0.4-0.7,0.9-0.8,1.4
	c-1.7,3.3-4.5,5.7-7,8.2c-5.7,5.8-11.9,11.1-19.7,14.2c-1.9,0.7-3.7,1.4-5.7,1.9c-9.6,1.5-15.1-4.9-18.1-13.4
	c-2.2-6.3-2.8-12.9-2.9-19.5c-0.1-7.2,0.2-14.4,0.9-21.5c0.8-8,2-16,3.6-23.9c2.3-11.3,5.1-22.5,8.6-33.4c1.7-4.5,3.3-9,4.4-13.6
	c3.3-10.6,7.7-20.7,12.3-30.8c1.9-4.1,3.8-8.2,5.9-12.3c0.8-1.5,0.6-2.4-1.4-2.2c-9.5,0.9-19,1.4-28.5,2.5c-0.5,0.1-1.1,0.1-1.6,0.4
	c-1,0.4-1.5,1.3-1.9,2.2c-3.6,7.6-7.5,15.1-10.9,22.8c-0.4,0.9-0.9,1.8-1,2.8c-3.6,8.8-7.8,17.4-11.5,26.1
	c-5.8,13.6-11.9,27.1-17.9,40.6c-0.4,1-0.9,2-1.6,2.9c-1.4,2.6-2.8,5.1-3.5,8c-4.4,10.5-9.3,20.9-14,31.3
	c-5.6,12.1-11.3,24.2-17.2,36.1c-5.2,10.5-10.4,20.9-15.8,31.3c-3.9,7.6-8,15-12.4,22.4c-4.9,8.2-10.4,16.1-16.3,23.7
	c-4.2,5.4-8.8,10.5-13.9,15.1c-2.4,2.1-4.9,4-7.7,5.6c-3,1.1-5.9,2.8-9.3,3c-5.4,0.4-9.4-2-12.6-6.2c-0.7-0.9-1.4-1.9-2-2.9
	c-4-7.1-5.1-14.8-5.7-22.7c-0.6-8.3-0.4-16.6,0.5-25c1-9.9,3.6-19.4,7.2-28.7c2.4-6.2,5.5-11.9,11.2-15.7c4.6-3,8.7-1.8,11.4,3.1
	c2.7,4.9,3.6,10.2,3.8,15.7c0.3,7.1,0.2,14.1-0.9,21.2c-1,5.6-1.9,11.2-3.9,16.6c-0.4,0.9-0.8,1.9-0.9,2.9c-0.2,1.8,0.4,2.5,2.3,2.2
	c4.4-0.6,7.7-3.1,10.7-6.1c6-5.8,10.3-12.9,14.2-20.2c7.5-14.1,14.1-28.6,20.2-43.4c1-2,2-3.9,2.5-6.1c2.8-6.5,5.2-13.1,7.9-19.6
	c3.7-9.1,6.9-18.5,10.5-27.7c7.4-19,14.5-38.1,22.4-56.8c0.7-1.8,1.4-3.6,2.2-5.2c1.6-3.3,3.2-6.7,4.2-10.2
	c2.2-5.8,4.8-11.5,7.3-17.2c3.7-8.4,7.2-16.8,11.5-24.9c1.8-3,3.2-6.2,4.8-9.4c0.1-0.2,0.2-0.5,0.3-0.7c2.7-5.2,5.7-10.3,8-15.7
	c3.8-7.2,7.6-14.4,11.9-21.3c1.5-1.8,2.5-3.9,3.6-5.9c9.3-16.2,19.7-31.8,31.7-46.1c1.7-2,3.5-3.9,5.1-6
	c12.5-14.1,26.9-25.6,44.6-33.3c-6-1.7-11.9-2.1-17.7-3.1c-7.6-1.2-15.4-1.5-23.1-1.6c-24.4-0.1-47.7,4.2-69.2,16.3
	c-13,7.3-23.8,17.2-32.9,29c-0.9,1.2-1.7,2.6-2.9,3.6c-1.8,1.4-2.5,3.6-3.8,5.4c-2.9,5.5-6,10.9-7.5,17c-0.1,0.6-0.2,1.1-0.4,1.7
	c-2.3,5.6-3.5,11.4-4.7,17.3c-1.3,6.7-1.5,13.5-0.4,20.2c0.7,4.6,2.3,8.9,5.7,12.4c2.9,2.9,6.2,4,10.1,3.5c2.5-0.3,5-0.7,7.4-1.7
	c12-4.6,21.1-12.9,29.2-22.6c3.9-4.6,6.9-9.8,9.9-15c4.6-8.1,6.8-16.9,7.7-26.2c0.6-5.9,0.1-11.8-0.6-17.6c-0.4-2.9,0.3-3.6,3.2-3.7
	c2.4-0.1,4.9-0.5,7.3-0.2c2,0.2,3.1,1,3.4,3.1c1.2,7.5,1.3,15,0,22.5c-1.8,10.3-4.5,20.4-9,29.8c-1.7,3.6-3.9,7-5.7,10.5
	c-6.7,11.4-15.4,21.2-25.5,29.8c-6,5.1-12.6,9.5-19.8,12.8c-1.4,0.6-2.9,1-4.3,1.6c-6.6,2.3-13.3,2.9-20.1,1.9
	c-9.6-1.4-16-7.3-20.3-15.7c-4.4-8.6-6.2-17.7-6.8-27.3c-0.5-9.1,0.4-18.1,2.5-27c2.2-8.1,4-16.3,7.1-24.1c1.6-3,2.5-6.4,4.2-9.4
	C83,56.9,90.4,46.5,99.3,37.2c0.5-0.5,0.9-1.1,1.2-1.8c8.3-8.8,18.1-15.6,28.8-21.2C143.8,6.7,159.4,2.8,175.5,1
	c12.6-1.5,25.2-1.2,37.7,0c18.1,1.8,35.9,5.9,53.4,10.9c6.7,1.9,13.3,4.3,20,6c2.2,0.6,4.3,0.7,6.4,0.4c3.4-0.4,6.7-0.3,10,0.7
	c6.4,1.9,8.6,8.7,5.4,14.5c-1.5,2.6-3.9,3.2-6.8,2.9C298,36,294.5,35,291,34.1c-5.2-1.2-10.3-0.6-15.2,1.1
	c-8.6,2.9-15.9,8-22.6,13.9c-15.6,13.8-28.2,30.2-39.6,47.5c-6.8,10.2-13.1,20.7-19,31.4c-2.6,4.8-5.1,9.6-7.8,14.3
	c-1.2,2.1-0.9,2.6,1.5,2.6c6.6,0.1,13.2-0.3,19.8-0.7c2.5-0.1,5.1,0.1,7.6-0.2c1.5-0.2,2.2-0.6,2.9-1.8c8.2-14,17-27.7,26.8-40.7
	c7-9.3,14.2-18.3,22.3-26.6c4.4-4.6,8.7-9.3,13.5-13.4c10.2-8.7,20.8-16.6,33.3-21.8c5.3-2.2,10.8-4.1,16.4-4.7
	c10.3-1.1,20.6-1,29.2,5.9c5.2,4.2,8.5,9.5,9.3,16.3c0.8,7.4-5.7,13.2-12.9,10.4c-2.9-1.2-5-3.1-6.9-5.5c-1.9-2.5-3.3-5.2-4.8-7.9
	c-3.4-6-5.1-5.7-11.7-5.1c-4.8,0.5-9,2.8-13,5.3c-9.1,5.7-17,12.7-24.3,20.5c-9.5,10.2-18,21.1-25.9,32.6c-0.6,0.8-1.2,1.6-1.9,2.3
	c-2.6,2.6-4.3,5.8-6.1,8.9c-0.1,0.2-0.3,0.5-0.5,0.7C250,137.9,240,157.1,231.3,177c-6.9,15.8-12.7,32-17.8,48.5
	c-4.1,13.4-7.4,26.9-9.8,40.7c-1.5,8.4-2.6,16.8-2.9,25.4c-0.1,3.8,0.3,7.6,1.1,11.3c0.7,3.4,2.1,4,5.1,2.1
	c9.7-6.6,16.9-15.6,23.8-24.8c8-10.6,15.7-21.5,23-32.7c4.9-7.5,9.1-15.5,13.2-23.5c5.9-11.5,12.3-22.7,18.9-33.7
	c8.6-14.2,17.3-28.4,25.6-42.7c1.2-2.1,2.8-2.8,5.2-3c8.1-0.5,16.1,0.6,24.1,0.4c0.8,0,1.5-0.1,1.9,0.6c0.5,0.9-0.1,1.8-0.5,2.5
	c-2.6,4.1-5.1,8.1-7.7,12.2c-8.5,13.2-16.8,26.5-25.1,39.9c-7.5,12.2-14.7,24.6-21.5,37.3c-1.5,2.9-2.8,5.9-4.7,8.6
	c-2.5,4.4-4.9,8.8-6.5,13.7c-1.8,5.2-4.4,10.2-4.6,15.9c-0.1,1.4-0.4,2.8,0.9,3.7c1.3,0.9,2.3,0,3.5-0.5c6-2.3,9.9-7.3,14.3-11.5
	c7.1-6.8,13.2-14.4,19.2-22.2c6.4-8.3,12.7-16.5,18.6-25.2c0.5-0.7,1-1.3,1.6-1.9c1.4-1.1,2.4-2.6,3-4.3c2.4-4.4,5.5-8.3,8.1-12.5
	c3.2-5.2,6.4-10.5,9.3-15.9c2.8-5.1,5.9-9.9,8.7-15c3.9-6,7.1-12.4,10.6-18.6c1-1.8,1.9-3.7,3.1-5.4c1.2-1.1,2.7-0.9,4.1-0.8
	c7.4,0.6,14.9,0.7,22.3,1.1c3.1,0.2,3.6,1,2,3.6c-8.2,13.3-16.6,26.4-25,39.6c-8.1,12.8-16.3,25.6-23.9,38.7
	c-4.3,7.4-8.3,14.9-11.8,22.7c-1.6,3.5-2.8,7.1-3.5,10.9c-0.3,1.6-0.8,3.5,0.7,4.6c1.5,1.1,3.4,0.3,4.9-0.6
	c6.9-4.3,13.2-9.3,18.8-15.2c3.5-3.7,7.1-7.2,10.5-11c1.7-1.9,2.7-3.8,3.2-6.4c1.7-8.2,5.1-15.7,11.3-21.6c0.3-0.5,0.8-0.8,1.3-0.9
	c2.9-1.6,5.9-3.1,9.2-3.6c1.6-0.4,3.1,0.1,4.7,0c1.3-0.1,2.5,0.2,3.4,1.1c3.2,1.9,5.4,4.6,6.3,8.4c0.7,0.4,1,1.1,0.8,1.9
	c0.1,3.9-0.3,7.7-2,11.4c-1.6,3.4-3.6,6.4-7.1,8.3c-3.5,1.8-7,1.9-10.4,0.4c-1.5-0.7-2-0.1-2.2,1.1c-0.9,4.1-1.1,8.2,0.6,12
	c2.1,4.5,6.3,6.4,11,7c7.4,1,13-2.5,17.3-8c8.2-10.6,10.5-22.6,7.9-35.7c-0.8-4.1-1.7-8.1-2.2-12.3c-0.3-1.6-0.7-3.1-1-4.7
	C423.9,197.5,423.6,196.4,423.9,195.1z"/>
<g>
	<path class="st0" d="M265.6,417.9c0-0.2-0.2-0.3-0.2-0.5c-1.5-0.7-3.1,0.1-4.5-0.5c-3.5,0-5.4-2.2-6.7-5
		c-2.4-5.2-4.6-10.5-6.7-15.7c-7.5-18.4-14.9-36.8-22.3-55.2c-0.3-0.8-0.5-1.8-1.5-2.1c-0.9,0.4-2,0-3,0.4c-0.9,0-1.7,0.1-2.5,0.1
		c-0.9,0.5-2,0-2.9,0.4c-2.2,0.1-2.5,2-3.2,3.4c-1,2.2-1.8,4.6-2.8,6.8c-2.1,4.9-4.4,9.6-6.5,14.5c-2.2,5.1-4.3,10.3-6.5,15.5
		c-2.2,5-4.3,10.1-6.6,15c-2.5,5.2-4.3,10.8-7.5,15.7c-1.7,2.6-3.9,4.6-6.8,5.9c-1.3,0.6-1.2,0-1-0.9c0.4-0.9-0.1-2,0.4-2.9
		c0.1-0.7,0.1-1.4,0.1-2c0.4-0.9-0.1-2,0.4-2.9c0.1-0.7,0.1-1.3,0.1-2c0.4-0.9-0.1-2,0.4-2.9c0.1-0.7,0.1-1.3,0.1-2
		c0.3-0.9,0.3-1.8-0.1-2.7c-1.7,0.2-3.3-0.5-4.9-0.6c-0.9,0-1.9-0.6-2.7,0.3c-0.5,1.9-1.1,3.8-1.6,5.6c-2.6,8.6-8.8,12.7-15.7,12.7
		c-3.3,0.5-6.7,0.2-10,0.2c-3.8,0-7.6,0.4-11.3-0.2c0-3-0.1-6-0.1-9c0-18.1,0.1-36.2,0.1-54.3c0.4-1.1-0.1-2.4,0.4-3.5
		c0.1-3.4,2.5-3.1,4.8-3.1c2-0.8,4.2,0.5,6.1-0.7c-0.1-1-0.2-2-0.1-3c0.3-2.2-0.4-2.9-2.7-2.9c-9.7,0.1-19.4,0.1-29,0.1
		c-6,0-6,0-6.2,5.9c2,1,4.1-0.1,6.1,0.6c4.1,0.8,4.9,1.7,4.8,5.7c0.3,0.7,0.2,1.4,0.2,2.1c0,18.2,0,36.5,0,54.7
		c0,0.7,0.1,1.5-0.2,2.1c0.1,3.7-0.8,5.1-3.7,5.7c-1.3,0.6-2.7-0.1-3.9,0.4c-2.8-0.4-3.6,1-3.2,3.5c0.1,0.8,0,1.6,0,2.4
		c0.9,0.8,1.9,0.4,2.9,0.4c30.8,0,61.6,0,92.4,0c5.7,0,5.7,0,5.3-5.8c0-0.2-0.1-0.3-0.2-0.5l0,0c-1.6-0.7-3.4,0.2-5.1-0.5
		c-5.6,0-6-3.2-5.1-6.8c1.3-4.9,3.4-9.5,5.5-14.1c0.4-0.2,0.9-0.2,1.3-0.2c10.1,0,20.2,0,30.3,0c0.4,0,0.9,0,1.3,0.3
		c1.8,5.2,4.2,10.3,5.7,15.6c1,3.5,0.4,4.6-3.3,5.1c-1.6,0.7-3.4-0.2-5,0.5c-0.6,1.1-0.1,2.3-0.3,3.5c-0.4,2.2,0.5,2.9,2.8,2.9
		c9.7-0.1,19.4,0,29,0C266.1,423.6,266.1,423.6,265.6,417.9z M227.9,384.9c-7.5,0-15.1-0.1-22.6,0c-2.2,0-1.9-0.7-1.3-2.2
		c4.2-9.8,8.5-19.6,12.9-30c2.6,6.4,4.9,12.4,7.3,18.3c1.6,4,3.2,8.1,4.9,12.1C229.9,384.7,229.4,384.9,227.9,384.9z"/>
	<polygon class="st0" points="229,417.8 229,417.8 229,417.8 	"/>
	<path class="st0" d="M265.7,417.7L265.7,417.7C265.7,417.7,265.7,417.7,265.7,417.7L265.7,417.7z"/>
</g>
<path class="st0" d="M503.6,430.3c-2.1,0.4-1.6,2.1-1.6,3.4c0,12.2,0,24.5,0,36.8c0,2.1-0.3,4.2,0.2,6.2c3.3,0.5,6.6,0.4,9.9,0
	c5.6,0.3,8.9-2,10.8-7.4c0.3-0.9,0.9-2,0.8-2.8c-0.1-2.6,1.4-2.4,3.1-2.3c0.7,0.5,2.4-0.4,2,1.6c0,0.9-0.1,1.7-0.2,2.6
	c-0.5,1.1,0,2.3-0.4,3.4c0,0.8-0.1,1.7-0.2,2.5c-0.4,0.9,0,2-0.4,3c-0.1,0.6-0.2,1.2-0.2,1.9c-0.2,1.8-1,2.4-2.9,2.4
	c-12.6-0.1-25.1,0-37.7,0c-0.7-1.4-0.7-2.8,0-4.2c5,0.5,6.1-1,6.1-5.7c-0.1-12.2,0-24.3,0-36.5c0-1.8,0-3.6-1.7-4.8
	c-1.1-0.5-2.3,0-3.4-0.4c-0.4,0-0.7-0.1-1.1-0.1c-0.5-0.8-0.2-1.8-0.3-2.7c-0.1-1,0.4-1.4,1.5-1.4c6.7,0,13.4,0,20.2,0.1
	c0.1,0,0.3,0.2,0.4,0.3c-0.7,1.2,1.3,3.5-1.6,3.8C505.8,430.4,504.6,429.7,503.6,430.3z"/>
</svg>
