<svg xmlns="http://www.w3.org/2000/svg" viewBox="0 0 837.02 491.82"><defs><style>.cls-1{fill:#000714;}.cls-2{fill:#010815;}.cls-3{fill:#010714;}.cls-4{fill:#020915;}.cls-5{fill:#020916;}.cls-6{fill:#fcfcfc;}.cls-7{fill:#fefefe;}.cls-8{fill:#000712;}.cls-9{fill:#231f20;}</style></defs><g id="Layer_2" data-name="Layer 2"><g id="Layer_0_Image" data-name="Layer 0 Image"><path class="cls-1" d="M396.45,410.06c0,5,1.29,6.62,5.4,6.88,1.75.83,3.77-.48,5.48.72v5.59c-.4.75-1.12.45-1.7.46q-14.38,0-28.77,0c-.53,0-1.09.11-1.53-.33v-5.86c1.83-.83,3.86.12,5.71-.56,2.68-.35,4.41-1.7,5-4.37.53-2.44,1.44-4.83,1.07-7.4a4.73,4.73,0,0,0,.24-2.14V355a4.87,4.87,0,0,0-.24-2.14c.09-4.24-.42-5.08-3.88-6.29-1.28-.61-2.69.06-4-.42H378c-.9.42-1.93-.13-2.8.41a5.5,5.5,0,0,0-4.31,1.55,2.56,2.56,0,0,1-1.74,1.7c-3.35,3.71-4.31,8.54-5.76,13.05-6.31,19.48-12.43,39-18.56,58.55-.58,1.86-1.26,2.9-3.46,2.64a36,36,0,0,0-6,0c-1.51.07-2-.53-2.46-2-3.6-11.85-7.36-23.66-11.05-35.48q-3.86-12.35-7.69-24.77c-1.4.31-1.17,1.56-1.43,2.34q-9.9,29.06-19.68,58.17c-.42,1.24-1,1.93-2.46,1.77a44.45,44.45,0,0,0-4.62,0c-5,0-5.22.06-6.32-4.66-2.67-11.36-6.33-22.45-9.24-33.74-2.83-10.95-6.13-21.79-9.41-32.63-1.06-3.48-3.16-6.25-7.32-6.43-1-.43-2,0-3-.39-2.05-1.49-.92-3.63-.83-5.39.07-1.35,1.8-.67,2.74-.68,10.34-.06,20.67,0,31-.1,2.34,0,3.34.47,2.93,2.93a17.57,17.57,0,0,0,0,3c-1.81,1-3.85-.09-5.7.63-1.73,0-3.53-.14-4.09,2.13a4.09,4.09,0,0,0,0,3c.66,5.35,2.59,10.39,3.92,15.57,2.9,11.21,6.11,22.35,9.2,33.51a18.14,18.14,0,0,0,.85,2c2-6.06,3.9-11.62,5.74-17.19q7.13-21.46,14.24-42.93a8.21,8.21,0,0,1,.95-1.57c3.78,0,7.58-.6,11.34.32,1.58,6.78,4,13.31,6,19.94,3.92,12.67,7.95,25.3,11.91,38,.24.76.23,1.84,1.19,1.82s.84-1.27,1.05-1.95c2.63-8.7,5.1-17.44,7.79-26.12,2.09-6.8,4.38-13.53,5.81-20.51.61-3-1.11-4.93-5.17-5.91-1.83-.73-3.88.44-5.66-.67.38-1.86-.81-4.49.52-5.42s3.81-.38,5.78-.39c15.85,0,31.7,0,47.56,0a3.76,3.76,0,0,1,3.39,1.53q10.75,13.68,21.69,27.2,10.66,13.26,21.44,26.45c1.64,2,3,4.28,5,6,1,.15.91-.63.91-1.23,0-13.35.11-26.71-.07-40.06a1.73,1.73,0,0,0-.16-.52c.7-3.15-.16-6.25-.68-9.27-.43-2.5-3-3.06-5.2-3.55-.9-.51-1.94,0-2.84-.4s-2.31.51-2.55-.81a13.34,13.34,0,0,1,0-4.84c.16-.84,1.44-.43,2.2-.43,9.91,0,19.82,0,29.73,0a14.45,14.45,0,0,1-.08,6l-2.13.11c-.9.42-1.94-.13-2.81.41-4.09.29-5.85,2.68-5.94,8.06a6.7,6.7,0,0,0-.22,3q0,31.8,0,63.59c0,.93.46,2-.42,2.82a23.43,23.43,0,0,0-4.88,0c-4.32.86-6.76-1.46-9.11-4.59-4.11-5.46-8.48-10.73-12.75-16.08q-9.33-11.69-18.65-23.37L399.2,359.34c-.78-1-1.53-2-2.29-2.95-.82.06-.69.7-.69,1.2,0,17.32-.07,34.64,0,52A1.73,1.73,0,0,0,396.45,410.06Z"/><path class="cls-1" d="M584.94,367.39c-1.14-6.11-3-11.83-7.88-16.16a28.94,28.94,0,0,0-12.51-6.1,25.87,25.87,0,0,0-15.2,1c-8,2.88-12.61,8.88-15.35,16.57A30.33,30.33,0,0,0,531.73,374c-.57,1.48.08,3.06-.4,4.54,0,1.46,0,2.93,0,4.39.46,1.29-.17,2.68.4,4,.67,13.25,8.89,26.64,22.84,29.69a16.52,16.52,0,0,0,4.26.32,13.85,13.85,0,0,0,5.48,0c11.22-.84,19.37-6.33,24.53-16.29.56-1.07,1.61-1.91,1.61-3.27,0-.9.61-.72,1.12-.59a9.45,9.45,0,0,1,1.24.5c5.74,2.33,5.79,2.36,2.71,7.94a35.12,35.12,0,0,1-20.84,17.28c-3,.95-6,1.43-9,2.12-1,.4-2,0-3,.4-3.54,0-7.13.4-10.6,0-8-1-15.52-3.49-22.09-8.46a39.4,39.4,0,0,1-11.55-13.85,37.45,37.45,0,0,1-3.75-13.18c-.47-1.15.1-2.41-.43-3.54v-6.66c.53-1.12,0-2.36.42-3.47a42.4,42.4,0,0,1,10.33-24c6.15-7.18,14.39-10.86,23.53-12.64l3.44-.67c.92-.41,2,.1,2.88-.41,9-.41,17.53,1.7,26.06,4,3.58,1,6.74-.24,9.9-1.34,2-.71,2.18-.06,2.17,1.69,0,8.55,0,17.11,0,25.67-2.31.64-4.67.19-7,.27A1.11,1.11,0,0,1,584.94,367.39Z"/><path class="cls-2" d="M261.86,482.25c-3.23-3.56-5.58-7.76-8.35-11.66-7.75-10.93-15.28-22-22.92-33-.07-.1-.29-.1-.58-.19a5.83,5.83,0,0,0-.16,1c0,11.2,0,22.39.09,33.59.06,5.31.74,5.81,6.06,5.82a4.85,4.85,0,0,1-.08,4.3H218.19a5.24,5.24,0,0,1-.12-4.33c4.25.07,5.24-.72,6-4.8a2.07,2.07,0,0,0,.24-1V433.27a2.36,2.36,0,0,0-.22-1c-1.33-1.94-3.34-2.09-5.43-2.05-.73-.89-.27-1.91-.35-2.87-.07-.76.31-1.18,1.11-1.18,4.71,0,9.42-.09,14.12.07.1,0,.19.29.29.44,5.24,8.37,11.22,16.24,16.79,24.38,3.5,5.12,7.09,10.16,10.62,15.25.21.31.33.63,1.07.42v-31c-.45-.88.14-1.92-.44-2.8-1.25-2.46-3.67-2.4-5.94-2.7-.93-3.82-.77-4.05,2.95-4.05h12.52c3.71,0,3.89.25,2.94,4.05-5.2.13-6.44,1.25-6.46,6.28,0,15.19,0,30.39,0,45.59C265.87,482.81,263.86,482.39,261.86,482.25Z"/><path class="cls-1" d="M580.4,429.79a11.37,11.37,0,0,0-8.32,3.28c-4.91,4.45-9.35,9.37-13.83,14.24-.83.9-.84,1.5-.1,2.54,5.38,7.63,10.64,15.35,16,23,1.74,2.46,3.93,4.57,7.12,4.87,2,.19,1.27,1.51,1.38,2.51.17,1.46-.89,1.27-1.79,1.27-3.54,0-7.09,0-10.63,0a2.53,2.53,0,0,1-2.52-1.44c-5-7.85-10.2-15.6-15.28-23.41-1-1.48-1.78-1.7-3.14-.4-1.76,1.69-2.93,3.35-2.7,6.06a109.11,109.11,0,0,1,.06,11.44c0,2.44.77,3.87,3.44,3.55,1.76-.21,2.38.46,2.39,2.28s-1,1.93-2.43,1.92c-5.27,0-10.54-.05-15.81,0-1.38,0-2.26-.1-2.09-1.84.12-1.27-.21-2.6,1.85-2.37a3.33,3.33,0,0,0,3.43-1.57,3.21,3.21,0,0,0,.24-1.86q0-20.31,0-40.61a3.15,3.15,0,0,0-.25-1.86c-.36-.61-.66-1.17-1.57-1.14-2.69.11-4.14-1.11-3.87-3.95.19-.75.82-.56,1.32-.56q9,0,18,0c.49,0,1.12-.18,1.31.57-.1,2.21-.41,4-3.46,3.65-1.46-.17-2.55.86-2.54,2.7.06,6.23,0,12.47,0,19.24,2.93-3.13,5.85-5.55,8.26-8.56,2.81-3.52,6.46-6.29,9.22-9.89,1.33-1.73,1.83-3-1-3.24s-2.1-2.46-2.31-4.15c3.31-.73,6.66-.18,10-.31,2.18-.08,4.36,0,6.54,0C581.17,425.74,581.3,425.93,580.4,429.79Z"/><path class="cls-3" d="M341.13,432.26c-.2-1.21-.64-1.9-2.13-2-2.56-.09-3.92-1.46-3.34-4.2.15-.11.29-.3.44-.3,8.75,0,17.5-.24,26.25.11,3.68.7,7.38,1.28,10.62,3.4,7.66,5,6.8,19.52-2.27,23.34a19,19,0,0,0-4.41,2c5.85,3.06,7.48,9.21,10.15,14.62,1,2,1.82,4,3,5.94a3.61,3.61,0,0,0,3.47,2.09c2.42.64,2.58,1.06,1.62,4.26-3.7,0-7.4-.12-11.11-.08-1.6,0-2.29-.36-2.92-2.1a120,120,0,0,0-7.6-17.83c-1.48-2.65-3.41-4.53-6.47-5.06a14.32,14.32,0,0,0-6,0q0,9.09-.09,18.17c0,1.81.88,2.62,2.66,2.57.9,0,1.81,0,2.71,0a4.87,4.87,0,0,1-.08,4.28l-17.62-.1c-1.21,0-2.52.37-2.34-1.77.13-1.52.11-2.67,2.13-2.42a2.71,2.71,0,0,0,3.34-2.47,2.74,2.74,0,0,0,.22-1.05q0-20.22,0-40.45A2.76,2.76,0,0,0,341.13,432.26Z"/><path class="cls-3" d="M653.05,482.1c-2.12-4.31-3.33-9-4.94-13.44-2.24-6.26-4.43-12.53-6.75-18.76-1.92-5.17-3.26-10.55-5.76-15.5-1-1.88-1.93-3.64-4.59-3.8-2.4-.15-1.6-2.48-1.91-4,.29-.69.91-.48,1.41-.48h19a2.11,2.11,0,0,1,1.3.27c.28,2.37.09,4-3.13,4.09-2.5,0-3,1.38-2,4.17,2.86,8.42,5.81,16.82,8.71,25.23,1.12,3.23,2.21,6.47,3.58,10.49,1.9-5.52,3.43-10.31,5.19-15,2.47-6.62,4.93-13.24,6.93-20,1-3.38.63-4-2.91-4.67a8.5,8.5,0,0,0-2.56-.51c-1-3.78-.77-4,2.92-4h13.83c3.35,0,3.62.42,2.59,4-3.7-.33-6,1.75-7.42,4.76-3.51,7.32-5.78,15.13-8.65,22.7C664.84,465.67,662,473.83,659,482A15.3,15.3,0,0,1,653.05,482.1Z"/><path class="cls-3" d="M406.14,481.58c-6.07,0-12.15-.09-18.22-.08-1.32,0-2.25,0-2.14-1.79.09-1.5,0-2.65,2.1-2.43,1.46.15,2.91-.13,3.22-2a2.63,2.63,0,0,0,.23-1.32V433.87a3.78,3.78,0,0,0-.24-1.6c.2-1.56-.6-2-2-2-2.53,0-3.71-1.37-3.44-3.91.68-1.17,1.8-.54,2.68-.54,11-.05,22.08,0,33.12,0,4,0,4,0,4.48,3.74l.15,3.63c.48,1.48-.17,3.06.4,4.53.69,3.21-1.11,3.9-3.77,3.73a.74.74,0,0,1-1-.11c-.68-6.06-1.91-9-6.5-10.31s-9.26-.72-13.92-.72c-1.18,0-1,.84-1,1.52,0,5.81,0,11.63,0,17.44,0,1.28.52,1.49,1.61,1.46,2.63-.07,5.27,0,7.9-.07,3.79-.08,4.92-1.1,5.88-5,.16-.67.75-1.23.54-2,1-.79,2.09-.26,3.14-.39s1.48.36,1.45,1.41c-.17,6,.33,12-.27,17.92h0c-1.45.34-2.9.64-4.31-.17.23-.76-.57-1.17-.59-2-.09-3.29-1.69-4.73-5.17-5a38.61,38.61,0,0,0-10,.05c-.43,6.39-.15,12.79-.13,19.19,0,1.82,1,2.81,2.91,2.65,1-.08,2,0,3,0A4.88,4.88,0,0,1,406.14,481.58Z"/><path class="cls-4" d="M505.74,430.35c-2.1.39-1.6,2.09-1.61,3.4q-.06,18.38,0,36.76c0,2.07-.29,4.16.23,6.21a37.87,37.87,0,0,0,9.92,0c5.61.27,8.91-2,10.79-7.4a10.12,10.12,0,0,0,.85-2.82c-.07-2.58,1.43-2.43,3.12-2.3.66.51,2.42-.35,2,1.56l-.15,2.59c-.54,1.09,0,2.31-.41,3.41l-.15,2.5c-.44.94,0,2-.39,3-.08.63-.16,1.25-.23,1.88-.18,1.78-.95,2.41-2.92,2.4-12.56-.09-25.12,0-37.67,0a4.51,4.51,0,0,1,0-4.25c5,.45,6.12-1,6.08-5.72-.11-12.17,0-24.33,0-36.5,0-1.81,0-3.61-1.74-4.78-1.08-.55-2.3.05-3.39-.41l-1.07-.1c-.54-.84-.21-1.77-.29-2.66-.09-1.05.43-1.43,1.46-1.42,6.72,0,13.44-.05,20.16.06.15,0,.29.2.43.32-.69,1.21,1.29,3.54-1.61,3.81C508,430.39,506.78,429.73,505.74,430.35Z"/><path class="cls-5" d="M593.06,469.75c5,.35,7.19,3.68,6.85,8.52-.42,6-3.65,10.49-9.24,13.21-2.63,1.28-2.76-1.33-3.73-2.26-1.36-1.29.7-1.3,1.24-1.82,1.21-1.16,2.68-2.07,3.78-3.31s1-2.42-.94-3.06c-3.34-1.09-4.56-3.38-3.9-7C587.56,471.72,590.26,469.76,593.06,469.75Z"/><path class="cls-6" d="M386.39,352.64a22.06,22.06,0,0,1,.31,2.67q0,23.52,0,47a24.23,24.23,0,0,1-.3,2.67Q386.39,378.82,386.39,352.64Z"/><path class="cls-6" d="M537.32,431.4a3.66,3.66,0,0,1,.47,2.6q0,19.56,0,39.11a3.74,3.74,0,0,1-.46,2.61Q537.33,453.56,537.32,431.4Z"/><path class="cls-6" d="M426.11,429.47c-.77-3.7-.77-3.7-4.88-3.7q-16.14,0-32.27,0c-1.06,0-2.19-.29-3.12.53.62-1.39,1.87-.84,2.86-.84,11.22,0,22.43,0,33.65,0C426.25,425.45,426.25,425.45,426.11,429.47Z"/><path class="cls-6" d="M223.88,431.84a3.35,3.35,0,0,1,.45,2.35q0,17.7,0,35.39a5.64,5.64,0,0,1-.44,2.92Q223.87,452.16,223.88,431.84Z"/><path class="cls-6" d="M580.4,429.79c.55-4,.55-4.08-3.37-4-5.38.12-10.77-.39-16.14.27.2-.17.4-.49.61-.49,6.06-.06,12.15-.39,18.18,0C582.12,425.79,581.22,428.17,580.4,429.79Z"/><path class="cls-6" d="M150.92,416.24c-6.39,1-12.82.23-19.23.42-.69,0-1.61.51-2.12-.48Z"/><path class="cls-6" d="M233.57,426.26c-4.74-1.07-9.55-.21-14.32-.47-.72,0-.94.39-.92,1,0,1,.1,2,.15,3-1.53-3.24-1-4.33,2.27-4.33,3.5,0,7,0,10.49,0C232.07,425.47,233.1,425.1,233.57,426.26Z"/><path class="cls-6" d="M322.48,341.09c-3.77-.74-7.58-.15-11.37-.32C314.92,340.32,318.73,339.69,322.48,341.09Z"/><path class="cls-6" d="M514.26,476.76a36.61,36.61,0,0,1-9.92,0Z"/><path class="cls-6" d="M584.38,367.44c2.54,2.06,5.38.82,8.11.71-2.47,1.21-5,.49-7.58.41C584.45,368.55,584.39,367.9,584.38,367.44Z"/><path class="cls-6" d="M692.47,416.78a17,17,0,0,1-8.44,0Z"/><path class="cls-6" d="M384.53,481.58c.32-1.74,1.22-3.71-1.62-4.26C385.56,477.48,386.05,478.79,384.53,481.58Z"/><path class="cls-6" d="M380.49,416.78c-1.79.86-3.73.21-5.57.56C376.66,416.06,378.63,417,380.49,416.78Z"/><path class="cls-6" d="M626.83,417.37c-1.7-.35-3.5.2-5.14-.58C623.4,417,625.24,416.1,626.83,417.37Z"/><path class="cls-6" d="M233.78,416.78c-1.63.73-3.37.34-5.05.51C230.32,416.19,232.1,416.94,233.78,416.78Z"/><path class="cls-6" d="M203.1,417.27c-1.69-.12-3.43.23-5.06-.48C199.73,416.92,201.5,416.22,203.1,417.27Z"/><path class="cls-6" d="M489.06,477.33a6.72,6.72,0,0,0,0,4.25A3.09,3.09,0,0,1,489.06,477.33Z"/><path class="cls-6" d="M406.35,481.58a7.43,7.43,0,0,0,.08-4.28A3.28,3.28,0,0,1,406.35,481.58Z"/><path class="cls-6" d="M355.62,481.58a7.88,7.88,0,0,0,.08-4.28A3.27,3.27,0,0,1,355.62,481.58Z"/><path class="cls-6" d="M217.87,477.28a5.65,5.65,0,0,0,.12,4.31C216.81,480.19,217,478.74,217.87,477.28Z"/><path class="cls-6" d="M426.65,437.63a12,12,0,0,1-.4-4.53C427.16,434.54,426.56,436.12,426.65,437.63Z"/><path class="cls-6" d="M657.12,416.79c-1.49.68-3.06.41-4.62.42C654,416.25,655.58,416.89,657.12,416.79Z"/><path class="cls-6" d="M597.6,416.79c-1.43.84-3,.21-4.53.55C594.45,416.13,596.08,417,597.6,416.79Z"/><path class="cls-6" d="M265.26,417.3c-1.52-.2-3.11.24-4.57-.5C262.22,416.93,263.84,416.18,265.26,417.3Z"/><path class="cls-6" d="M110,416.78a7.82,7.82,0,0,1-4,.41C107.26,416.31,108.65,416.87,110,416.78Z"/><path class="cls-6" d="M531,465.81c.18-1.57-1.35-1-2-1.56C529.91,464.46,531.93,463.27,531,465.81Z"/><path class="cls-6" d="M514.43,375.84a7.78,7.78,0,0,1-.41,3.45C514.08,378.13,513.58,376.9,514.43,375.84Z"/><path class="cls-6" d="M514,386a8.11,8.11,0,0,1,.41,3.49C513.57,388.38,514.09,387.14,514,386Z"/><path class="cls-6" d="M170.91,397.54c-.88.19-1.84-.34-2.66.33C169,396.63,169.94,397,170.91,397.54Z"/><path class="cls-6" d="M261.48,432.48a3.94,3.94,0,0,1,.43,2.79C261.14,434.43,261.55,433.42,261.48,432.48Z"/><path class="cls-7" d="M350.33,440.8c0-2.91.06-5.82,0-8.73,0-1.34.24-2,1.77-1.88,3.35.18,6.73-.22,10,.73,4.42,1.28,6.7,4.39,6.8,9.34.11,5.25-2.1,8.85-6.32,10.34-3.6,1.27-7.34,1-11.06,1-1.28,0-1.19-.74-1.19-1.58Z"/><path class="cls-1" d="M330.18,448.6c-.92-7-3.56-12.92-8.64-17.77-3.71-3.54-8.36-5.06-13.26-6a29.86,29.86,0,0,0-7.07,0c-6.88,1-12.93,3.37-17.1,9.33a27.78,27.78,0,0,0-5.38,14.77c-.44,1.51.16,3.11-.4,4.62v0c.55,1.51-.05,3.11.4,4.62.08.45.15.89.22,1.34,1.13,7.09,3.93,13.23,9.61,17.93a22.83,22.83,0,0,0,12.1,4.81,32.92,32.92,0,0,0,7.62,0c8.69-1.3,15.16-5.82,19-13.71A34.26,34.26,0,0,0,330.18,448.6ZM317.55,470c-2.71,5.33-7,8.27-13.05,8.21a13.36,13.36,0,0,1-12.85-8.49,38.79,38.79,0,0,1-.16-31.95c2.43-5.7,6.91-8.82,13.18-8.82s10.42,3.09,13.07,8.59A35.21,35.21,0,0,1,321,453.64,34.36,34.36,0,0,1,317.55,470Z"/><path class="cls-1" d="M483,449.05c-.84-6.78-3.18-12.61-7.92-17.51-3.86-4-8.75-5.72-14-6.72a30.4,30.4,0,0,0-7.07,0c-6.87.95-12.95,3.38-17.07,9.35a27.8,27.8,0,0,0-5.39,14.75,50.25,50.25,0,0,0,0,9.26,12.42,12.42,0,0,0,.14,2.67c2.93,10.57,8.2,19.86,21.77,21.41a33.48,33.48,0,0,0,7.62,0c8.79-1.27,15.23-5.86,19.05-13.86A34.17,34.17,0,0,0,483,449.05ZM470.27,470c-2.71,5.33-7,8.26-13.06,8.19a13.26,13.26,0,0,1-12.7-8.27,38.57,38.57,0,0,1-.17-32.43,13.39,13.39,0,0,1,13.08-8.56c6,0,10.29,3,12.94,8.36a34.85,34.85,0,0,1,3.32,16.36A34.24,34.24,0,0,1,470.27,470Z"/><path class="cls-8" d="M764,161.47a46.3,46.3,0,0,1-4-8.36c-.26-.82-.62-1.62-.9-2.43h0c-1.09-3.26-2.13-6.51-1.79-10a5,5,0,0,1,.74-2.55c2.26-2.76,4-3,6.87-1a3.92,3.92,0,0,0,1.11.74c2,1,3,3.12,4.3,4.8a12.66,12.66,0,0,1,2,3.65,71.32,71.32,0,0,1,5.37,23.8,83.78,83.78,0,0,1-.86,15.73,79.23,79.23,0,0,1-1.52,8c-1.38,5.42-3,10.71-7.6,14.44a2,2,0,0,1-.46.34,7.7,7.7,0,0,1-.92.43c-1.87.66-2.28.35-2.45-1.61-.27-3.07-.6-6.13-1.16-9.17a2.54,2.54,0,0,1,.55-2.51c4.13-4,6.1-9.13,7-14.72a40.56,40.56,0,0,0,.16-11.95,2.6,2.6,0,0,0-1.13-2A19.39,19.39,0,0,1,764,161.47Z"/><path class="cls-8" d="M668,141.19c-3.05,1.84-6.1,1.15-8.69-.66a25.71,25.71,0,0,1-11.36-21.79c0-5.88,4.67-8.8,10.2-6.61,7.5,3,11.25,9.06,13.07,16.59a16.63,16.63,0,0,1-.45,8.65A7.28,7.28,0,0,1,668,141.19Z"/><path class="cls-2" d="M733.07,482.16c-.18-1,.73-2.67-1.38-2.5-3.42.28-4.75-2-5.68-4.62q-5.53-15.62-11-31.26c-1.85-5.29-4-10.48-5.43-15.92a4.48,4.48,0,0,0-3.24-.16c-3.23-.23-4.34,1.81-4.86,4.51a7.84,7.84,0,0,1-.48,1.54c-4.19,10-7.68,20.25-11.62,30.34-1.57,4-2.6,8.28-5.06,11.9-1.47,2.17-3.24,4.08-6.3,3.62a5.23,5.23,0,0,0,.12,4.31h18.73a4.76,4.76,0,0,0,.07-4.27c-.63,0-1.27,0-1.9,0-3.42-.15-4.73-1.58-3.92-4.84.7-2.83,1.88-5.54,2.81-8.32.37-1.1,1.16-1.18,2.13-1.17q7.9,0,15.79,0c1,0,1.45.15,1.75,1.36.61,2.47,1.7,4.82,2.53,7.25,1.57,4.58.74,5.69-4.21,5.75a4.41,4.41,0,0,0,0,4.24c6.45,0,12.9-.09,19.35-.07C732.62,483.83,733.31,483.52,733.07,482.16Zm-23.81-24.65c-3.81-.11-7.63-.05-11.44,0-1.11,0-1.75-.08-1.22-1.49,2.45-6.42,4.81-12.85,7.46-20,2.41,6.89,4.54,13.14,6.78,19.35C711.48,457.14,711.05,457.56,709.26,457.51Z"/><path class="cls-8" d="M423.94,195.12c-.73-3.42-1.36-6.86-2.23-10.25-.3-1.18.19-2.32-.24-3.43-.4-.91.21-1.93-.3-2.83,0-.33,0-.66,0-1a2.06,2.06,0,0,1-.13-2.14,31.36,31.36,0,0,1,5.26-16.07,28.63,28.63,0,0,1,16.38-11.76,36.72,36.72,0,0,1,21.51.45c9.56,3,16.58,9.21,18.56,19.42s-1.26,19.38-13.3,23c-4.18,1.28-8.25.7-12.38.59-1.88-.05-2.08-1.24-1.38-2.63,1.22-2.44,2.37-4.9,3.41-7.42a28.76,28.76,0,0,0,2.22-12.19c-.27-7.14-5.69-11-13.11-8.26-3.77,2.1-4.69,5.84-5.13,9.6-.81,6.85,1.22,13.3,3.41,19.65,2.74,8,5.37,16,6.19,24.4,1.19,12.33-1.44,23.79-9.18,33.77-.14.26-.54.45-.42.75.06.14.39-.16.6-.28,1.09-.67,2.09-1.46,3.11-2.23a186.72,186.72,0,0,0,26.16-20.37c6.4-6.09,12.16-12.6,16.53-20.41,6.48-11.55,13.8-22.61,20.22-34.21.7-1.27,1.26-2.62,2-3.89s.26-2-1.22-2.11c-2.09-.13-4.18-.11-6.26-.3-3.13-.28-3.78-1.3-2.76-4.32.76-2.24,1.7-4.41,2.52-6.62a4,4,0,0,1,4.37-2.9c2.7.08,5.35.65,8.06.68,2.17,0,3.48-.52,4.44-2.62,3.81-8.25,7.64-16.47,10.78-25,1.23-3.32,1.48-3.43,5-3.28,6,.25,12,.54,18,.76,2.5.09,3,.69,2.07,3.26-2,5.73-4.19,11.42-6.57,17-1.24,2.92-2.53,5.83-3.92,8.69-.78,1.61-.86,2.48,1.43,2.84a134,134,0,0,0,20.6,1.39c1.73,0,3.43.31,5.15.41s2.35,1.3,2,2.9a78.45,78.45,0,0,1-3,9,2.23,2.23,0,0,1-2.36,1.51c-4.34-.24-8.7-.12-13-.59-5.62-1.2-11.33-.84-17-1.09a2.62,2.62,0,0,0-2.74,1.79c-1.13,2.66-2.78,5.08-3.82,7.79-5.77,11.34-12.49,22.1-19.32,32.83-7.2,11.32-15,22.27-21.32,34.16a42.54,42.54,0,0,0-3.7,9.91c-.55,2.23.3,3.49,2.39,4.09a16.5,16.5,0,0,0,10.67-.74c5.4-2,10.21-5.12,15-8.25,9.85-6.44,18.41-14.45,26.89-22.49,9.56-9.08,17.94-19.11,24.27-30.88,3.77-7,7.48-14.11,11.58-21,3.63-6.21,6.31-12.85,9.1-19.44a201.59,201.59,0,0,0,12.87-43.64c1-6,2-12,1.92-18-.12-5.75.37-11.59-1.16-17.25-.82-3.33-1.36-6.73-2.15-10.06-.34-1.44,0-2.47,1.73-2.74,3-.47,6.08-.79,9.08-1.37,2.83-.54,5.66-1.07,8.47-1.67,2.43-.51,3.55.46,4.28,2.51.51,1.38.33,2.88.83,4.24,3,12.61,2.88,25.4,1.74,38.17a158.76,158.76,0,0,1-5.23,27.46,248.46,248.46,0,0,1-19.93,49.94,6.81,6.81,0,0,0-.63,1.5,19.88,19.88,0,0,1-1.9,4.2c-7.6,13.64-16,26.77-24.84,39.61-5.57,8-11.37,16-16.48,24.32a41.88,41.88,0,0,0-4.66,9.2c-.9,2.9-.06,4,3,3.4a28.4,28.4,0,0,0,9.08-3.61,157.1,157.1,0,0,0,31.4-25A233.59,233.59,0,0,0,615,214.56c4-5.27,7.28-11.06,10.58-16.78a223.32,223.32,0,0,0,16.59-35.06c.77-2.12,2-2.88,4.34-2.65,5.95.59,11.88,1.3,17.87,1.41,2.72.05,3.24.81,2.36,3.41a160.64,160.64,0,0,1-7.73,18A321.83,321.83,0,0,1,636.51,222c-7.93,11.85-16.68,23.09-25.18,34.52a110.63,110.63,0,0,0-8.51,12.62c-.77,1.41-2,3.14-1,4.52s3.14,1,4.83.39c6-2,11.23-5.45,16.4-9a171.18,171.18,0,0,0,34-30.77c5.58-6.55,9.58-14.28,13.85-21.77,4.18-7.33,7.56-15.06,11.37-22.58a72.29,72.29,0,0,0,6.37-16.1c1.53-6.08,3.69-10.72,11.2-9.23,4.1-.78,8.24.12,12.36-.45,2.21-.3,3,.62,2.51,2.89a55.88,55.88,0,0,1-2.85,8.41,8.29,8.29,0,0,1-.8,1.5c-.2.32-.45.63-.68.93s-.67.62-.38,1.06c.1.14.42-.17.59-.36a6.75,6.75,0,0,0,.7-1.19,9.27,9.27,0,0,1,.71-1.36c2.43-2.53,4.61-5.34,7.28-7.64,3.84-3.29,8.11-5.59,13.35-5.74,2.47-.07,4.46,1.28,6.71,1.8,5,2.63,7.45,7.31,9.42,12.24A47.41,47.41,0,0,1,751.43,201c-1.21,8.94-4.64,17.23-8.64,25.28-7.61,15.28-17.79,28.81-28.61,41.92-7.54,9.15-15.51,17.94-22.72,27.38a19.88,19.88,0,0,0-3,5.47c-.8,2.23,0,3.1,2.3,3.42,7.08,1,12.61-2.68,18.13-6.11,9.22-5.73,17-13.25,24.84-20.66a177.9,177.9,0,0,0,17.81-20.17,207.59,207.59,0,0,0,24.52-39.42q2.7-5.76,4.9-11.75c.37-1,.68-2.23,2-2.27s1.43,1.23,1.94,2a9.07,9.07,0,0,0,1,1.62c4.38,4.46,2.92,9,.61,13.88a240.89,240.89,0,0,1-21.58,37.16,217,217,0,0,1-19.87,23.79,245.19,245.19,0,0,1-21.28,19.9c-10.13,8.41-20.92,16-33.77,19.86a15.47,15.47,0,0,1-8.77.53c-5.5-1.5-8.29-4.48-8.7-12.16-.52-9.84,3.05-18.69,7-27.39,5.32-11.63,13-21.75,20.55-32,10.78-14.6,21.52-29.26,29.57-45.66,3-6.14,5.32-12.51,5.89-19.41.37-4.54-1.6-6-5.91-4.31-3.77,1.48-6.42,4.35-9.09,7.21-6.91,7.37-12.72,15.61-18.67,23.73q-19,25.92-39.69,50.51c-9.2,11-18.91,21.56-27.85,32.76-1.59,2-3.22,2.54-5.66,1.52-4.34-1.81-8.94-2.9-13.32-4.6-.82-.59-2-.89-1.94-2.25a2.29,2.29,0,0,1,.21-.72c.69-1,1.75-1.67,2.15-2.86a25.54,25.54,0,0,1,4.1-4.71,8.27,8.27,0,0,0,1.55-1.72,7.16,7.16,0,0,0-1.78,1.12c-7.23,4.27-14.68,8-23.24,8.53-3.9.22-7.15-1.6-9.57-4.74-3.35-6.1-2.07-12.43-.87-18.73a46.27,46.27,0,0,1,1.69-5.4,4.1,4.1,0,0,1,.26-.77,9.06,9.06,0,0,0,1-2.24,10.31,10.31,0,0,0-2.56,2.11,133.18,133.18,0,0,1-24.16,15.93A33.43,33.43,0,0,1,550,280.2c-3.72.29-11.43-1.48-12.92-5.75-2.86-6-2.26-12.16-.71-18.36a89.32,89.32,0,0,1,3.27-10.23c-2.36,1.52-3.79,3.32-5.58,4.64a165.28,165.28,0,0,1-15.69,11.63,88.11,88.11,0,0,1-16.92,9.15c-5.83,2.28-11.93,3.35-18.06,1.57-6.82-2-11.59-9.1-12.09-17.47a67.92,67.92,0,0,1,.6-12.28,49,49,0,0,0-5.75,4.24c-8.72,7.15-18.38,12.82-28.26,18.15a88.45,88.45,0,0,1-25,8.72c-7.05,1.39-14.18,2.21-21.37-.1-6.73-2.17-11.07-6.58-13.86-12.84-.56-1.91-.2-4.21-2.33-5.44-5.15,4.73-10,9.72-15.24,14.38-6.58,5.89-13.52,11.42-21.87,14.36-9.28,3.26-17.87,1.38-21.17-10.21-1.49-5.22-.69-10.45-.5-16-4.69,5.8-9.32,11.4-14.13,16.82a212.32,212.32,0,0,1-16.9,16.91,11.88,11.88,0,0,1-3,1.81c-4.13,2.42-7.87,5.52-12.42,7.24-3.25,1.21-6.5,2.3-10,2.22a10.19,10.19,0,0,1-9.1-5.44c-2.58-4.4-3.05-9.23-3.26-14.16a9.42,9.42,0,0,0-.08-2.7c-.76-.3-.92.42-1.18.78-6.75,9.33-13.73,18.48-21.18,27.29a3.49,3.49,0,0,0-.8,1.4c-1.69,3.28-4.51,5.66-7,8.2-5.74,5.78-11.95,11.09-19.68,14.18a41.3,41.3,0,0,1-5.66,1.89c-9.58,1.53-15.12-4.86-18.07-13.38a61.94,61.94,0,0,1-2.94-19.55,181.58,181.58,0,0,1,.94-21.5c.84-8,2-16,3.62-23.88a306.7,306.7,0,0,1,8.64-33.41,127.7,127.7,0,0,0,4.41-13.65c3.26-10.61,7.72-20.74,12.29-30.84,1.87-4.15,3.81-8.25,5.9-12.28.76-1.49.63-2.44-1.4-2.24-9.48.93-19,1.45-28.46,2.47a4.3,4.3,0,0,0-1.57.41,3.8,3.8,0,0,0-1.88,2.23c-3.56,7.64-7.47,15.12-10.87,22.84a9.35,9.35,0,0,0-1,2.81c-3.65,8.8-7.79,17.39-11.54,26.13-5.84,13.59-11.86,27.09-17.89,40.59a16.74,16.74,0,0,1-1.56,2.85,36.26,36.26,0,0,0-3.52,8c-4.42,10.54-9.26,20.9-14,31.3q-8.32,18.16-17.17,36.13c-5.17,10.49-10.39,20.94-15.81,31.3-4,7.57-8,15.05-12.4,22.36A236.39,236.39,0,0,1,51.56,417.2a111.57,111.57,0,0,1-13.93,15.14,44.63,44.63,0,0,1-7.7,5.57c-3.05,1.11-5.9,2.74-9.27,3-5.43.36-9.44-2-12.56-6.19-.7-.94-1.4-1.89-2-2.89C2.09,424.74.93,417,.35,409.06a141.6,141.6,0,0,1,.46-25A108.17,108.17,0,0,1,8,355.43c2.35-6.22,5.53-11.89,11.21-15.66,4.59-3,8.71-1.81,11.36,3.07s3.56,10.24,3.81,15.74a99.87,99.87,0,0,1-1,21.16c-.94,5.6-1.85,11.22-3.89,16.56a12.33,12.33,0,0,0-.89,2.86c-.24,1.82.42,2.5,2.28,2.24,4.37-.61,7.69-3.14,10.72-6.07,6-5.81,10.3-12.87,14.21-20.16a474.87,474.87,0,0,0,20.15-43.36,26.35,26.35,0,0,0,2.47-6.11c2.81-6.47,5.23-13.1,7.87-19.64,3.68-9.15,6.89-18.47,10.45-27.66,7.37-19,14.53-38.06,22.39-56.84.74-1.75,1.36-3.56,2.23-5.25a69.41,69.41,0,0,0,4.24-10.2c2.21-5.84,4.75-11.54,7.29-17.23,3.73-8.35,7.16-16.84,11.47-24.92,1.81-3,3.23-6.23,4.76-9.39a5.12,5.12,0,0,1,.34-.71c2.71-5.23,5.72-10.29,8-15.72,3.82-7.18,7.58-14.4,11.94-21.28a34.8,34.8,0,0,0,3.58-6,310.91,310.91,0,0,1,31.73-46.1c1.69-2,3.53-3.89,5.11-6,12.46-14.13,26.91-25.61,44.6-33.35-6-1.66-11.9-2.14-17.68-3.07a151.13,151.13,0,0,0-23.08-1.56c-24.37-.15-47.74,4.17-69.21,16.32a107.74,107.74,0,0,0-32.88,29,27.92,27.92,0,0,1-2.87,3.63c-1.8,1.41-2.52,3.59-3.8,5.37-2.94,5.47-6,10.87-7.48,17a7.86,7.86,0,0,1-.39,1.66,93,93,0,0,0-4.68,17.27,57.13,57.13,0,0,0-.42,20.24c.72,4.61,2.29,8.89,5.73,12.35a11.26,11.26,0,0,0,10.09,3.47,27.23,27.23,0,0,0,7.38-1.71c12-4.58,21.08-13,29.18-22.58,3.89-4.6,6.88-9.8,9.91-15,4.59-8.13,6.83-17,7.69-26.17A80,80,0,0,0,161.41,64c-.36-2.87.34-3.64,3.16-3.74a56.06,56.06,0,0,1,7.33-.24c2,.2,3.08,1,3.43,3.1a66.88,66.88,0,0,1,0,22.45c-1.81,10.33-4.5,20.38-9,29.86-1.73,3.61-3.89,7-5.71,10.54a117.91,117.91,0,0,1-25.46,29.78,84.31,84.31,0,0,1-19.77,12.76c-1.41.64-2.91,1-4.33,1.56A41.65,41.65,0,0,1,90.87,172c-9.59-1.43-16-7.26-20.29-15.66-4.38-8.56-6.2-17.72-6.77-27.27a91.56,91.56,0,0,1,2.5-27c2.18-8.09,4-16.27,7.08-24.1,1.59-3,2.53-6.36,4.17-9.38A116.66,116.66,0,0,1,99.28,37.21a7.42,7.42,0,0,0,1.21-1.79,106.53,106.53,0,0,1,28.8-21.17C143.8,6.78,159.36,2.87,175.47,1a175.33,175.33,0,0,1,37.7,0C231.3,2.84,249,6.91,266.54,11.89c6.7,1.92,13.28,4.27,20,6a17.48,17.48,0,0,0,6.43.43A25.63,25.63,0,0,1,303,19c6.4,1.9,8.63,8.74,5.42,14.53-1.44,2.61-3.93,3.19-6.8,2.9A83.11,83.11,0,0,1,291,34.2a27.31,27.31,0,0,0-15.23,1.06c-8.57,2.89-15.88,8-22.59,13.86C237.52,62.9,225,79.33,213.51,96.6q-10.17,15.32-19,31.44c-2.6,4.78-5.1,9.61-7.8,14.34-1.22,2.15-.94,2.63,1.51,2.65,6.6,0,13.19-.3,19.79-.67,2.52-.14,5.05.06,7.59-.23a3.39,3.39,0,0,0,3-1.84,420.37,420.37,0,0,1,26.76-40.66A275.63,275.63,0,0,1,267.66,75c4.42-4.55,8.71-9.26,13.54-13.36C291.39,53,302.05,45,314.52,39.85a60.67,60.67,0,0,1,16.42-4.71c10.3-1.14,20.57-1,29.23,5.94,5.18,4.17,8.55,9.49,9.26,16.34.77,7.4-5.66,13.24-12.88,10.41a15.48,15.48,0,0,1-6.86-5.49,68.7,68.7,0,0,1-4.77-7.94c-3.36-6-5.09-5.72-11.7-5.11-4.83.45-9,2.84-13,5.34a121.43,121.43,0,0,0-24.32,20.45A275.49,275.49,0,0,0,270,107.66a15.47,15.47,0,0,1-1.88,2.33c-2.58,2.57-4.25,5.78-6.09,8.87a3.93,3.93,0,0,1-.47.68A424.12,424.12,0,0,0,231.28,177a464.49,464.49,0,0,0-17.81,48.5,340.08,340.08,0,0,0-9.83,40.67,184.55,184.55,0,0,0-2.91,25.36,46.92,46.92,0,0,0,1.09,11.34c.71,3.43,2.1,3.94,5.15,2.06,9.7-6.57,16.85-15.62,23.8-24.82,8-10.63,15.68-21.55,23-32.7A244.27,244.27,0,0,0,266.93,224c5.85-11.47,12.26-22.66,18.93-33.7,8.59-14.22,17.31-28.37,25.64-42.74,1.23-2.12,2.74-2.81,5.24-3,8.08-.5,16.1.63,24.15.4.75,0,1.52-.1,1.93.65.52.94-.06,1.77-.54,2.53-2.58,4.06-5.11,8.15-7.72,12.19-8.53,13.18-16.83,26.51-25.09,39.87q-11.31,18.28-21.5,37.26a93,93,0,0,1-4.67,8.62,71.23,71.23,0,0,0-6.45,13.68c-1.84,5.19-4.35,10.2-4.59,15.86-.06,1.35-.44,2.79.93,3.75s2.32,0,3.51-.49c6-2.28,9.92-7.3,14.32-11.51,7.08-6.77,13.24-14.45,19.21-22.22,6.35-8.27,12.74-16.54,18.61-25.17a10.11,10.11,0,0,1,1.57-1.88,9.31,9.31,0,0,0,3-4.27c2.38-4.37,5.46-8.29,8.07-12.53,3.22-5.23,6.37-10.5,9.3-15.91,2.76-5.09,5.93-9.93,8.68-15,3.89-6,7.06-12.46,10.64-18.66a53.08,53.08,0,0,1,3.13-5.41c1.22-1.12,2.72-.89,4.15-.77,7.43.6,14.88.72,22.32,1.11,3.11.17,3.63,1,2,3.61-8.19,13.29-16.61,26.43-25,39.61-8.12,12.8-16.3,25.56-23.86,38.71-4.26,7.41-8.32,14.9-11.82,22.69a51.2,51.2,0,0,0-3.51,10.86c-.31,1.57-.84,3.52.66,4.6s3.42.32,4.87-.59A96,96,0,0,0,361.82,251c3.49-3.67,7.11-7.24,10.55-11a12.79,12.79,0,0,0,3.25-6.36c1.72-8.19,5.07-15.67,11.29-21.58a2.11,2.11,0,0,1,1.33-.91,25.59,25.59,0,0,1,9.26-3.56c1.55-.35,3.12.06,4.68,0a4,4,0,0,1,3.42,1.08,13,13,0,0,1,6.3,8.35,1.6,1.6,0,0,1,.79,1.89,25.07,25.07,0,0,1-1.95,11.35c-1.56,3.45-3.64,6.44-7.13,8.28a11.39,11.39,0,0,1-10.42.39c-1.55-.67-2,0-2.24,1.16-.86,4-1.14,8.19.64,12,2.12,4.51,6.34,6.38,11,7,7.4,1.06,13-2.46,17.3-8,8.16-10.61,10.5-22.61,7.92-35.68-.8-4.08-1.72-8.14-2.16-12.29-.33-1.55-.67-3.12-1-4.67A3.79,3.79,0,0,1,423.94,195.12Z"/><polygon class="cls-1" points="229.16 417.68 229.16 417.67 229.17 417.67 229.16 417.68"/><path class="cls-1" d="M265.66,417.68Z"/><path class="cls-1" d="M265.91,418.16c0-.17-.17-.32-.25-.48-1.46-.71-3.09.1-4.55-.49-3.5.05-5.41-2.19-6.68-5-2.35-5.2-4.58-10.46-6.72-15.74q-11.19-27.57-22.29-55.19c-.33-.81-.48-1.75-1.49-2.07-.94.44-2,0-3,.39l-2.54.15c-.92.46-2,0-2.91.39-2.16.12-2.54,2-3.19,3.44-1,2.25-1.78,4.58-2.77,6.82-2.13,4.85-4.4,9.64-6.51,14.5-2.23,5.13-4.31,10.32-6.52,15.46s-4.29,10.06-6.62,15c-2.47,5.23-4.29,10.76-7.46,15.67a15.45,15.45,0,0,1-6.75,5.88c-1.26.58-1.21,0-1-.88.41-.93-.09-2,.4-2.89.05-.67.09-1.35.14-2,.42-.93-.08-2,.4-2.9.05-.67.09-1.34.14-2,.42-.93-.07-2,.4-2.92,0-.66.09-1.33.14-2a4,4,0,0,0,0-2.73c-1.7.2-3.29-.53-5-.64-.91-.05-1.88-.62-2.66.33-.54,1.88-1.06,3.76-1.62,5.64-2.55,8.6-8.81,12.72-15.71,12.74a63.15,63.15,0,0,1-10,.19c-3.78,0-7.57.39-11.34-.25,0-3-.11-6-.11-8.95q0-27.17.1-54.32c.42-1.13-.09-2.36.37-3.51.06-3.38,2.51-3.1,4.77-3.1,2-.77,4.2.51,6.13-.73a16.39,16.39,0,0,1-.11-3c.31-2.21-.42-2.88-2.74-2.85-9.68.14-19.36.06-29,.06-6,0-6,0-6.16,5.87,2,1,4.13-.09,6.11.63,4.1.77,4.88,1.7,4.79,5.74a5,5,0,0,1,.24,2.14v54.69a5,5,0,0,1-.24,2.14c.09,3.74-.77,5.07-3.71,5.74-1.27.57-2.67-.07-3.95.41-2.79-.39-3.64.95-3.22,3.53a14.09,14.09,0,0,1,0,2.43c.87.76,1.92.37,2.87.37q46.2,0,92.41,0c5.71,0,5.71,0,5.26-5.77a1.78,1.78,0,0,0-.21-.5h0c-1.64-.67-3.42.16-5.06-.48-5.62,0-6-3.22-5.07-6.78a80.89,80.89,0,0,1,5.52-14.07,3.37,3.37,0,0,1,1.33-.2h30.3a2,2,0,0,1,1.29.28c1.81,5.25,4.19,10.28,5.71,15.64,1,3.52.42,4.61-3.33,5.14-1.64.65-3.43-.23-5.05.5-.56,1.11-.1,2.32-.28,3.46-.35,2.25.54,2.88,2.8,2.85,9.68-.12,19.36-.05,29-.05C266.43,423.93,266.44,423.93,265.91,418.16Zm-38-33.24c-7.54,0-15.08-.09-22.62,0-2.16,0-1.91-.73-1.28-2.17,4.25-9.81,8.46-19.63,12.93-30l7.34,18.3c1.62,4,3.17,8.09,4.9,12.08C229.91,384.73,229.41,384.93,227.94,384.92Z"/><path class="cls-9" d="M837,399.33l-.11-.61c-1-.87-2.4-.05-3.49-.63a18,18,0,0,1-2.44,0,1.71,1.71,0,0,0-2.12,1.55,38,38,0,0,1-1.71,6.14c-2,6.89-7.3,10.85-14.6,10.85-7.19.53-14.4,0-21.6.29-2.32.09-2.67-.76-2.65-2.78.09-9.24,0-18.49.05-27.74a3.83,3.83,0,0,1,.27-2.38A126,126,0,0,1,802.9,384c1.31.47,2.72-.14,4,.4,4.85.34,7.79,2.58,8.14,7.72.16,2.41,1.4,3.84,4.23,3.2a17.15,17.15,0,0,1,3.79,0,1.14,1.14,0,0,0,.41-.95c0-9.23,0-18.47,0-27.7a1.47,1.47,0,0,0-.32-.73c-1.92,0-3.84,0-5.76,0-1.23,0-1.64.06-1.82,1.67-.72,6.24-2.93,9.71-10.17,9.28a115,115,0,0,1-16.81,0c-.59-9.5-.1-19-.26-28.53,0-1,.51-1.24,1.38-1.22,6.84.14,13.69-.27,20.53.23,1.48-.52,2.86.29,4.17.59,3.77.86,7.26,2.39,9.07,6.24a22.79,22.79,0,0,1,2.51,7.55c.13,1.5.88,2.23,2.49,2a13.23,13.23,0,0,1,2.18,0c1.13-.47,2.37,0,3.52-.36a.94.94,0,0,0,.07-1.22c0-.48-.07-1-.11-1.45-.47-.92,0-2-.39-2.9-.06-.83-.11-1.66-.16-2.49-.45-1,0-2-.41-3,0-.69-.09-1.37-.13-2.06-.51-.9,0-1.94-.4-2.85,0-.85-.11-1.71-.16-2.56-.47-.92,0-2-.39-2.9,0-2-1.4-1.65-2.63-1.65H763.36a13.46,13.46,0,0,0,0,6l3.27.1c1.07.48,2.29-.17,3.35.44,2.55.81,2.74,2.92,2.75,5.07.08,11.54.18,23.08.19,34.62q0,12.94-.21,25.89c0,2-.05,4.19-2.72,4.81-.87.58-1.92,0-2.8.43-6.59,1.34-10.88-1.49-13.71-7.25-2.12-4.32-4.43-8.55-6.68-12.81-3-5.64-6.87-10.44-12.61-13.56-.3-.38-.69-.76,0-1.1,2.28-.77,4.59-1.46,6.83-2.32,8.23-3.16,12.42-9.36,12.86-17.91.44-8.34-3.19-14.42-11-18.09-4.54-2.14-9.42-2.78-14.21-3.84-1.15-.45-2.41.08-3.55-.41a7.25,7.25,0,0,1-.8.09q-21.09-.06-42.18-.13c-.69,0-1.85-.36-2,.36a15.35,15.35,0,0,0-.13,4.83c.22,1.42,1.73.44,2.53.88,1.27.48,2.67-.19,3.93.42,1.4.17,2.51.69,2.83,2.23a35.66,35.66,0,0,1,.53,7.44q0,25.48,0,51a25.2,25.2,0,0,1-.11,4.35c-.42,2.3-.16,5.2-3.72,5.42a31,31,0,0,1-8.5,0,5.17,5.17,0,0,1-4.11-1.64,15.26,15.26,0,0,1-3.84-6.12c-8-19.52-15.86-39.11-23.94-58.61-1.62-3.91-2.68-8.09-5.21-11.61-1.09.54-2.33-.05-3.44.42l-2.45.13c-1,.44-2.06,0-3,.41-1.9.19-2.06,1.9-2.68,3.14-1.94,3.91-3.46,8-5.37,11.94-2.3,4.77-4.1,9.77-6.2,14.65s-4.34,9.94-6.56,14.88-4.6,9.57-6.53,14.49c-1.8,4.61-3.73,9.18-6.66,13.14-1.66,2.25-3.83,4.45-7,4.81-1.43.63-3-.23-4.46.5-.3.51-.55.92-.86,1.43-.13,5.31,1.18,4.81,2.31,4.81h30.91c1.12,0,2.42.53,2.22-5l-.72-1.21c-1.63-.84-3.48.1-5.14-.56-2.18-.05-4.43,0-5.26-2.66a4.19,4.19,0,0,1,0-3c.68-5.48,3.36-10.22,5.62-15.12a1.43,1.43,0,0,1,.75-.25c10.25,0,20.51,0,30.76,0,.74,0,1.48,0,1.85.82,1.76,4.61,3.73,9.15,5.23,13.83,1.68,5.25.16,6.12-3.26,6.42-1.52.55-3.14-.1-4.65.42-1,1.91-.16,4-.5,5.93.86.79,1.92.38,2.88.38q31.31,0,62.61,0c4.95,0,4.91,0,4.51-5-.1-1.18-.5-1.56-1.65-1.56a14.5,14.5,0,0,1-4.36-.2c-3.2-.24-3.58-.66-3.69-4.16-.51-8.66-.08-17.33-.22-26,0-.93.44-1.31,1.33-1.27,2.44.12,4.9-.27,7.32.23,5.36.38,9.72,2.41,12.84,7,6.38,9.38,10.45,19.87,15,30.11.54,1,1.52.82,2.42.82h87.51c.88,0,1.91.25,2.29-1a64.07,64.07,0,0,1,1.24-11.3c.43-.91-.1-2,.41-2.86a20.72,20.72,0,0,1,.68-6.42C837,401.41,836.35,400.27,837,399.33ZM642.85,386c-8-.1-16.09,0-24.56,0C623,375,627.47,364.6,632.1,353.81c4.17,10.35,8.12,20.24,12.16,30.1C645,385.59,644.74,386,642.85,386ZM722,378.07c-5.5.95-11,.57-16.58.7-1.61,0-1.43-.93-1.43-1.94,0-4.73,0-9.45,0-14.18s0-9.45,0-14.17c0-1-.12-2,1.46-1.94,5.71.11,11.46-.34,17.12.77,9.66,1.9,13.71,6.53,13.61,15.35C736.07,371.25,731.27,376.47,722,378.07Z"/></g></g></svg>